<?xml version="1.0" encoding="UTF-8"?>
<svg width="330px" height="344px" viewBox="0 0 330 344" version="1.1" xmlns="http://www.w3.org/2000/svg" xmlns:xlink="http://www.w3.org/1999/xlink">
    <title>Group 2 Copy</title>
    <defs>
        <path d="M283.853035,56.9105777 C316.969213,87.9065667 337.431241,139.656392 327.469464,184.937489 C317.776924,229.949055 277.391342,268.761424 225.42856,300.835534 C173.465778,332.640114 109.387322,357.975966 76.8096192,335.335418 C44.5011537,312.9644 43.4242049,242.616981 29.1546327,176.582048 C14.8850604,110.547115 -12.8463725,48.5551372 6.80794403,20.523982 C26.1930233,-7.50717323 92.963852,-1.30797544 148.965192,7.04746506 C205.235769,15.4029056 250.736858,25.9145888 283.853035,56.9105777 Z" id="path-1"></path>
    </defs>
    <g id="Onboarding" stroke="none" stroke-width="1" fill="none" fill-rule="evenodd">
        <g id="Documents-1-Copy" transform="translate(-42.000000, -214.000000)">
            <g id="Add-files-rafiki" transform="translate(42.000000, 214.000000)">
                <mask id="mask-2" fill="white">
                    <use xlink:href="#path-1" transform="translate(165.000000, 172.000000) scale(-1, 1) translate(-165.000000, -172.000000) "></use>
                </mask>
                <use id="Mask" fill="#F1C21B" fill-rule="nonzero" transform="translate(165.000000, 172.000000) scale(-1, 1) translate(-165.000000, -172.000000) " xlink:href="#path-1"></use>
                <g id="Verified-rafiki" mask="url(#mask-2)">
                    <g transform="translate(107.517145, 64.000000)">
                        <g id="freepik--Device--inject-38">
                            <path d="M159.704183,4.1 L159.704183,285.57 C159.704183,286.746531 159.230892,287.873885 158.392405,288.699212 C157.553918,289.524539 156.419237,289.97876 155.242855,289.960559 L4.00285533,289.960559 C2.93705885,289.976358 1.91011131,289.560185 1.15639064,288.806465 C0.402669962,288.052744 -0.0135025114,287.025796 0.00285532592,285.96 L0.00285532592,3.74 C-0.0349842181,2.79661643 0.30453104,1.87702018 0.946325508,1.18455773 C1.58811998,0.492095277 2.47931895,0.0838156437 3.42285533,0.05 L39.3728553,0.05 C40.5078648,0.072312882 41.5161826,0.780112451 41.9228553,1.84 L43.5728553,5.84 C43.9872676,6.89536317 44.9991431,7.59498019 46.1328553,7.61 L113.742855,7.61 C114.867226,7.60130754 115.874789,6.91379341 116.292855,5.87 L117.942855,1.8 C118.348587,0.737938331 119.356245,0.026650035 120.492855,0 L155.832855,0 C158.03046,0.070743186 159.758962,1.90197249 159.704183,4.1 Z" id="Path" fill="#263238" fill-rule="nonzero"></path>
                            <rect id="Rectangle" fill="#407BFF" fill-rule="nonzero" x="0.0228553259" y="18.83" width="159.69" height="251.17"></rect>
                            <rect id="Rectangle" fill="#FFFFFF" fill-rule="nonzero" opacity="0.7" x="0.0228553259" y="18.83" width="159.69" height="251.17"></rect>
                            <rect id="Rectangle" fill="#FFFFFF" fill-rule="nonzero" opacity="0.6" transform="translate(19.917855, 10.785000) rotate(180.000000) translate(-19.917855, -10.785000) " x="18.8828553" y="9.41" width="2.07" height="2.75"></rect>
                            <rect id="Rectangle" fill="#FFFFFF" fill-rule="nonzero" opacity="0.6" transform="translate(16.547855, 10.325000) rotate(180.000000) translate(-16.547855, -10.325000) " x="15.5128553" y="8.49" width="2.07" height="3.67"></rect>
                            <rect id="Rectangle" fill="#FFFFFF" fill-rule="nonzero" opacity="0.6" transform="translate(13.177855, 9.865000) rotate(180.000000) translate(-13.177855, -9.865000) " x="12.1428553" y="7.57" width="2.07" height="4.59"></rect>
                            <rect id="Rectangle" fill="#FFFFFF" fill-rule="nonzero" opacity="0.6" transform="translate(9.807855, 9.405000) rotate(180.000000) translate(-9.807855, -9.405000) " x="8.77285533" y="6.65" width="2.07" height="5.51"></rect>
                            <rect id="Rectangle" fill="#FFFFFF" fill-rule="nonzero" opacity="0.6" x="139.982855" y="8.4" width="1.22" height="2.75"></rect>
                            <rect id="Rectangle" fill="#FFFFFF" fill-rule="nonzero" opacity="0.6" transform="translate(146.922855, 9.775000) rotate(180.000000) translate(-146.922855, -9.775000) " x="142.042855" y="7.39" width="9.76" height="4.77"></rect>
                            <path d="M71.9628553,43.77 L124.512855,43.77 C124.940103,43.8103261 125.353321,43.6051545 125.579446,43.2404149 C125.80557,42.8756754 125.80557,42.4143246 125.579446,42.0495851 C125.353321,41.6848455 124.940103,41.4796739 124.512855,41.52 L71.9628553,41.52 C71.3824883,41.5747783 70.9390391,42.0620536 70.9390391,42.645 C70.9390391,43.2279464 71.3824883,43.7152217 71.9628553,43.77 Z" id="Path" fill="#263238" fill-rule="nonzero"></path>
                            <path d="M136.472855,47.94 L71.6728553,47.94 C71.3564233,47.9051092 71.0479154,48.0542824 70.8787571,48.3239711 C70.7095987,48.5936599 70.7095987,48.9363401 70.8787571,49.2060289 C71.0479154,49.4757176 71.3564233,49.6248908 71.6728553,49.59 L136.472855,49.59 C136.893497,49.5436187 137.211888,49.1881915 137.211888,48.765 C137.211888,48.3418085 136.893497,47.9863813 136.472855,47.94 L136.472855,47.94 Z" id="Path" fill="#263238" fill-rule="nonzero"></path>
                            <path d="M117.462855,52.67 L71.6728553,52.67 C71.3564233,52.6351092 71.0479154,52.7842824 70.8787571,53.0539711 C70.7095987,53.3236599 70.7095987,53.6663401 70.8787571,53.9360289 C71.0479154,54.2057176 71.3564233,54.3548908 71.6728553,54.32 L117.462855,54.32 C117.883497,54.2736187 118.201888,53.9181915 118.201888,53.495 C118.201888,53.0718085 117.883497,52.7163813 117.462855,52.67 L117.462855,52.67 Z" id="Path" fill="#263238" fill-rule="nonzero"></path>
                            <rect id="Rectangle" fill="#407BFF" fill-rule="nonzero" x="1.92285533" y="83.27" width="155.88" height="155.88"></rect>
                            <polygon id="Path" fill="#407BFF" fill-rule="nonzero" points="152.782855 256.01 148.392855 252.22 143.992855 256.01 143.992855 245.59 152.782855 245.59"></polygon>
                            <path d="M136.922855,245.589969 L130.302855,245.589969 C129.397108,245.589969 128.662855,246.324253 128.662855,247.23 L128.662855,251.75 C128.662855,252.655747 129.397108,253.39 130.302855,253.39 L132.552855,253.39 L132.552855,256.01 L134.262855,253.39 L136.922855,253.39 C137.358627,253.392682 137.777327,253.220758 138.08547,252.912615 C138.393613,252.604472 138.565537,252.185772 138.562886,251.75 L138.562886,247.23 C138.565537,246.794228 138.393613,246.375528 138.08547,246.067385 C137.777327,245.759242 137.358627,245.587318 136.922855,245.589969 L136.922855,245.589969 Z" id="Path" fill="#407BFF" fill-rule="nonzero"></path>
                            <path d="M123.652855,246.83 C122.432855,244.83 120.072855,245.58 118.852855,247.13 C117.642855,245.57 115.292855,244.78 114.042855,246.78 C111.952855,250.14 116.212855,253.29 118.232855,254.53 L118.802855,254.88 L119.382855,254.53 C121.372855,253.32 125.712855,250.22 123.652855,246.83 Z" id="Path" fill="#407BFF" fill-rule="nonzero"></path>
                            <g id="Group" opacity="0.3" transform="translate(8.602855, 90.060000)" fill="#FFFFFF" fill-rule="nonzero">
                                <polygon id="Path" opacity="0.7" points="117.37 6.33 123.27 6.33 120.32 13.98"></polygon>
                                <polygon id="Path" opacity="0.7" points="136.38 44.41 138.17 50.03 129.99 49.53"></polygon>
                                <polygon id="Path" points="134.08 19.75 131.28 26.62 139.79 29.59 139.79 24.03"></polygon>
                                <polygon id="Path" points="23.74 4.49 28.07 4.49 23.74 10.16"></polygon>
                                <polygon id="Path" points="7.46 32.44 12.36 31.32 13.73 35.53 8.08 37.5"></polygon>
                                <circle id="Oval" cx="57.04" cy="8.25" r="1.91"></circle>
                                <path d="M29.2100132,136.32 C29.2100132,137.853821 28.2855051,139.236421 26.868051,139.82245 C25.450597,140.408479 23.8196688,140.082386 22.7365274,138.996379 C21.653386,137.910372 21.3316027,136.278588 21.9213748,134.862687 C22.5111469,133.446787 23.8961846,132.525953 25.43,132.529987 C26.4342533,132.529987 27.3972297,132.929618 28.1064054,133.64067 C28.8155811,134.351721 29.2126568,135.31575 29.2100132,136.32 L29.2100132,136.32 Z" id="Path"></path>
                                <polygon id="Path" points="10.96 103.39 12.36 105.76 5.59 108.66 4.05 107.08"></polygon>
                                <polygon id="Path" points="55.13 142.19 53.81 138.84 58.96 138.84"></polygon>
                                <polygon id="Path" points="109.84 138.84 110.24 135.11 117.3 136.97 117.3 142.42"></polygon>
                                <polygon id="Path" points="125.01 119.61 131.32 119.61 128.17 123.34"></polygon>
                                <polygon id="Path" points="135.39 81.23 134.08 89.15 135.53 90.47 136.89 81.23"></polygon>
                                <polygon id="Path" points="0 58.03 5.59 62.09 1.59 65.03"></polygon>
                                <circle id="Oval" cx="24.8" cy="25.26" r="1"></circle>
                                <circle id="Oval" cx="105.76" cy="17.5" r="1"></circle>
                                <path d="M82.14,138.12 C82.14,138.512122 81.8221222,138.83 81.43,138.83 C81.0378778,138.83 80.72,138.512122 80.72,138.12 C80.72,137.727878 81.0378778,137.41 81.43,137.41 C81.8221222,137.41 82.14,137.727878 82.14,138.12 L82.14,138.12 Z" id="Path"></path>
                                <polygon id="Path" points="90.47 1.06 97.51 2.84217094e-14 97.51 3.43 90.47 4.49"></polygon>
                                <polygon id="Path" points="136.89 4.49 139.2 4.49 138.04 7.32"></polygon>
                                <polygon id="Path" points="4.05 8.25 7.46 8.25 5.75 10.16"></polygon>
                                <polygon id="Path" points="133.32 142.19 132.99 135.63 138.04 137.41"></polygon>
                                <polygon id="Path" points="138.17 104.44 135.53 102.33 135.53 104.44 138.17 106.03"></polygon>
                                <polygon id="Path" points="2.79 83.34 5.75 85.85 4.27 88.09 0.35 84.95"></polygon>
                                <polygon id="Path" points="0.35 24.63 4.05 24.63 0 25.89"></polygon>
                            </g>
                            <polygon id="Path" fill="#407BFF" fill-rule="nonzero" points="73.4428553 108.7 80.1328553 102.41 86.7528553 108.76 94.7928553 104.33 99.6328553 112.13 108.522855 109.85 111.262855 118.6 120.442855 118.6 120.932855 127.76 129.822855 130.04 128.002855 139.04 136.052855 143.46 132.062855 151.72 138.752855 158 132.832855 165.01 137.752855 172.76 130.272855 178.08 133.112855 186.8 124.552855 190.09 125.132855 199.25 116.012855 200.31 114.302855 209.33 105.202855 208.08 101.302855 216.39 92.8028553 212.92 86.9528553 220 79.5828553 214.53 72.1628553 219.93 66.3828553 212.8 57.8528553 216.18 54.0328553 207.84 44.9328553 208.99 43.3028553 199.96 34.1928553 198.81 34.8628553 189.66 26.3328553 186.29 29.2528553 177.59 21.8228553 172.2 26.8228553 164.5 20.9628553 157.43 27.7228553 151.22 23.8128553 142.91 31.9028553 138.57 30.1728553 129.56 39.0828553 127.37 39.6528553 118.21 48.8328553 118.3 51.6628553 109.57 60.5328553 111.94 65.4428553 104.19"></polygon>
                            <path d="M133.832855,167.01 L139.752855,160.01 L133.062855,153.73 L137.062855,145.47 L129.012855,141.05 L130.832855,132.05 L121.942855,129.77 L121.452855,120.61 L112.272855,120.61 L109.532855,111.86 L100.642855,114.14 L95.8028553,106.34 L87.8028553,110.77 L81.1828553,104.42 L74.4928553,110.71 L66.4928553,106.2 L61.5828553,113.96 L52.7128553,111.58 L49.8828553,120.31 L40.7028553,120.22 L40.1328553,129.38 L31.2228553,131.57 L32.9528553,140.57 L24.8628553,144.91 L28.7728553,153.22 L21.9628553,159.47 L27.8228553,166.54 L22.8228553,174.24 L30.2528553,179.63 L27.3328553,188.33 L35.8628553,191.7 L35.1928553,200.85 L44.3028553,202 L45.9228553,211 L55.0328553,209.85 L58.8528553,218.19 L67.3828553,214.81 L73.1628553,221.94 L80.5828553,216.54 L87.9528553,222.01 L93.8028553,214.93 L102.302855,218.4 L106.202855,210.09 L115.292855,211.34 L117.012855,202.34 L126.132855,201.28 L125.542855,192.12 L134.112855,188.83 L131.272855,180.1 L138.752855,174.79 L133.832855,167.01 Z M131.992855,173.47 L125.382855,178.17 L127.892855,185.88 L120.322855,188.78 L120.842855,196.87 L112.782855,197.81 L111.272855,205.81 L103.272855,204.71 L99.8228553,212.05 L92.3228553,208.99 L87.1528553,215.23 L80.6428553,210.4 L74.0928553,215.17 L68.9928553,208.87 L61.4528553,211.87 L58.0828553,204.5 L50.0328553,205.5 L48.6028553,197.5 L40.6028553,196.5 L41.2028553,188.42 L33.6628553,185.42 L36.2428553,177.74 L29.6828553,172.98 L34.1028553,166.18 L28.9228553,159.94 L34.9228553,154.45 L31.3728553,147.07 L38.5228553,143.24 L36.9928553,135.24 L44.8728553,133.31 L45.3728553,125.22 L53.4728553,125.3 L55.9728553,117.59 L63.8028553,119.69 L68.1428553,112.84 L75.2128553,116.84 L81.1128553,111.28 L86.9628553,116.89 L94.0628553,112.98 L98.3428553,119.87 L106.192855,117.87 L108.612855,125.61 L116.722855,125.61 L117.152855,133.71 L125.002855,135.71 L123.402855,143.65 L130.502855,147.55 L126.982855,154.85 L132.892855,160.4 L127.662855,166.59 L131.992855,173.47 Z" id="Shape" fill="#000000" fill-rule="nonzero" opacity="0.4"></path>
                            <polygon id="Path" fill="#000000" fill-rule="nonzero" opacity="0.4" points="73.4428553 108.7 80.1328553 102.41 86.7528553 108.76 94.7928553 104.33 99.6328553 112.13 108.522855 109.85 111.262855 118.6 120.442855 118.6 120.932855 127.76 129.822855 130.04 128.002855 139.04 136.052855 143.46 132.062855 151.72 138.752855 158 132.832855 165.01 137.752855 172.76 130.272855 178.08 133.112855 186.8 124.552855 190.09 125.132855 199.25 116.012855 200.31 114.302855 209.33 105.202855 208.08 101.302855 216.39 92.8028553 212.92 86.9528553 220 79.5828553 214.53 72.1628553 219.93 66.3828553 212.8 57.8528553 216.18 54.0328553 207.84 44.9328553 208.99 43.3028553 199.96 34.1928553 198.81 34.8628553 189.66 26.3328553 186.29 29.2528553 177.59 21.8228553 172.2 26.8228553 164.5 20.9628553 157.43 27.7228553 151.22 23.8128553 142.91 31.9028553 138.57 30.1728553 129.56 39.0828553 127.37 39.6528553 118.21 48.8328553 118.3 51.6628553 109.57 60.5328553 111.94 65.4428553 104.19"></polygon>
                            <path d="M132.832855,165.01 L138.752855,158.01 L132.062855,151.73 L136.062855,143.47 L128.012855,139.05 L129.832855,130.05 L120.942855,127.77 L120.452855,118.61 L111.272855,118.61 L108.532855,109.86 L99.6428553,112.14 L94.8028553,104.34 L86.8028553,108.77 L80.1828553,102.42 L73.4928553,108.71 L65.4928553,104.2 L60.5828553,111.96 L51.7128553,109.58 L48.8828553,118.31 L39.7028553,118.22 L39.1328553,127.38 L30.2228553,129.57 L31.9528553,138.57 L23.8628553,142.91 L27.7728553,151.22 L20.9628553,157.47 L26.8228553,164.54 L21.8228553,172.24 L29.2528553,177.63 L26.3328553,186.33 L34.8628553,189.7 L34.1928553,198.85 L43.3028553,200 L44.9228553,209 L54.0328553,207.85 L57.8528553,216.19 L66.3828553,212.81 L72.1628553,219.94 L79.5828553,214.54 L86.9528553,220.01 L92.8028553,212.93 L101.302855,216.4 L105.202855,208.09 L114.292855,209.34 L116.012855,200.34 L125.132855,199.28 L124.542855,190.12 L133.112855,186.83 L130.272855,178.1 L137.752855,172.79 L132.832855,165.01 Z M130.992855,171.47 L124.382855,176.17 L126.892855,183.88 L119.322855,186.78 L119.842855,194.87 L111.782855,195.81 L110.272855,203.81 L102.272855,202.71 L98.8228553,210.05 L91.3228553,206.99 L86.1528553,213.23 L79.6428553,208.4 L73.0928553,213.17 L67.9928553,206.87 L60.4528553,209.87 L57.0828553,202.5 L49.0328553,203.5 L47.6028553,195.5 L39.6028553,194.5 L40.2028553,186.42 L32.6628553,183.42 L35.2428553,175.74 L28.6828553,170.98 L33.1028553,164.18 L27.9228553,157.94 L33.9228553,152.45 L30.3728553,145.07 L37.5228553,141.24 L35.9928553,133.24 L43.8728553,131.31 L44.3728553,123.22 L52.4728553,123.3 L54.9728553,115.59 L62.8028553,117.69 L67.1428553,110.84 L74.2128553,114.84 L80.1128553,109.28 L85.9628553,114.89 L93.0628553,110.98 L97.3428553,117.87 L105.192855,115.87 L107.612855,123.61 L115.722855,123.61 L116.152855,131.71 L124.002855,133.71 L122.402855,141.65 L129.502855,145.55 L125.982855,152.85 L131.892855,158.4 L126.662855,164.59 L130.992855,171.47 Z" id="Shape" fill="#407BFF" fill-rule="nonzero"></path>
                            <path d="M132.832855,165.01 L138.752855,158.01 L132.062855,151.73 L136.062855,143.47 L128.012855,139.05 L129.832855,130.05 L120.942855,127.77 L120.452855,118.61 L111.272855,118.61 L108.532855,109.86 L99.6428553,112.14 L94.8028553,104.34 L86.8028553,108.77 L80.1828553,102.42 L73.4928553,108.71 L65.4928553,104.2 L60.5828553,111.96 L51.7128553,109.58 L48.8828553,118.31 L39.7028553,118.22 L39.1328553,127.38 L30.2228553,129.57 L31.9528553,138.57 L23.8628553,142.91 L27.7728553,151.22 L20.9628553,157.47 L26.8228553,164.54 L21.8228553,172.24 L29.2528553,177.63 L26.3328553,186.33 L34.8628553,189.7 L34.1928553,198.85 L43.3028553,200 L44.9228553,209 L54.0328553,207.85 L57.8528553,216.19 L66.3828553,212.81 L72.1628553,219.94 L79.5828553,214.54 L86.9528553,220.01 L92.8028553,212.93 L101.302855,216.4 L105.202855,208.09 L114.292855,209.34 L116.012855,200.34 L125.132855,199.28 L124.542855,190.12 L133.112855,186.83 L130.272855,178.1 L137.752855,172.79 L132.832855,165.01 Z M130.992855,171.47 L124.382855,176.17 L126.892855,183.88 L119.322855,186.78 L119.842855,194.87 L111.782855,195.81 L110.272855,203.81 L102.272855,202.71 L98.8228553,210.05 L91.3228553,206.99 L86.1528553,213.23 L79.6428553,208.4 L73.0928553,213.17 L67.9928553,206.87 L60.4528553,209.87 L57.0828553,202.5 L49.0328553,203.5 L47.6028553,195.5 L39.6028553,194.5 L40.2028553,186.42 L32.6628553,183.42 L35.2428553,175.74 L28.6828553,170.98 L33.1028553,164.18 L27.9228553,157.94 L33.9228553,152.45 L30.3728553,145.07 L37.5228553,141.24 L35.9928553,133.24 L43.8728553,131.31 L44.3728553,123.22 L52.4728553,123.3 L54.9728553,115.59 L62.8028553,117.69 L67.1428553,110.84 L74.2128553,114.84 L80.1128553,109.28 L85.9628553,114.89 L93.0628553,110.98 L97.3428553,117.87 L105.192855,115.87 L107.612855,123.61 L115.722855,123.61 L116.152855,131.71 L124.002855,133.71 L122.402855,141.65 L129.502855,145.55 L125.982855,152.85 L131.892855,158.4 L126.662855,164.59 L130.992855,171.47 Z" id="Shape" fill="#FFFFFF" fill-rule="nonzero" opacity="0.6"></path>
                            <path d="M50.4728553,158.28 C50.4728553,158.28 55.5728553,157.4 58.0828553,158.28 C60.5928553,159.16 71.2128553,177.28 71.2128553,177.28 C71.2128553,177.28 91.8128553,148.94 108.282855,136.55 C108.282855,136.55 86.9128553,155.69 74.5228553,187.82 C74.5228553,187.82 70.3528553,189.66 67.4028553,186.37 C66.5528553,185.37 56.9828553,169.06 55.1328553,168.45 C53.6828553,167.96 49.0028553,168.2 49.0028553,168.2 L50.4728553,158.28 Z" id="Path" fill="#000000" fill-rule="nonzero" opacity="0.4"></path>
                            <path d="M49.4728553,157.28 C49.4728553,157.28 54.5728553,156.4 57.0828553,157.28 C59.5928553,158.16 70.2128553,176.28 70.2128553,176.28 C70.2128553,176.28 90.8128553,147.94 107.282855,135.55 C107.282855,135.55 85.9128553,154.69 73.5228553,186.82 C73.5228553,186.82 69.3528553,188.66 66.4028553,185.37 C65.5528553,184.37 55.9828553,168.06 54.1328553,167.45 C52.6828553,166.96 48.0028553,167.2 48.0028553,167.2 L49.4728553,157.28 Z" id="Path" fill="#FFFFFF" fill-rule="nonzero"></path>
                        </g>
                        <g id="freepik--Avatar--inject-38" transform="translate(9.052057, 28.496947)">
                            <path d="M48.1107984,24.1230534 C48.1315638,28.2222418 47.098524,32.2579838 45.1107984,35.8430534 L44.6707984,36.5930534 C43.241672,38.9643263 41.4110683,41.069013 39.2607984,42.8130534 L39.1407984,42.9130534 C37.1050582,44.5538267 34.814882,45.8509177 32.3607984,46.7530534 L32.3607984,46.7530534 C29.7087021,47.7249735 26.90537,48.2192809 24.0807984,48.213452 C23.1818986,48.2184855 22.2835215,48.1683901 21.3907984,48.0630534 C19.8914627,47.9036341 18.4111704,47.598868 16.9707984,47.1530534 C13.4631854,46.0746025 10.2527538,44.1989985 7.5907984,41.6730534 L7.5907984,41.6730534 C-0.424785631,34.1325379 -2.31716269,22.1213248 2.99164995,12.4815391 C8.3004626,2.84175331 19.4630017,-1.97987014 30.1205849,0.763281399 C40.7781682,3.50643294 48.225727,13.1181028 48.2208008,24.1230534 L48.1107984,24.1230534 Z" id="Path" fill="#407BFF" fill-rule="nonzero"></path>
                            <path d="M45.0707984,35.8430534 L44.6307984,36.5930534 C39.1174602,36.5069145 33.6158601,37.1286592 28.2607984,38.4430534 L26.4707984,38.8830534 L25.2507984,39.2030534 C23.7207984,39.6130534 22.2507984,40.0430534 21.0007984,40.4530534 L20.4307984,40.6430534 L20.0207984,40.7730534 L20.0207984,40.7730534 C18.5307984,41.2730534 17.2607984,41.7230534 16.2907984,42.0930534 C14.8407984,42.6430534 14.0107984,43.0030534 14.0107984,43.0030534 C13.5366511,42.3916579 13.1024171,41.7503276 12.7107984,41.0830534 L12.6507984,40.9730534 L12.6507984,40.9730534 C10.4807984,37.3330534 6.6507984,28.9730534 8.4507984,16.9730534 C10.4507984,3.62305339 21.5207984,4.47305339 25.4507984,5.21305339 C25.9203218,5.29077981 26.3845525,5.39765307 26.8407984,5.53305339 C26.8407984,5.53305339 39.2307984,8.45305339 39.6907984,16.1730534 C39.7556203,17.2064082 39.8825159,18.2349307 40.0707984,19.2530534 C41.2357773,24.9220101 42.9092104,30.4744611 45.0707984,35.8430534 Z" id="Path" fill="#263238" fill-rule="nonzero"></path>
                            <path d="M32.3207984,46.7530534 L32.3207984,46.7530534 C29.6687021,47.7249735 26.86537,48.2192809 24.0407984,48.2130534 C23.1418986,48.2184855 22.2435215,48.1683901 21.3507984,48.0630534 C19.8514627,47.9036341 18.3711704,47.598868 16.9307984,47.1530534 L16.1607984,40.8630534 L15.7907984,37.8630534 L32.2807984,40.2030534 L32.2807984,41.6130534 L32.3307984,45.7530534 L32.3307984,46.7530534 L32.3207984,46.7530534 Z" id="Path" fill="#407BFF" fill-rule="nonzero"></path>
                            <path d="M39.1007984,42.9130534 C37.0650582,44.5538267 34.774882,45.8509177 32.3207984,46.7530534 L32.3207984,46.7530534 C29.6687021,47.7249735 26.86537,48.2192809 24.0407984,48.2130534 C23.1418986,48.2184855 22.2435215,48.1683901 21.3507984,48.0630534 C19.8514627,47.9036341 18.3711704,47.598868 16.9307984,47.1530534 C13.4231854,46.0746025 10.2127538,44.1989985 7.5507984,41.6730534 L7.5507984,41.6730534 C8.3107984,41.5530534 9.0807984,41.4630534 9.8507984,41.3630534 L10.0407984,41.3630534 C10.9507984,41.2630534 11.8607984,41.1730534 12.7707984,41.1030534 C13.8507984,41.0130534 14.9207984,40.9430534 16.0007984,40.9030534 L16.1907984,40.9030534 L17.5107984,40.8530534 L19.0807984,40.8530534 L20.9207984,40.8530534 C22.9207984,40.8530534 24.9474651,40.9263867 27.0007984,41.0730534 L29.0707984,41.2430534 L30.1607984,41.3530534 L31.7407984,41.5930534 L32.0907984,41.6430534 L32.3307984,41.6430534 L32.3307984,41.6430534 L34.1907984,41.9630534 C34.4807984,42.0130534 34.7707984,42.0830534 35.0607984,42.1230534 L35.6107984,42.2330534 L36.2007984,42.3430534 L37.2007984,42.5430534 L37.9007984,42.6830534 L39.1007984,42.9130534 Z" id="Path" fill="#263238" fill-rule="nonzero"></path>
                            <path d="M28.1007984,46.9730534 C21.2307984,45.8030534 19.2707984,42.7630534 19.2707984,42.7630534 C22.2107984,40.2230534 21.8607984,36.2730534 21.2707984,33.7630534 C21.0817491,32.9798675 20.8275298,32.2138645 20.5107984,31.4730534 L28.7607984,33.3730534 C28.5214995,34.5203876 28.3644335,35.683345 28.2907984,36.8530534 C28.2278632,37.7184523 28.2715238,38.5883059 28.4207984,39.4430534 C28.8807984,41.9430534 30.3007984,42.0430534 30.3007984,42.0430534 C31.6107984,44.8930534 28.1007984,46.9730534 28.1007984,46.9730534 Z" id="Path" fill="#E4897B" fill-rule="nonzero"></path>
                            <path d="M28.2607984,36.9130534 C28.1978632,37.7784523 28.2415238,38.6483059 28.3907984,39.5030534 C25.1107984,38.9230534 22.7107984,36.1830534 21.2407984,33.8230534 C21.0517491,33.0398675 20.7975298,32.2738645 20.4807984,31.5330534 L28.7307984,33.4330534 C28.4914995,34.5803876 28.3344335,35.743345 28.2607984,36.9130534 Z" id="Path" fill="#000000" fill-rule="nonzero" opacity="0.2"></path>
                            <path d="M27.1407984,9.79305339 C34.9507984,10.1330534 37.2907984,14.4230534 37.5107984,22.4930534 C37.8007984,32.5730534 35.2607984,39.6230534 25.5907984,37.0630534 C12.4507984,33.5730534 14.1707984,9.23305339 27.1407984,9.79305339 Z" id="Path" fill="#E4897B" fill-rule="nonzero"></path>
                            <path d="M32.4807984,21.8330534 C33.0581515,23.0278737 33.776607,24.1492013 34.6207984,25.1730534 C34.1227608,25.8077639 33.3149031,26.1155192 32.5207984,25.9730534 L32.4807984,21.8330534 Z" id="Path" fill="#DE5753" fill-rule="nonzero"></path>
                            <path d="M24.4507984,16.9730534 C24.362466,16.9735139 24.2770474,16.9414819 24.2107984,16.8830534 C24.1404392,16.8169049 24.1005378,16.7246248 24.1005378,16.6280534 C24.1005378,16.5314819 24.1404392,16.4392019 24.2107984,16.3730534 C25.2134203,15.4125852 26.612799,14.985719 27.9807984,15.2230534 C28.0750658,15.2400694 28.1586645,15.2939534 28.2130919,15.3727793 C28.2675194,15.4516053 28.288287,15.5488726 28.2707984,15.6430534 C28.2537824,15.7373208 28.1998984,15.8209194 28.1210725,15.8753469 C28.0422465,15.9297743 27.9449792,15.950542 27.8507984,15.9330534 C26.7315357,15.7555568 25.5920373,16.0937305 24.7507984,16.8530534 C24.6753732,16.9382036 24.564141,16.9826965 24.4507984,16.9730534 L24.4507984,16.9730534 Z" id="Path" fill="#263238" fill-rule="nonzero"></path>
                            <path d="M36.6607984,16.6530534 C36.5854028,16.6510772 36.5123006,16.6267098 36.4507984,16.5830534 C35.6877332,15.9363886 34.6737919,15.6682084 33.6907984,15.8530534 C33.5993271,15.8845866 33.4990131,15.8779727 33.4124736,15.834703 C33.3259341,15.7914333 33.2604547,15.7151504 33.2307984,15.6230534 C33.1709487,15.4327911 33.2726788,15.229331 33.4607984,15.1630534 C34.664633,14.8996779 35.9226678,15.2058858 36.8707984,15.9930534 C37.0312447,16.1132966 37.0667211,16.3394582 36.9507984,16.5030534 C36.8816327,16.5941497 36.7751135,16.6492459 36.6607984,16.6530534 L36.6607984,16.6530534 Z" id="Path" fill="#263238" fill-rule="nonzero"></path>
                            <path d="M18.0407984,22.5930534 C18.0407984,22.5930534 21.9707984,16.3330534 21.6307984,11.3530534 C21.6307984,11.3530534 37.3807984,5.69305339 37.4707984,21.4330534 C37.4707984,21.4330534 39.5807984,7.55305339 26.1707984,6.66305339 C12.7607984,5.77305339 11.9707984,25.4230534 18.6507984,31.5730534 C18.6507984,31.5730534 15.6107984,26.5030534 18.0407984,22.5930534 Z" id="Path" fill="#263238" fill-rule="nonzero"></path>
                            <path d="M19.2507984,24.2930534 C19.169572,22.4085865 17.5859937,20.9409886 15.7007984,21.0030534 C13.2607984,21.1630534 11.9007984,26.0830534 17.8707984,27.5330534 C18.7207984,27.7430534 19.2407984,26.9730534 19.2507984,24.2930534 Z" id="Path" fill="#E4897B" fill-rule="nonzero"></path>
                            <path d="M32.6707984,28.2730534 C32.139281,29.0650174 31.664751,29.8937741 31.2507984,30.7530534 L30.7607984,30.6130534 C28.5807984,29.9330534 27.7607984,28.9030534 27.5707984,27.9630534 C27.4744155,27.499175 27.4915691,27.0188742 27.6207984,26.5630534 C27.6845341,26.3031923 27.7855838,26.0539365 27.9207984,25.8230534 C29.0810482,26.836864 30.4449679,27.5904296 31.9207984,28.0330534 C32.3807984,28.1930534 32.6707984,28.2730534 32.6707984,28.2730534 Z" id="Path" fill="#263238" fill-rule="nonzero"></path>
                            <path d="M31.9307984,28.0330534 L31.4907984,28.7530534 C29.4907984,28.1130534 28.0707984,27.3930534 27.6207984,26.5630534 C27.6845341,26.3031923 27.7855838,26.0539365 27.9207984,25.8230534 C29.0839738,26.8381061 30.4514236,27.591738 31.9307984,28.0330534 Z" id="Path" fill="#FFFFFF" fill-rule="nonzero"></path>
                            <path d="M30.7607984,30.6130534 C28.5807984,29.9330534 27.7607984,28.9030534 27.5707984,27.9630534 C28.3983087,28.2332442 29.1705672,28.6498574 29.8507984,29.1930534 C30.3001317,29.5551461 30.6195259,30.0535415 30.7607984,30.6130534 Z" id="Path" fill="#DE5753" fill-rule="nonzero"></path>
                            <path d="M26.9607984,10.3730534 C26.9607984,10.3730534 23.2607984,23.0930534 15.1807984,22.5830534 C7.1007984,22.0730534 20.2807984,6.33305339 20.2807984,6.33305339 C20.2807984,6.33305339 33.6907984,1.92305339 39.9107984,9.21305339 C46.1307984,16.5030534 37.4707984,21.4330534 37.4707984,21.4330534 C37.4707984,21.4330534 38.3907984,11.5030534 26.9607984,10.3730534 Z" id="Path" fill="#263238" fill-rule="nonzero"></path>
                            <path d="M20.9607984,21.3330534 C20.8586407,21.3317268 20.7675697,21.268373 20.7307984,21.1730534 C20.6816381,21.0487856 20.7389016,20.9078292 20.8607984,20.8530534 C27.1607984,18.1530534 26.6707984,9.56305339 26.6707984,9.47305339 C26.6649943,9.33860994 26.766651,9.22369366 26.9007984,9.21305339 C27.0372386,9.20690416 27.1551778,9.3073709 27.1707984,9.44305339 C27.1707984,9.53305339 27.6807984,18.4430534 21.0607984,21.3130534 L20.9607984,21.3330534 Z" id="Path" fill="#263238" fill-rule="nonzero"></path>
                            <path d="M27.8807984,21.3930534 C27.9507984,21.9930534 27.6807984,22.5230534 27.2807984,22.5730534 C26.8807984,22.6230534 26.4907984,22.1630534 26.4207984,21.5730534 C26.3507984,20.9830534 26.6207984,20.4430534 27.0207984,20.3930534 C27.4207984,20.3430534 27.8107984,20.7830534 27.8807984,21.3930534 Z" id="Path" fill="#263238" fill-rule="nonzero"></path>
                            <path d="M26.8507984,20.4330534 L28.1107984,19.7630534 C28.1107984,19.7630534 27.5807984,20.9730534 26.8507984,20.4330534 Z" id="Path" fill="#263238" fill-rule="nonzero"></path>
                            <path d="M35.3707984,20.3730534 C35.4407984,20.9730534 35.1707984,21.5030534 34.7707984,21.5530534 C34.3707984,21.6030534 33.9807984,21.1530534 33.9107984,20.5530534 C33.8407984,19.9530534 34.1107984,19.4230534 34.5107984,19.3730534 C34.9107984,19.3230534 35.3207984,19.7730534 35.3707984,20.3730534 Z" id="Path" fill="#263238" fill-rule="nonzero"></path>
                            <path d="M34.3207984,19.4130534 L35.5707984,18.7430534 C35.5707984,18.7430534 35.0807984,19.9730534 34.3207984,19.4130534 Z" id="Path" fill="#263238" fill-rule="nonzero"></path>
                            <path d="M39.2207984,42.8130534 L39.1007984,42.9130534 C37.0650582,44.5538267 34.774882,45.8509177 32.3207984,46.7530534 L32.3207984,46.7530534 L32.3207984,46.0430534 L32.3207984,45.7330534 L31.0107984,43.0830534 L31.6807984,41.5030534 L32.2507984,40.1830534 L32.8307984,41.4430534 L39.2207984,42.8130534 Z" id="Path" fill="#407BFF" fill-rule="nonzero"></path>
                            <path d="M39.2207984,42.8130534 L39.1007984,42.9130534 C37.0650582,44.5538267 34.774882,45.8509177 32.3207984,46.7530534 L32.3207984,46.7530534 L32.3207984,46.0430534 L32.3207984,45.7330534 L31.0107984,43.0830534 L31.6807984,41.5030534 L32.2507984,40.1830534 L32.8307984,41.4430534 L39.2207984,42.8130534 Z" id="Path" fill="#FFFFFF" fill-rule="nonzero" opacity="0.6"></path>
                            <path d="M24.1907984,42.8830534 L21.4607984,46.3130534 L21.3207984,48.0730534 C19.8214627,47.9136341 18.3411704,47.608868 16.9007984,47.1630534 C13.3931854,46.0846025 10.1827538,44.2089985 7.5207984,41.6830534 L9.7907984,41.3630534 L9.9807984,41.3630534 L14.7907984,40.6830534 L15.7907984,37.8730534 L20.6907984,40.7930534 L24.2207984,42.9030534 L24.1907984,42.8830534 Z" id="Path" fill="#407BFF" fill-rule="nonzero"></path>
                            <path d="M24.1807984,42.8830534 L21.4607984,46.3130534 L21.3207984,48.0730534 C19.8214627,47.9136341 18.3411704,47.608868 16.9007984,47.1630534 C13.3931854,46.0846025 10.1827538,44.2089985 7.5207984,41.6830534 L9.9807984,41.3430534 L14.7907984,40.6730534 L14.7907984,40.6730534 L15.7907984,37.8630534 L20.6907984,40.7830534 L24.1807984,42.8830534 Z" id="Path" fill="#FFFFFF" fill-rule="nonzero" opacity="0.6"></path>
                            <path d="M49.7607984,44.5030534 C49.7607984,48.1205185 46.8282635,51.0530534 43.2107984,51.0530534 C39.5933333,51.0530534 36.6607984,48.1205185 36.6607984,44.5030534 C36.6607984,40.8855883 39.5933333,37.9530534 43.2107984,37.9530534 C46.8282635,37.9530534 49.7607984,40.8855883 49.7607984,44.5030534 L49.7607984,44.5030534 Z" id="Path" fill="#FFFFFF" fill-rule="nonzero"></path>
                            <path d="M48.8007984,44.5030534 C48.8007984,47.5903251 46.2980702,50.0930534 43.2107984,50.0930534 C40.1235267,50.0930534 37.6207984,47.5903251 37.6207984,44.5030534 C37.6207984,41.4157816 40.1235267,38.9130534 43.2107984,38.9130534 C46.2980702,38.9130534 48.8007984,41.4157816 48.8007984,44.5030534 Z" id="Path" fill="#263238" fill-rule="nonzero"></path>
                            <polygon id="Path" fill="#FFFFFF" fill-rule="nonzero" points="42.9907984 47.4130534 40.0107984 44.7830534 40.6707984 44.0330534 42.8307984 45.9330534 45.6707984 42.0330534 46.4807984 42.6230534"></polygon>
                        </g>
                    </g>
                </g>
            </g>
        </g>
    </g>
</svg>