<?xml version="1.0" encoding="UTF-8"?>
<svg width="330px" height="344px" viewBox="0 0 330 344" version="1.1" xmlns="http://www.w3.org/2000/svg" xmlns:xlink="http://www.w3.org/1999/xlink">
    <title>Group 2 Copy</title>
    <defs>
        <path d="M283.853035,56.9105777 C316.969213,87.9065667 337.431241,139.656392 327.469464,184.937489 C317.776924,229.949055 277.391342,268.761424 225.42856,300.835534 C173.465778,332.640114 109.387322,357.975966 76.8096192,335.335418 C44.5011537,312.9644 43.4242049,242.616981 29.1546327,176.582048 C14.8850604,110.547115 -12.8463725,48.5551372 6.80794403,20.523982 C26.1930233,-7.50717323 92.963852,-1.30797544 148.965192,7.04746506 C205.235769,15.4029056 250.736858,25.9145888 283.853035,56.9105777 Z" id="path-1"></path>
    </defs>
    <g id="Onboarding" stroke="none" stroke-width="1" fill="none" fill-rule="evenodd">
        <g id="Profile-1" transform="translate(-42.000000, -214.000000)">
            <g id="Group-2" transform="translate(0.000000, 20.000000)">
                <g id="Group-2-Copy" transform="translate(42.000000, 194.000000)">
                    <mask id="mask-2" fill="white">
                        <use xlink:href="#path-1" transform="translate(165.000000, 172.000000) scale(-1, 1) translate(-165.000000, -172.000000) "></use>
                    </mask>
                    <use id="Mask" fill="#F1C21B" fill-rule="nonzero" transform="translate(165.000000, 172.000000) scale(-1, 1) translate(-165.000000, -172.000000) " xlink:href="#path-1"></use>
                    <g id="Profile-Interface-rafiki" mask="url(#mask-2)">
                        <g transform="translate(-15.296489, 69.905552)">
                            <g id="freepik--Character--inject-20" transform="translate(38.073750, 31.737147)">
                                <path d="M60.8860628,4.91609388 C63.1554115,-0.287776151 43.0554659,-5.00462888 36.9768533,11.0308666 C31.4655779,25.5782537 22.3161403,29.2940154 26.6206986,39.3680584 C31.2764655,50.2718346 57.61712,51.5795662 69.053917,39.4943221 C78.3294295,29.6908443 68.261446,25.5602161 69.5582167,16.3429627 C70.8549874,7.1257094 68.1353711,4.12243606 60.8860628,4.91609388 Z" id="Path" fill="#263238" fill-rule="nonzero"></path>
                                <path d="M24.2703017,36.1393141 C23.2256809,30.4574456 25.3329333,28.1125475 27.9985174,25.1453495 C31.6007142,21.4846992 34.0683494,16.8583928 35.1037401,11.8245245 C36.2038943,6.19166159 40.7207375,1.85939551 46.3874461,1.00191781 C52.3309784,-0.0983805345 58.6257194,1.84968866 60.2917096,4.32085051 C60.8354132,5.03428158 60.8714866,6.01333383 60.3817631,6.76495585 L59.6253135,6.27793855 C59.9246436,5.82998398 59.8915817,5.23765799 59.5442653,4.82590549 C58.0673876,2.62530881 52.0698232,0.866635225 46.5585478,1.89478286 C42.623209,2.62530881 37.5531959,4.97020691 35.9862646,12.0229389 C34.9192481,17.2074427 32.3764547,21.9717489 28.6649135,25.7405928 C26.0713721,28.6266213 24.1622375,30.7189919 25.1618316,35.9679561 L24.2703017,36.1393141 Z" id="Path" fill="#263238" fill-rule="nonzero"></path>
                                <path d="M11.8879428,31.8192902 L11.329611,30.0155225 C10.9441773,28.7897686 10.2457201,27.686108 9.30340676,26.8138347 L7.50233637,25.172406 C6.32723532,24.0840013 4.54435895,23.9892271 3.2608156,24.946935 L1.33367028,26.3899492 C0.622211301,26.9224756 0.153236736,27.7180902 0.0314165025,28.5992207 C-0.0904037304,29.4803511 0.145070853,30.3736509 0.685284939,31.0797455 L1.92802351,32.7031365 C1.92802351,32.7031365 4.84575754,37.6454602 9.06926761,39.3590395 L10.0418456,38.5293064 L10.0418456,38.5293064 C11.9438962,36.8650094 12.6704014,34.2243783 11.8879428,31.8192902 L11.8879428,31.8192902 Z" id="Path" fill="#FFC3BD" fill-rule="nonzero"></path>
                                <path d="M46.8917458,63.1326988 L46.3154033,63.5746219 L45.847125,63.9173378 L44.9465898,64.5486565 C44.3432312,64.9454854 43.7308673,65.3152578 43.1455194,65.6760114 C41.9201822,66.3812992 40.6575817,67.0195663 39.3632716,67.5880052 C36.7016276,68.763727 33.9030771,69.6000045 31.033321,70.0772047 C28.0031747,70.5871935 24.9108219,70.6054648 21.8748781,70.1313178 C20.3212705,69.8866221 18.7951602,69.4909306 17.31817,68.9498499 C16.9489506,68.832605 16.5797311,68.6792847 16.2195171,68.5259645 L15.679196,68.3004935 L15.4090354,68.1832486 L15.1118588,68.0569848 L14.733634,67.8766081 C13.9476682,67.4733321 13.2229821,66.9601297 12.5813549,66.3524243 C12.1201124,65.9225369 11.6953949,65.4549497 11.3116003,64.9545043 C10.2927378,63.5708172 9.46854475,62.0534875 8.86214452,60.4450848 C8.3218234,59.1102967 7.90757721,57.8296216 7.53835778,56.576003 C6.86658923,54.1501486 6.32251679,51.6906298 5.90838908,49.2076116 C5.08578567,44.4090062 4.62521018,39.5551691 4.53057023,34.687281 C4.29927804,32.7958576 5.57671422,31.0504696 7.44734074,30.7020358 C9.31796725,30.3536021 11.1365763,31.5223028 11.5997715,33.3705305 L11.5997715,33.4697378 C13.1667028,37.7897616 14.6705965,42.2180115 16.2555385,46.4207904 C17.0750255,48.513161 17.8674965,50.5965128 18.7680317,52.4904689 C19.2002886,53.437447 19.6685669,54.3393309 20.1098291,55.1239699 C20.4102692,55.6988666 20.7958628,56.2249106 21.2535088,56.684229 C21.2535088,56.684229 21.2535088,56.684229 21.1904714,56.5579653 C20.9830657,56.3423519 20.7391526,56.16525 20.4700432,56.0348726 L20.2989415,55.9446842 C20.2449094,55.9446842 20.1368452,55.8815524 20.1998826,55.89959 L20.3439683,55.89959 L20.6231342,55.9717407 C20.80899,56.0295746 20.9985337,56.0747717 21.1904714,56.1070233 C21.9506912,56.2589181 22.7213935,56.3523851 23.4958415,56.3866073 C25.1171779,56.436304 26.737787,56.2664161 28.3137048,55.8815524 C30.0430883,55.444736 31.7259931,54.840641 33.3386911,54.0777846 C34.1761889,53.6989934 35.0046813,53.2570702 35.8151629,52.8151471 C36.2204038,52.5896762 36.6166393,52.3461675 36.994864,52.1116777 L37.8953992,51.534472 L38.5978167,51.0925489 C41.8862705,48.9988627 46.2390878,49.8832544 48.4528499,53.0948635 C50.666612,56.3064726 49.9492536,60.6962124 46.8287084,63.0334916 L46.8917458,63.1326988 Z" id="Path" fill="#FFC3BD" fill-rule="nonzero"></path>
                                <path d="M80.0224357,173.541324 C80.6798264,127.328794 76.4202949,102.139177 76.4202949,102.139177 L42.2810056,103.843737 C42.2810056,103.843737 47.3330081,146.124054 56.3023386,177.266105 C58.6977623,193.978013 64.0919681,222.243054 67.8291891,241.22771 C73.3744319,240.752391 78.8569441,239.71287 84.1919137,238.125229 C85.4976897,221.449396 85.7318288,197.34204 80.0224357,173.541324 Z" id="Path" fill="#407BFF" fill-rule="nonzero"></path>
                                <path d="M80.7608746,260.059046 C80.7608746,260.059046 82.0936667,251.32881 82.9942018,238.125229 C78.4638799,239.705137 73.7638798,240.746437 68.9908796,241.22771 C70.9360356,252.753786 72.3228598,260.095121 72.3228598,260.095121 C75.0520752,261.078259 78.0401398,261.065484 80.7608746,260.059046 L80.7608746,260.059046 Z" id="Path" fill="#FFC3BD" fill-rule="nonzero"></path>
                                <path d="M65.9650813,235.699162 C66.2622579,237.286477 67.0907503,241.263785 67.9102373,242.661705 C68.0062533,242.825349 68.1725157,242.935246 68.3605049,242.959327 C74.7272887,243.762004 81.0850672,242.481329 83.6696032,241.326917 C83.8156799,241.268044 83.930143,241.150135 83.9847906,241.002239 C84.7052187,239.090245 84.9663739,235.067843 85.0474221,233.372301 C85.0565469,233.186385 84.9796049,233.006632 84.8388608,232.885059 C84.6981167,232.763485 84.5092798,232.71366 84.3269939,232.750002 C78.4263542,233.845145 72.4665407,234.59199 66.4783864,234.986674 C66.3126397,235.005959 66.1626216,235.094134 66.0649883,235.229653 C65.9673549,235.365173 65.9310997,235.535552 65.9650813,235.699162 L65.9650813,235.699162 Z" id="Path" fill="#263238" fill-rule="nonzero"></path>
                                <path d="M42.7312732,49.5052333 C37.6702654,50.4071172 29.9526788,54.6910656 29.9526788,54.6910656 C29.9526788,54.6910656 25.8912651,64.4314116 30.7541551,71.4480683 C35.5450024,72.584442 37.9584367,71.6555016 37.9584367,71.6555016 L42.7312732,49.5052333 Z" id="Path" fill="#263238" fill-rule="nonzero"></path>
                                <path d="M30.7541551,71.4480683 C35.5450024,72.584442 37.9584367,71.6555016 37.9584367,71.6555016 L37.787335,58.5150533 C34.536403,62.898209 31.825792,67.2452893 30.7541551,71.4480683 Z" id="Path" fill="#000000" fill-rule="nonzero" opacity="0.2"></path>
                                <path d="M79.8423287,146.277374 C76.0240594,136.924838 71.9176189,129.22275 70.3416823,122.188056 C67.6400768,141.317013 69.7653398,158.912768 80.0404464,171.521104 C80.157516,162.213663 80.0584571,153.790067 79.8423287,146.277374 Z" id="Path" fill="#000000" fill-rule="nonzero" opacity="0.2"></path>
                                <path d="M132.028343,219.618572 L118.403246,229.322843 C107.281636,214.811531 90.6037243,192.643225 86.5693266,182.993067 C76.321236,158.50692 55.7169908,104.529169 55.7169908,104.529169 L82.4628861,98.3061704 C82.4628861,98.3061704 99.3389157,113.99895 110.226386,173.216646 C119.339802,186.185736 127.012362,205.269599 132.028343,219.618572 Z" id="Path" fill="#407BFF" fill-rule="nonzero"></path>
                                <path d="M131.244878,265.61465 C134.639895,258.967766 134.684922,251.644469 131.019744,245.872412 C129.443807,243.40125 137.449565,238.522058 137.449565,238.522058 C140.277246,247.369539 142.582616,247.883613 144.545782,249.254477 C146.508949,250.62534 146.707067,253.5745 145.050082,254.575592 C143.241857,255.639981 141.701476,257.105534 140.547406,258.85954 C138.494186,261.565192 137.341501,265.280953 134.396751,267.598795 C132.514632,269.068866 129.749989,268.527735 131.244878,265.61465 Z" id="Path" fill="#407BFF" fill-rule="nonzero"></path>
                                <path d="M138.935448,242.580536 C138.935448,242.580536 136.585051,234.301242 131.974311,221.900338 C128.4922,225.203427 124.639161,228.090725 120.492487,230.504311 C127.003357,240.208581 131.767188,247.180144 131.767188,247.180144 C134.535267,246.340149 137.016594,244.747973 138.935448,242.580536 L138.935448,242.580536 Z" id="Path" fill="#FFC3BD" fill-rule="nonzero"></path>
                                <path d="M115.458496,226.716398 C116.359031,228.033149 118.772465,231.325025 120.096252,232.253965 C120.253224,232.364923 120.452154,232.398128 120.636573,232.344154 C126.760212,230.450198 132.028343,226.653266 133.955489,224.515802 C134.064891,224.399829 134.117617,224.241415 134.099574,224.082897 C133.973499,222.053659 132.550654,218.274765 131.929284,216.696468 C131.860488,216.52696 131.718705,216.397801 131.543709,216.345224 C131.368712,216.292646 131.179352,216.322313 131.028749,216.425903 C126.114488,219.859657 121.002609,223.000642 115.719651,225.832552 C115.557489,225.904226 115.435,226.043687 115.384704,226.213908 C115.334408,226.384129 115.361393,226.567888 115.458496,226.716398 L115.458496,226.716398 Z" id="Path" fill="#263238" fill-rule="nonzero"></path>
                                <path d="M35.0046813,62.9613409 C36.2294091,70.9430133 31.4835886,77.1299367 38.7869291,80.809623 C37.5712066,86.8793016 39.372277,99.000621 42.2629949,103.807662 C46.3244087,106.017278 66.1902151,102.752458 82.4268647,98.2971516 C82.1927255,91.3526457 76.4923377,77.6891048 78.0772797,54.9435931 C78.249853,52.4272751 77.3484288,49.955762 75.5970276,48.1432703 C73.8456264,46.3307786 71.4086822,45.3474781 68.8918207,45.4377369 C67.4869858,45.4377369 65.9920973,45.5730195 64.4791982,45.7083021 C59.1601964,46.0502491 53.8725114,46.7736099 48.6567948,47.8728234 C46.972794,48.2696524 45.2347611,48.7205943 43.5867817,49.1895739 C37.6576393,50.9426651 33.9720758,56.856919 35.0046813,62.9613409 Z" id="Path" fill="#263238" fill-rule="nonzero"></path>
                                <path d="M46.4774997,56.8916623 C46.4774997,56.8916623 51.5655235,55.0337815 54.2311077,59.597314 C58.6707462,57.0990956 64.9114551,46.5380353 64.4701929,45.7353586 C57.0407775,47.7826351 46.4774997,56.8916623 46.4774997,56.8916623 Z" id="Path" fill="#FFFFFF" fill-rule="nonzero"></path>
                                <path d="M46.4774997,56.8916623 C46.4774997,56.8916623 42.6142037,56.4317015 41.5245561,59.8588603 C41.5245561,53.0947311 46.0812642,48.8378392 48.0714469,48.0441814 C47.3780348,49.8118738 46.4774997,56.8916623 46.4774997,56.8916623 Z" id="Path" fill="#FFFFFF" fill-rule="nonzero"></path>
                                <path d="M62.5250368,27.8329635 C61.9576997,33.1089842 61.8676462,41.5866927 64.4791982,45.7443775 C64.4791982,45.7443775 54.5733111,52.5355631 46.4684943,56.8916623 C43.9199797,50.9843229 48.0624416,48.0441814 48.0624416,48.0441814 C51.9257376,46.5650918 51.8897162,41.6137493 51.3674058,37.8258369 L62.5250368,27.8329635 Z" id="Path" fill="#FFC3BD" fill-rule="nonzero"></path>
                                <path d="M51.3854165,37.8258369 L57.6891628,32.1439684 C57.9008519,33.2043717 57.8325627,34.3017444 57.4910451,35.3276186 C56.399213,38.2835353 54.3008211,40.7587469 51.5655235,42.3172187 C51.6647644,40.817932 51.6043887,39.3123249 51.3854165,37.8258369 L51.3854165,37.8258369 Z" id="Path" fill="#000000" fill-rule="nonzero" opacity="0.2"></path>
                                <path d="M64.5602464,18.0294856 C63.6597112,26.5973825 63.5246309,30.2319746 59.1120085,34.4708289 C52.4660587,40.847148 42.3530485,37.9250442 40.6870583,29.2849965 C39.1831646,21.5017386 40.831144,8.80321343 49.1881106,5.7097517 C57.5450772,2.61628997 65.3887388,9.47060751 64.5602464,18.0294856 Z" id="Path" fill="#FFC3BD" fill-rule="nonzero"></path>
                                <path d="M62.6871332,24.2975786 C59.9402345,21.664005 59.804087,17.3127895 62.3809512,14.5121384 C64.6322892,12.2303722 67.7841624,16.9562438 67.7841624,16.9562438 L62.6871332,24.2975786 Z" id="Path" fill="#263238" fill-rule="nonzero"></path>
                                <path d="M52.2499303,20.4014402 C52.2499303,21.1049097 51.8266787,21.6550588 51.3493951,21.6370212 C50.8721114,21.6189835 50.5479187,21.0327589 50.5749348,20.3383084 C50.6019508,19.6438578 50.9981863,19.0846898 51.47547,19.1027274 C51.9527536,19.1207651 52.2769463,19.6709143 52.2499303,20.4014402 Z" id="Path" fill="#263238" fill-rule="nonzero"></path>
                                <path d="M43.6588245,20.1940069 C43.6588245,20.8884575 43.2445783,21.4386067 42.7582893,21.420569 C42.2720003,21.4025313 41.956813,20.8253257 41.983829,20.1218562 C42.0108451,19.4183868 42.3980752,18.8772565 42.8843642,18.8952941 C43.3706532,18.9133318 43.6858405,19.4905375 43.6588245,20.1940069 Z" id="Path" fill="#263238" fill-rule="nonzero"></path>
                                <path d="M43.082482,18.9403883 L41.4254972,18.3902392 C41.4254972,18.3902392 42.2359789,19.7340462 43.082482,18.9403883 Z" id="Path" fill="#263238" fill-rule="nonzero"></path>
                                <path d="M45.7750822,20.4645721 C45.0792271,22.0370897 44.1701254,23.5059704 43.0734766,24.8296901 C43.7739024,25.3702751 44.6763691,25.5747887 45.540943,25.3888581 L45.7750822,20.4645721 Z" id="Path" fill="#ED847E" fill-rule="nonzero"></path>
                                <path d="M49.4942926,28.1305851 C49.1036458,28.1858739 48.7086491,28.2039924 48.3145915,28.1846982 C48.2037319,28.1798665 48.1163688,28.0883955 48.1164736,27.9772649 C48.1188108,27.922232 48.1429078,27.8703897 48.1834515,27.833169 C48.2239952,27.7959483 48.277656,27.7764058 48.3326022,27.7788504 C50.091009,27.8839778 51.7950256,27.147811 52.9253317,25.7947059 C52.9546567,25.7498041 53.0008891,25.7187103 53.0534864,25.708515 C53.1060836,25.6983196 53.1605616,25.7098918 53.2044976,25.7405928 C53.249919,25.7716542 53.2811397,25.8195329 53.2912756,25.8736721 C53.3014116,25.9278113 53.2896304,25.983765 53.2585297,26.0291957 C52.3248046,27.1937441 50.9743571,27.9476329 49.4942926,28.1305851 Z" id="Path" fill="#263238" fill-rule="nonzero"></path>
                                <path d="M65.983092,25.2084813 C65.3071323,26.6416615 64.0468074,27.7132273 62.5250368,28.1486228 C60.6068969,28.6266213 59.715367,26.516213 60.3097203,24.4058047 C60.841036,22.5028297 62.4890154,19.968536 64.3801393,20.4284967 C66.2712633,20.8884575 66.9106432,23.3596194 65.983092,25.2084813 Z" id="Path" fill="#FFC3BD" fill-rule="nonzero"></path>
                                <path d="M60.1296132,5.84503428 C54.0673966,9.63273802 47.260603,12.0660581 40.1737533,12.9789358 C40.1737533,6.81906888 52.2049035,-0.0983805345 60.1296132,5.84503428 Z" id="Path" fill="#263238" fill-rule="nonzero"></path>
                                <path d="M55.4828516,6.59359791 C54.0870221,12.0049012 68.0903444,21.925624 65.3887388,31.4675555 C69.9634576,24.333654 66.6674987,8.28012078 66.6674987,8.28012078 C66.6674987,8.28012078 54.8704877,0.803503353 55.4828516,6.59359791 Z" id="Path" fill="#263238" fill-rule="nonzero"></path>
                                <path d="M54.0419953,15.8018324 C53.9314973,15.7863595 53.8330331,15.7239054 53.7718347,15.6304745 C53.207967,14.7486593 52.2578818,14.1891458 51.2143148,14.1243284 C51.1061422,14.1292578 51.0006679,14.0896356 50.9224169,14.0146748 C50.844166,13.939714 50.7999567,13.8359461 50.8000686,13.7274995 C50.7951498,13.616772 50.8356632,13.5088473 50.9122003,13.4287888 C50.9887373,13.3487304 51.0946383,13.3035045 51.2053094,13.3036138 C52.5247611,13.3610031 53.7339573,14.0573322 54.4472361,15.1705137 C54.5089821,15.2599486 54.5323126,15.370457 54.511998,15.4772684 C54.4916834,15.5840799 54.4294228,15.6782607 54.3391719,15.7387005 C54.252422,15.7984496 54.145495,15.821165 54.0419953,15.8018324 L54.0419953,15.8018324 Z" id="Path" fill="#263238" fill-rule="nonzero"></path>
                                <path d="M39.858566,15.5042107 C39.7534416,15.4968576 39.6544157,15.4520692 39.5794001,15.377947 C39.502405,15.3017075 39.4590758,15.1977806 39.4590758,15.0893441 C39.4590758,14.9809077 39.502405,14.8769807 39.5794001,14.8007413 C40.4909426,13.8416923 41.8100404,13.384527 43.1185034,13.5741792 C43.3383304,13.6236597 43.4783589,13.8400272 43.4336907,14.0611965 C43.412122,14.1682576 43.3483773,14.2620937 43.2568633,14.3214972 C43.1653493,14.3809007 43.0537911,14.400857 42.9474017,14.3768559 C41.9105543,14.2443736 40.8729675,14.616453 40.1557426,15.377947 C40.0772291,15.4577005 39.9703905,15.5030938 39.858566,15.5042107 L39.858566,15.5042107 Z" id="Path" fill="#263238" fill-rule="nonzero"></path>
                                <path d="M51.6735877,19.1478216 L50.016603,18.6066913 C50.016603,18.6066913 50.8180793,19.9504983 51.6735877,19.1478216 Z" id="Path" fill="#263238" fill-rule="nonzero"></path>
                                <path d="M77.8611512,59.3538053 C77.6993454,64.1691303 77.8587946,68.9899023 78.3384349,73.7839475 C73.8357589,69.0220006 68.1803979,60.0302182 67.8111784,55.5207988 L77.8611512,59.3538053 Z" id="Path" fill="#000000" fill-rule="nonzero" opacity="0.2"></path>
                                <path d="M107.263625,42.4164259 L108.245209,36.6894632 L117.133491,40.1256408 C117.133491,40.1256408 115.071266,45.4557746 111.280012,47.8096916 L110.226386,47.1422975 C108.55145,46.1215114 107.453878,44.3707855 107.263625,42.4164259 L107.263625,42.4164259 Z" id="Path" fill="#FFC3BD" fill-rule="nonzero"></path>
                                <path d="M113.792506,33.4967943 L116.719245,35.0931288 C118.05013,35.8165526 118.548802,37.4799379 117.835909,38.8179092 L117.142496,40.1256408 L108.254214,36.6894632 L110.370472,34.1551695 C111.21211,33.15278 112.639911,32.8780811 113.792506,33.4967943 L113.792506,33.4967943 Z" id="Path" fill="#FFC3BD" fill-rule="nonzero"></path>
                                <path d="M76.2762093,48.9550841 L77.4108836,50.1275332 L78.6446169,51.3811518 C79.4821146,52.2018661 80.3196123,53.0406181 81.1841261,53.8342759 C82.895143,55.4486481 84.660192,56.9457753 86.4342463,58.3436954 C88.1076393,59.6577917 89.8844935,60.8340815 91.747404,61.8610425 C93.1718784,62.6633104 94.7216804,63.2182935 96.3311281,63.5024712 L93.9086884,63.9534132 C93.3143352,64.242016 93.3503566,64.3682797 93.4764315,64.2690725 C93.7196225,64.1059467 93.94323,63.9152931 94.1428276,63.7008857 C94.8017544,63.0142431 95.4040796,62.2752897 95.943898,61.4912701 C97.1686258,59.7506342 98.4113644,57.7755085 99.5460387,55.7282321 C100.680713,53.6809557 101.88743,51.5795662 103.049121,49.4150449 L106.516181,42.9936316 L106.516181,42.9395186 C107.355875,41.3589756 109.215675,40.6209269 110.908443,41.1964792 C112.601212,41.7720315 113.627932,43.4915153 113.333233,45.2573602 C112.918986,47.8547858 112.351649,50.3079099 111.721275,52.8061283 C111.0909,55.3043467 110.415499,57.7755085 109.514963,60.2556892 C108.632519,62.8130051 107.58571,65.3104323 106.381101,67.7323066 C105.682382,69.0957632 104.891054,70.4095879 104.012693,71.6645204 C103.458323,72.4386585 102.837604,73.1629088 102.157591,73.8290417 C101.150413,74.8347256 99.9616474,75.6396448 98.6545089,76.2009963 C98.0129141,76.4747539 97.3254645,76.6246894 96.6283047,76.6429194 L96.2320692,76.6429194 C92.6737189,76.6637188 89.1520212,75.922655 85.9029305,74.4693793 C84.4687905,73.8553648 83.0680106,73.1659678 81.7064365,72.4040652 C80.4036623,71.6344576 79.1459148,70.8377935 77.933194,70.0140729 C75.5765986,68.3613966 73.332319,66.5536427 71.2152015,64.6027696 C70.179586,63.6467726 69.1529759,62.6817569 68.1713925,61.6626281 C67.6851035,61.1575731 67.1898092,60.6525181 66.7125255,60.1204066 C66.2352419,59.5882951 65.8119903,59.1012778 65.2266424,58.4248649 C63.4828645,56.4915924 62.9013936,53.7734873 63.701264,51.2944334 C64.5011344,48.8153796 66.5608268,46.9520042 69.1044751,46.4062228 C71.6481234,45.8604414 74.2892869,46.7151711 76.0330648,48.6484436 L76.2762093,48.9550841 Z" id="Path" fill="#FFC3BD" fill-rule="nonzero"></path>
                                <path d="M69.2880562,45.4828311 C75.8889792,45.6812456 82.4538807,53.5997861 82.4538807,53.5997861 C82.4538807,53.5997861 79.9143715,64.1067334 72.6830739,68.6341905 C68.6126548,65.4595592 65.163605,62.9162467 65.163605,62.9162467 C59.4091851,54.4655947 61.327325,48.8558769 69.2880562,45.4828311 Z" id="Path" fill="#263238" fill-rule="nonzero"></path>
                                <path d="M40.9482135,103.221438 C41.4345026,106.044334 42.0198504,108.262969 42.2089628,108.939381 C42.2458346,109.084445 42.3401365,109.208198 42.470118,109.282097 C43.4336907,109.814209 47.8283024,111.987749 55.8970978,111.509751 C64.9024498,111.022733 78.1133011,106.098447 84.9663739,100.858502 C85.171662,100.699382 85.2453994,100.422452 85.146481,100.182089 C84.6171503,99.0068371 84.000033,97.8732585 83.3003838,96.7910055 C83.1598954,96.5777402 82.896127,96.4823479 82.6519985,96.5565157 C79.698243,97.4583996 61.1021912,102.788533 41.5155507,102.554044 C41.3473016,102.554607 41.1876988,102.628772 41.0786314,102.757075 C40.9695641,102.885378 40.9219235,103.055005 40.9482135,103.221438 L40.9482135,103.221438 Z" id="Path" fill="#407BFF" fill-rule="nonzero"></path>
                                <path d="M40.9482135,103.221438 C41.4345026,106.044334 42.0198504,108.262969 42.2089628,108.939381 C42.2458346,109.084445 42.3401365,109.208198 42.470118,109.282097 C43.4336907,109.814209 47.8283024,111.987749 55.8970978,111.509751 C64.9024498,111.022733 78.1133011,106.098447 84.9663739,100.858502 C85.171662,100.699382 85.2453994,100.422452 85.146481,100.182089 C84.6171503,99.0068371 84.000033,97.8732585 83.3003838,96.7910055 C83.1598954,96.5777402 82.896127,96.4823479 82.6519985,96.5565157 C79.698243,97.4583996 61.1021912,102.788533 41.5155507,102.554044 C41.3473016,102.554607 41.1876988,102.628772 41.0786314,102.757075 C40.9695641,102.885378 40.9219235,103.055005 40.9482135,103.221438 L40.9482135,103.221438 Z" id="Path" fill="#FFFFFF" fill-rule="nonzero" opacity="0.3"></path>
                            </g>
                            <g id="freepik--Device--inject-20" transform="translate(124.892518, 0.000000)">
                                <path d="M134.605704,280.857021 L16.0412401,280.857021 C11.6079099,280.897337 7.35896138,279.082041 4.32033048,275.848767 C1.28169959,272.615494 -0.270424088,268.258124 0.0387296875,263.828773 L14.4472928,17.0282474 C15.1287595,7.53139452 22.9518414,0.135345078 32.4579967,0 L151.049477,0 C155.482807,-0.0403165101 159.731755,1.77497964 162.770386,5.00825318 C165.809017,8.24152673 167.361141,12.5988964 167.051987,17.0282474 L152.598397,263.828773 C151.917556,273.318824 144.104904,280.712407 134.605704,280.857021 L134.605704,280.857021 Z" id="Path" fill="#407BFF" fill-rule="nonzero"></path>
                                <path d="M134.605704,280.857021 L16.0412401,280.857021 C11.6079099,280.897337 7.35896138,279.082041 4.32033048,275.848767 C1.28169959,272.615494 -0.270424088,268.258124 0.0387296875,263.828773 L14.4472928,17.0282474 C15.1287595,7.53139452 22.9518414,0.135345078 32.4579967,0 L151.049477,0 C155.482807,-0.0403165101 159.731755,1.77497964 162.770386,5.00825318 C165.809017,8.24152673 167.361141,12.5988964 167.051987,17.0282474 L152.598397,263.828773 C151.917556,273.318824 144.104904,280.712407 134.605704,280.857021 L134.605704,280.857021 Z" id="Path" fill="#FFFFFF" fill-rule="nonzero" opacity="0.8"></path>
                                <path d="M133.903287,275.914541 L18.6347815,275.914541 C15.5199541,275.944182 12.534123,274.669981 10.3983239,272.399115 C8.26252472,270.12825 7.17091282,267.067153 7.38709689,263.955037 L21.79566,18.227753 C22.2743879,11.5729604 27.7422163,6.38247825 34.4031528,6.25931446 L149.671658,6.25931446 C152.787311,6.23212793 155.773025,7.50838616 157.90852,9.78064116 C160.044016,12.0528962 161.135384,15.114822 160.919342,18.227753 L146.510779,263.955037 C146.031745,270.608236 140.562741,275.795922 133.903287,275.914541 L133.903287,275.914541 Z" id="Path" fill="#407BFF" fill-rule="nonzero"></path>
                                <path d="M132.660548,274.597706 L17.3920429,274.597706 C14.2763902,274.624893 11.2906759,273.348635 9.1551805,271.07638 C7.01968508,268.804125 5.92831627,265.742199 6.14435832,262.629268 L20.5529215,16.9019837 C21.0316493,10.2471911 26.4994777,5.05670894 33.1604142,4.93354515 L148.428919,4.93354515 C151.544572,4.90635862 154.530286,6.18261685 156.665782,8.45487185 C158.801277,10.7271268 159.892646,13.7890527 159.676604,16.9019837 L145.268041,262.629268 C144.789313,269.28406 139.321484,274.474542 132.660548,274.597706 L132.660548,274.597706 Z" id="Path" fill="#FFFFFF" fill-rule="nonzero"></path>
                                <path d="M129.292546,265.461458 L21.79566,265.461458 C19.8701999,265.478369 18.0249789,264.689825 16.7050708,263.28575 C15.3851626,261.881676 14.7103965,259.989541 14.8435283,258.065735 L20.8951248,155.566631 C21.1891913,151.443319 24.5845659,148.230903 28.7117703,148.170908 L136.16363,148.170908 C138.08909,148.153998 139.934311,148.942542 141.254219,150.346616 C142.574127,151.750691 143.248893,153.642826 143.115762,155.566631 L137.109192,258.065735 C136.815125,262.189048 133.419751,265.401464 129.292546,265.461458 Z" id="Path" fill="#407BFF" fill-rule="nonzero" opacity="0.1"></path>
                                <path d="M105.419358,23.1610579 L74.0897388,23.1610579 C73.4014503,23.1677513 72.7416558,22.8862103 72.2696915,22.3844254 C71.7977273,21.8826406 71.556499,21.2062283 71.6042617,20.5185381 L71.6042617,20.5185381 C71.7071791,19.0397315 72.9248817,17.8868674 74.4049262,17.8669995 L105.72554,17.8669995 C106.421722,17.8498512 107.092724,18.1281251 107.572995,18.6331647 C108.053266,19.1382042 108.298081,19.8229784 108.247039,20.5185381 L108.247039,20.5185381 C108.143047,22.0061009 106.908332,23.1599652 105.419358,23.1610579 L105.419358,23.1610579 Z" id="Path" fill="#407BFF" fill-rule="nonzero" opacity="0.1"></path>
                                <ellipse id="Oval" fill="#407BFF" fill-rule="nonzero" opacity="0.1" transform="translate(85.893608, 89.096314) rotate(-44.160000) translate(-85.893608, -89.096314) " cx="85.8936084" cy="89.0963136" rx="48.7273433" ry="45.9536974"></ellipse>
                                <path d="M52.7740708,120.46531 C44.80511,111.968506 40.7352504,100.528377 41.5443969,88.8993744 L42.4449321,88.8993744 C41.6562759,100.278291 45.6374681,111.471737 53.4314615,119.788898 L52.7740708,120.46531 Z" id="Path" fill="#407BFF" fill-rule="nonzero"></path>
                                <path d="M130.238108,89.2871845 L129.337573,89.2330715 C129.583532,85.2601378 129.280491,81.2722187 128.437038,77.3823172 L129.337573,77.1839027 C130.198816,81.1566827 130.501921,85.2304447 130.238108,89.2871845 Z" id="Path" fill="#407BFF" fill-rule="nonzero"></path>
                                <path d="M125.825486,69.5359274 C121.373593,59.6442757 113.152217,51.9497562 102.996919,48.1702981 L103.312106,47.3225272 C113.700181,51.1798694 122.106689,59.0530746 126.644973,69.1751738 L125.825486,69.5359274 Z" id="Path" fill="#407BFF" fill-rule="nonzero"></path>
                                <ellipse id="Oval" fill="#407BFF" fill-rule="nonzero" transform="translate(85.893608, 89.096314) rotate(-44.160000) translate(-85.893608, -89.096314) " cx="85.8936084" cy="89.0963136" rx="42.4640728" ry="40.0416312"></ellipse>
                                <path d="M81.3120311,94.6984878 L81.3120311,94.6984878 C83.2932086,94.2565647 84.2207598,92.561023 84.6440113,90.6309915 C84.6890381,90.4235582 84.7250595,90.2251437 84.7610809,90.0267293 L84.7610809,89.8463525 C84.8689976,89.0419449 84.9291391,88.2318308 84.941188,87.4202849 C80.970612,87.0266859 77.9259405,83.7136533 77.8629813,79.7181965 C77.7636149,75.8910001 78.6112895,72.0986363 80.3304478,68.6791377 C79.8878193,68.7371498 79.4683909,68.9113954 79.1147252,69.1841926 C79.045499,69.2370169 78.9566307,69.256795 78.8715807,69.2383057 C78.7934475,69.2248022 78.7229644,69.1830907 78.673463,69.1210608 C78.5739879,68.980355 78.6016657,68.7863205 78.7365005,68.6791377 C79.2964268,68.255271 79.9797758,68.0271469 80.6816565,68.0297813 C80.8167368,67.8133291 80.9428117,67.5878582 81.077892,67.3804249 C80.5015494,67.3804249 79.9432176,67.3804249 79.4028965,67.3804249 C79.9972497,63.2137213 88.0030076,59.7144118 93.4602509,62.8710054 C95.8916959,63.3580227 99.9080829,66.8392945 99.9080829,66.8392945 C99.9886215,69.0566871 99.9254514,71.2769768 99.7189705,73.4861788 L99.7189705,73.4861788 C99.3587564,77.2560534 98.4672266,81.6843033 96.2969368,84.1554652 C96.8368344,82.8913474 97.0355847,81.5073419 96.8732793,80.1420819 C96.353,80.6572397 95.7072784,81.0272202 95.0001661,81.2153237 C94.743506,81.768032 94.4423323,82.2988914 94.0996309,82.8026393 C93.2531278,86.6717212 92.6497692,91.8214782 93.9375346,94.7886762 C95.099225,94.8608269 96.224894,94.969053 97.2965308,95.0862979 L97.5576861,95.1313921 C98.2647928,94.7153928 98.9445859,94.2544897 99.5928956,93.7515097 C107.697712,87.4383225 99.0976012,80.024837 101.123805,73.2336513 C103.15001,66.4424656 101.438993,63.8630777 95.9007013,63.6466256 C98.197066,59.9759582 83.6083959,54.1137129 77.1965853,65.5045064 C71.3881333,75.8310769 69.5150201,80.9898527 71.6042617,89.0617135 C72.3895414,91.6998788 74.1690943,93.9284601 76.5662106,95.2756935 C76.974373,95.1638682 77.3895454,95.0795042 77.8089492,95.023166 C78.9526289,94.91494 80.1413354,94.7886762 81.3120311,94.6984878 Z" id="Path" fill="#263238" fill-rule="nonzero"></path>
                                <path d="M68.7135437,110.571644 C68.3830297,109.986065 68.0824632,109.384031 67.8130085,108.767876 C67.2006446,110.571644 66.597286,112.375412 66.0119381,114.17918 C65.4536063,115.802571 64.9222906,117.425962 64.3639587,118.977202 L63.526461,121.16878 L63.1662469,122.070664 C63.040172,122.314172 63.1662469,122.169871 63.1662469,122.242022 C62.7823178,122.68983 62.3571951,123.100491 61.8964923,123.468584 C61.7974334,123.567791 61.6713585,123.657979 61.5632943,123.748168 C64.0550455,125.431384 66.7361009,126.814785 69.5510415,127.869777 C69.6140789,123.748168 70.1183786,119.464219 70.6586998,118.318827 C67.416773,116.064117 67.9030621,113.638049 68.7135437,110.571644 Z" id="Path" fill="#FFC3BD" fill-rule="nonzero"></path>
                                <path d="M71.8654169,98.4052306 L71.6402831,98.72089 C71.7123259,98.6126639 71.7933741,98.5134567 71.8744223,98.4142494 L71.8654169,98.4052306 Z" id="Path" fill="#263238" fill-rule="nonzero"></path>
                                <path d="M69.7851806,104.447853 C69.771997,102.462544 70.3728436,100.521832 71.5052028,98.8922479 C69.7786716,101.612455 68.3591323,104.516282 67.2726874,107.550333 C67.2726874,107.550333 67.4347838,108.028332 67.7769871,108.776895 C68.0464418,109.39305 68.3470083,109.995084 68.6775223,110.580663 C69.3196703,108.595387 69.6922307,106.532618 69.7851806,104.447853 L69.7851806,104.447853 Z" id="Path" fill="#263238" fill-rule="nonzero"></path>
                                <path d="M101.177838,117.534188 C100.110342,115.963161 99.1621151,114.314092 98.3411517,112.600883 C98.0709911,112.745184 97.7918252,112.889486 97.5036539,113.01575 C94.8020484,110.156778 92.4966783,107.847955 92.4966783,107.847955 C89.1286766,100.813261 91.2089129,96.8088961 97.5937075,95.1764863 C98.5844919,95.3807184 99.5302518,95.7626443 100.385367,96.3038411 C99.543393,95.7108587 98.5753969,95.3218454 97.5576861,95.1674674 L97.2965308,95.1223733 C96.224894,95.0051283 95.099225,94.8969023 93.9375346,94.8247516 C94.1896844,95.4831268 88.4082485,103.84359 84.7790916,105.16936 C83.2932086,101.417523 79.1237306,101.164995 79.1237306,101.164995 C79.1237306,101.164995 75.2334185,100.362319 74.0267014,102.815443 C74.8191724,97.7468554 79.6910678,95.0772791 81.3120311,94.6984878 C80.1413354,94.7976951 78.9526289,94.9239588 77.8089492,95.0682602 C77.3895454,95.1245984 76.974373,95.2089624 76.5662106,95.3207877 C74.7130684,95.8298912 73.0698227,96.9164999 71.8744223,98.4232683 C71.7933741,98.5224755 71.7123259,98.6216827 71.6402831,98.7299088 L71.5052028,98.9012667 C70.3728436,100.530851 69.771997,102.471562 69.7851806,104.456871 C69.7030968,106.536954 69.3426681,108.596598 68.7135437,110.580663 C67.9030621,113.610993 67.416773,116.073136 70.5956623,118.327846 C70.0553412,119.473238 69.5510415,123.739149 69.488004,127.878796 C73.9633509,129.54047 78.7003295,130.383589 83.4733156,130.368208 C89.5848686,130.358764 95.6229376,129.033075 101.177838,126.480876 C101.023113,123.123861 101.050169,119.760915 101.258886,116.406833 L101.258886,116.406833 C101.23187,116.767587 101.195848,117.164415 101.177838,117.534188 Z" id="Path" fill="#263238" fill-rule="nonzero"></path>
                                <path d="M79.1237306,101.164995 C79.1237306,101.164995 83.2932086,101.417523 84.7790916,105.16936 C88.3812324,103.798496 94.1896844,95.4831268 93.9375346,94.8247516 C93.9375346,94.8247516 85.7336589,98.8110784 79.1237306,101.164995 Z" id="Path" fill="#FFFFFF" fill-rule="nonzero"></path>
                                <path d="M81.3300418,94.6984878 L81.3300418,94.6984878 C79.7090785,95.0862979 74.8371831,97.7558742 74.0447121,102.815443 C75.2514293,100.362319 79.1417413,101.164995 79.1417413,101.164995 C77.880992,96.421086 81.3300418,94.6984878 81.3300418,94.6984878 Z" id="Path" fill="#FFFFFF" fill-rule="nonzero"></path>
                                <path d="M84.7790916,90.0177104 L84.7790916,89.8373337 L84.7790916,90.0177104 Z" id="Path" fill="#FFC3BD" fill-rule="nonzero"></path>
                                <path d="M94.0996309,82.8387147 C93.3168676,83.9758745 92.3269919,84.9549937 91.1818969,85.7247431 C90.7002947,86.0717607 90.1878311,86.3736613 89.650987,86.626627 C88.4712512,88.5228614 86.7121251,89.9873052 84.635006,90.8023494 L84.635006,90.6490292 C84.2117545,92.5790607 83.2842032,94.2565647 81.3030258,94.7165255 C81.3030258,94.7165255 77.853976,96.4481426 79.0967145,101.192052 C85.7156482,98.8381349 93.9105185,94.8788646 93.9105185,94.8788646 C92.6497692,91.8665724 93.2531278,86.7077966 94.0996309,82.8387147 Z" id="Path" fill="#FFC3BD" fill-rule="nonzero"></path>
                                <path d="M84.662022,90.6219727 C84.7070488,90.4145394 84.7430702,90.2161249 84.7790916,90.0177104 C84.7430702,90.1890684 84.7070488,90.4145394 84.662022,90.6219727 Z" id="Path" fill="#263238" fill-rule="nonzero"></path>
                                <path d="M84.662022,90.6219727 C84.7070488,90.4145394 84.7430702,90.2161249 84.7790916,90.0177104 C84.7430702,90.1890684 84.7070488,90.4145394 84.662022,90.6219727 Z" id="Path" fill="#000000" fill-rule="nonzero" opacity="0.2"></path>
                                <path d="M84.9862147,87.411266 C84.9741659,88.222812 84.9140244,89.0329261 84.8061077,89.8373337 C84.9181684,89.0333642 84.978329,88.2229925 84.9862147,87.411266 L84.9862147,87.411266 Z" id="Path" fill="#263238" fill-rule="nonzero"></path>
                                <path d="M84.9862147,87.411266 C84.9741659,88.222812 84.9140244,89.0329261 84.8061077,89.8373337 C84.9181684,89.0333642 84.978329,88.2229925 84.9862147,87.411266 L84.9862147,87.411266 Z" id="Path" fill="#000000" fill-rule="nonzero" opacity="0.2"></path>
                                <path d="M89.650987,86.5815328 C88.2004693,87.2774682 86.5861174,87.5583741 84.9862147,87.3932283 C84.978329,88.2049548 84.9181684,89.0153265 84.8061077,89.819296 L84.8061077,89.9996728 C84.8061077,90.1980872 84.7340649,90.3965017 84.6890381,90.603935 L84.6890381,90.7572552 C86.7461877,89.9323247 88.4852146,88.4688486 89.650987,86.5815328 L89.650987,86.5815328 Z" id="Path" fill="#FFC3BD" fill-rule="nonzero"></path>
                                <path d="M89.650987,86.5815328 C88.2004693,87.2774682 86.5861174,87.5583741 84.9862147,87.3932283 C84.978329,88.2049548 84.9181684,89.0153265 84.8061077,89.819296 L84.8061077,89.9996728 C84.8061077,90.1980872 84.7340649,90.3965017 84.6890381,90.603935 L84.6890381,90.7572552 C86.7461877,89.9323247 88.4852146,88.4688486 89.650987,86.5815328 L89.650987,86.5815328 Z" id="Path" fill="#000000" fill-rule="nonzero" opacity="0.2"></path>
                                <path d="M89.650987,86.5815328 C90.1878311,86.3285671 90.7002947,86.0266665 91.1818969,85.6796489 C92.3269919,84.9098995 93.3168676,83.9307803 94.0996309,82.7936205 C94.4423323,82.2898726 94.743506,81.7590131 95.0001661,81.2063049 C94.8290644,81.2063049 94.6579627,81.2964933 94.4958664,81.3145309 C92.9919726,81.4498135 92.5687211,79.7542718 93.2531278,78.2391069 C93.4847923,77.7267683 93.7880039,77.2500131 94.153663,76.8231492 C93.7606419,75.5355365 93.8568643,74.1478583 94.4238236,72.9270108 C93.0550101,70.1131331 91.6051484,67.5157075 91.4700681,65.6307701 C88.1005321,66.673892 84.6036439,67.2474637 81.077892,67.3353307 C80.9428117,67.542764 80.8167368,67.7682349 80.6816565,67.9846871 C80.9869712,67.9834664 81.2906714,68.0290896 81.5821917,68.1199697 C81.6588896,68.1483206 81.7210807,68.2062136 81.7549113,68.2807524 C81.7887419,68.3552911 81.7914019,68.4402843 81.7622987,68.5167986 C81.7030641,68.6768283 81.5275476,68.760723 81.3660632,68.7061942 C81.0423976,68.6078403 80.7008725,68.583189 80.3664692,68.6340435 C78.6705521,72.0564258 77.8446336,75.8452313 77.9620402,79.6640834 C78.0249993,83.6595403 81.0696709,86.9725729 85.0402468,87.3661718 L85.0402468,87.3661718 C86.6198178,87.529655 88.2139904,87.2583646 89.650987,86.5815328 Z M87.6427935,68.8685333 C88.6384896,69.0645977 89.4738514,69.7392855 89.8761208,70.6723011 C89.9486211,70.8294706 89.8852289,71.015964 89.7320352,71.0961865 C89.657071,71.1272527 89.5728602,71.1272527 89.4978961,71.0961865 C89.4156372,71.0735834 89.3488686,71.0134016 89.317789,70.9338474 C88.9856747,70.1945737 88.3126357,69.6654468 87.5167186,69.5178897 C87.3482297,69.4901885 87.2300741,69.3363561 87.2465581,69.166155 C87.2540326,69.0726537 87.3026413,68.9873248 87.3792068,68.9333001 C87.4557724,68.8792754 87.5523629,68.8621517 87.6427935,68.886571 L87.6427935,68.8685333 Z M87.3276062,73.3238397 L87.3276062,73.3238397 C87.6357191,73.5556273 87.7624247,73.9580669 87.6427935,74.3249308 C87.5437347,74.8480235 87.1835206,75.2268147 86.8413172,75.1456451 C86.4991138,75.0644756 86.3009961,74.6045148 86.400055,74.0814222 C86.4497484,73.8162919 86.5859535,73.5751968 86.7872851,73.3959904 C86.5065945,73.2471934 86.2867612,73.0046956 86.1659158,72.7105586 L87.3276062,73.3238397 Z M79.9432176,72.9450485 C79.9917021,72.6840982 80.1246188,72.4463915 80.3214424,72.2686355 C80.0453383,72.1124739 79.8296663,71.8678913 79.7090785,71.5741849 L80.8887796,72.1784472 L80.8887796,72.1784472 C81.1857913,72.4179657 81.3100769,72.8127189 81.2039669,73.1795383 C81.0959027,73.7026309 80.7446939,74.0814222 80.4024906,74.0092714 C80.0602872,73.9371207 79.8441588,73.4861788 79.9432176,72.9630861 L79.9432176,72.9450485 Z M82.0324593,77.3282042 C81.3565812,77.3682321 80.6975115,77.1075097 80.2313889,76.6157159 C81.1956059,75.7407901 82.0376813,74.7397071 82.7348767,73.6394991 L82.0324593,77.3282042 Z M83.7704922,79.745253 C83.6875553,79.7231188 83.6362232,79.6400735 83.6534226,79.5558574 C83.6714106,79.4740723 83.7515968,79.4218732 83.8335297,79.4386124 C85.1517516,79.7229417 86.5263634,79.3611889 87.5347293,78.4645778 C87.5733369,78.4243013 87.630467,78.407712 87.6845992,78.421059 C87.7387313,78.4344061 87.7816416,78.4756616 87.7971661,78.5292851 C87.8126906,78.5829087 87.7984708,78.6407535 87.7598631,78.68103 C86.9226294,79.4529787 85.8176093,79.8671729 84.6800328,79.8354414 C84.3755396,79.8327512 84.0716113,79.8086416 83.7704922,79.7632906 L83.7704922,79.745253 Z" id="Shape" fill="#FFC3BD" fill-rule="nonzero"></path>
                                <path d="M95.6395461,75.7589262 C95.2613213,74.8570423 94.8290644,73.8920265 94.3878022,72.9901427 C93.8208429,74.2109901 93.7246205,75.5986684 94.1176416,76.886281 C94.5170296,76.3828996 95.0420142,75.9940159 95.6395461,75.7589262 Z" id="Path" fill="#263238" fill-rule="nonzero"></path>
                                <path d="M86.7692744,73.4230469 C86.5679428,73.6022534 86.4317377,73.8433484 86.3820443,74.1084787 C86.2829854,74.6315713 86.4811031,75.1095698 86.8233065,75.1727017 C87.1655099,75.2358335 87.525724,74.87508 87.6247828,74.3519873 C87.744414,73.9851234 87.6177084,73.5826838 87.3095955,73.3508962 C87.1549466,73.4690572 86.9494337,73.4965 86.7692744,73.4230469 Z" id="Path" fill="#263238" fill-rule="nonzero"></path>
                                <path d="M81.230983,73.2065948 C81.337093,72.8397754 81.2128074,72.4450222 80.9157956,72.2055037 C80.7573367,72.3218249 80.5517191,72.3522074 80.3664692,72.2866732 C80.1696456,72.4644292 80.0367289,72.7021359 79.9882444,72.9630861 C79.8891855,73.4861788 80.0873033,73.9641773 80.4295066,74.036328 C80.77171,74.1084787 81.077892,73.7296874 81.230983,73.2065948 Z" id="Path" fill="#263238" fill-rule="nonzero"></path>
                                <path d="M80.8707689,72.2055037 L80.8707689,72.2055037 L79.6910678,71.6012415 C79.8116556,71.8949478 80.0273276,72.1395304 80.3034317,72.2956921 C80.4954578,72.3652267 80.7096811,72.3311721 80.8707689,72.2055037 L80.8707689,72.2055037 Z" id="Path" fill="#263238" fill-rule="nonzero"></path>
                                <path d="M80.2403942,76.6608101 C80.7065169,77.1526039 81.3655865,77.4133263 82.0414646,77.3732983 L82.7528874,73.6845932 C82.0529167,74.7853634 81.2077893,75.7864736 80.2403942,76.6608101 Z" id="Path" fill="#ED847E" fill-rule="nonzero"></path>
                                <path d="M87.7418524,78.4645778 C87.6790474,78.4038731 87.5795236,78.4038731 87.5167186,78.4645778 C86.5125108,79.3555086 85.1460139,79.7168843 83.8335297,79.4386124 C83.7515968,79.4218732 83.6714106,79.4740723 83.6534226,79.5558574 C83.6362232,79.6400735 83.6875553,79.7231188 83.7704922,79.745253 C84.0682145,79.7962276 84.3691217,79.8263634 84.6710274,79.8354414 C85.808604,79.8671729 86.913624,79.4529787 87.7508578,78.68103 C87.8033949,78.6171312 87.7995151,78.5238781 87.7418524,78.4645778 L87.7418524,78.4645778 Z" id="Path" fill="#263238" fill-rule="nonzero"></path>
                                <path d="M95.6395461,75.7589262 C95.0420142,75.9940159 94.5170296,76.3828996 94.1176416,76.886281 C93.7519825,77.3131449 93.4487709,77.7899002 93.2171064,78.3022387 C92.5326997,79.8174037 92.9559512,81.5129454 94.459845,81.3776628 C94.6219413,81.3776628 94.793043,81.3055121 94.9641447,81.2694367 C95.671257,81.0813332 96.3169786,80.7113527 96.8372579,80.1961949 C96.6487518,78.6679805 96.2455269,77.1741177 95.6395461,75.7589262 Z" id="Path" fill="#FFC3BD" fill-rule="nonzero"></path>
                                <path d="M91.6411698,64.3230385 C91.6952019,63.0243257 92.4336408,62.7086663 93.4422402,62.9070808 C87.9849969,59.7144118 79.979239,63.2137213 79.3848858,67.4165002 C79.9252069,67.4165002 80.4835387,67.4165002 81.0598813,67.4165002 C84.5856332,67.3286332 88.0825214,66.7550616 91.4520574,65.7119397 C91.3997922,65.2404383 91.4647579,64.7633099 91.6411698,64.3230385 Z" id="Path" fill="#263238" fill-rule="nonzero"></path>
                                <path d="M91.6411698,64.3230385 C91.4706016,64.752236 91.4057359,65.2162568 91.4520574,65.6758643 C91.5871377,67.5878582 93.0369994,70.1852838 94.4058129,72.972105 C94.8470751,73.8739889 95.3063481,74.7758727 95.6575568,75.7408885 C96.2635376,77.15608 96.6667625,78.6499428 96.8552686,80.1781572 C97.017574,81.5434173 96.8188237,82.9274228 96.2789261,84.1915405 C98.4492159,81.7203787 99.3407457,77.2921288 99.7009598,73.5222541 L99.7009598,73.5222541 C99.9074407,71.3130521 99.9706108,69.0927625 99.8900722,66.8753699 C99.8900722,66.8753699 95.8736852,63.3940981 93.4422402,62.9070808 C92.4336408,62.7086663 91.6952019,63.0243257 91.6411698,64.3230385 Z" id="Path" fill="#263238" fill-rule="nonzero"></path>
                                <path d="M87.5347293,69.5088708 C88.3306464,69.656428 89.0036854,70.1855549 89.3357997,70.9248286 C89.3668793,71.0043828 89.4336479,71.0645645 89.5159068,71.0871676 C89.5908709,71.1182339 89.6750817,71.1182339 89.7500459,71.0871676 C89.9032396,71.0069452 89.9666318,70.8204517 89.8941315,70.6632822 C89.4918621,69.7302667 88.6565003,69.0555789 87.6608043,68.8595144 C87.4895071,68.8381697 87.3329344,68.9587906 87.3095955,69.1300796 C87.2744419,69.2958351 87.3724832,69.4607911 87.5347293,69.5088708 Z" id="Path" fill="#263238" fill-rule="nonzero"></path>
                                <path d="M81.3120311,68.7512884 C81.4735155,68.8058172 81.649032,68.7219225 81.7082666,68.5618928 C81.7373698,68.4853785 81.7347098,68.4003853 81.7008792,68.3258465 C81.6670486,68.2513078 81.6048574,68.1934148 81.5281596,68.1650639 C81.2366393,68.0741838 80.9329391,68.0285606 80.6276244,68.0297813 C79.9257437,68.0271469 79.2423947,68.255271 78.6824683,68.6791377 C78.5476336,68.7863205 78.5199558,68.980355 78.6194309,69.1210608 C78.6689323,69.1830907 78.7394154,69.2248022 78.8175486,69.2383057 C78.9025986,69.256795 78.9914669,69.2370169 79.0606931,69.1841926 C79.4143588,68.9113954 79.8337871,68.7371498 80.2764156,68.6791377 C80.6225503,68.622727 80.9770294,68.6474233 81.3120311,68.7512884 Z" id="Path" fill="#263238" fill-rule="nonzero"></path>
                                <path d="M86.7692744,73.4230469 C86.9494337,73.4965 87.1549466,73.4690572 87.3095955,73.3508962 L87.3095955,73.3508962 L86.1298944,72.746634 C86.2570135,73.0403587 86.4833892,73.279846 86.7692744,73.4230469 L86.7692744,73.4230469 Z" id="Path" fill="#263238" fill-rule="nonzero"></path>
                                <path d="M101.177838,117.534188 C101.177838,117.164415 101.23187,116.767587 101.24988,116.388795 C100.745581,115.586119 100.232276,114.774423 99.7009598,113.971746 L98.6653443,112.429525 L98.3411517,112.600883 C99.1621151,114.314092 100.110342,115.963161 101.177838,117.534188 L101.177838,117.534188 Z" id="Path" fill="#263238" fill-rule="nonzero"></path>
                                <path d="M101.177838,117.534188 C101.177838,117.164415 101.23187,116.767587 101.24988,116.388795 C100.745581,115.586119 100.232276,114.774423 99.7009598,113.971746 L98.6653443,112.429525 L98.3411517,112.600883 C99.1621151,114.314092 100.110342,115.963161 101.177838,117.534188 L101.177838,117.534188 Z" id="Path" fill="#000000" fill-rule="nonzero" opacity="0.2"></path>
                                <path d="M103.852427,125.001786 L103.852427,125.146088 C107.44415,123.202354 110.752893,120.774736 113.686271,117.931017 C113.194396,116.476156 112.617045,115.0517 111.957244,113.665106 C111.083505,111.779112 110.112623,109.939801 109.048515,108.154595 C108.14798,106.603355 107.193413,105.124266 106.211829,103.645176 C105.311294,105.530113 102.753774,110.066589 98.6923604,112.402469 L99.7279759,113.94469 C100.259292,114.747367 100.772597,115.559062 101.276896,116.361739 L101.276896,116.361739 C101.718159,117.065208 102.177432,117.777697 102.546651,118.481166 C103.240063,119.698709 103.888448,120.925271 104.347721,122.088701 L104.257668,122.701983 C104.149604,123.450546 104.014523,124.217147 103.852427,125.001786 Z" id="Path" fill="#FFC3BD" fill-rule="nonzero"></path>
                                <path d="M92.4966783,107.847955 C92.4966783,107.847955 94.8020484,110.156778 97.5036539,113.01575 C97.7918252,112.889486 98.0709911,112.745184 98.3411517,112.600883 L98.6653443,112.429525 C102.726758,110.093646 105.266267,105.55717 106.184813,103.672233 C106.445968,103.140121 106.581049,102.815443 106.581049,102.815443 C106.581049,102.815443 103.969497,98.4864002 100.385367,96.3038411 C99.5302518,95.7626443 98.5844919,95.3807184 97.5937075,95.1764863 C91.2089129,96.8088961 89.1286766,100.813261 92.4966783,107.847955 Z" id="Path" fill="#263238" fill-rule="nonzero"></path>
                                <path d="M135.677341,17.3799822 L148.365882,17.3799822 C149.084313,17.3677945 149.674469,16.8080679 149.72569,16.0902882 L149.72569,16.0902882 C149.748293,15.7567712 149.630904,15.428937 149.40182,15.185813 C149.172736,14.9426889 148.852741,14.8063323 148.518973,14.8096131 L135.821427,14.8096131 C135.106198,14.8213982 134.517261,15.3760618 134.461618,16.0902882 L134.461618,16.0902882 C134.436222,16.4268937 134.553621,16.7586361 134.785004,17.004098 C135.016388,17.2495598 135.340335,17.3860179 135.677341,17.3799822 Z" id="Path" fill="#407BFF" fill-rule="nonzero"></path>
                                <path d="M135.416186,21.8082339 L148.104727,21.8082339 C148.823158,21.7960444 149.413314,21.2363178 149.464535,20.5185381 L149.464535,20.5185381 C149.489776,20.1835193 149.373568,19.8532548 149.144184,19.6080978 C148.9148,19.3629409 148.593268,19.2253657 148.257818,19.2288441 L135.569277,19.2288441 C134.847368,19.2363901 134.251992,19.7973531 134.200463,20.5185381 L134.200463,20.5185381 C134.180592,20.8537596 134.29985,21.1823158 134.530031,21.4265027 C134.760213,21.6706896 135.080877,21.8088222 135.416186,21.8082339 Z" id="Path" fill="#407BFF" fill-rule="nonzero"></path>
                                <path d="M32.7641787,21.8082351 L45.4527196,21.8082351 C46.1729093,21.7964277 46.7658655,21.2377454 46.8215331,20.5185381 L46.8215331,20.5185381 C46.8441275,20.1826272 46.7257852,19.8525031 46.495014,19.6076906 C46.2642429,19.362878 45.9419634,19.2255703 45.6058106,19.2288441 L32.9172697,19.2288441 C32.1970939,19.2367334 31.6044916,19.79878 31.5574615,20.5185381 L31.5574615,20.5185381 C31.5349881,20.852875 31.6521318,21.1815485 31.8809166,21.4260651 C32.1097014,21.6705817 32.429587,21.8089888 32.7641787,21.8082351 L32.7641787,21.8082351 Z" id="Path" fill="#407BFF" fill-rule="nonzero"></path>
                                <path d="M135.15503,26.2274631 L147.870587,26.2274631 C148.592496,26.2199171 149.187873,25.6589541 149.239401,24.9377691 L149.239401,24.9377691 C149.259272,24.6025476 149.140014,24.2739914 148.909833,24.0298045 C148.679651,23.7856176 148.358987,23.647485 148.023678,23.6480733 L135.308121,23.6480733 C134.587932,23.6598795 133.994976,24.2185619 133.939308,24.9377691 L133.939308,24.9377691 C133.916714,25.27368 134.035056,25.6038041 134.265827,25.8486166 C134.496598,26.0934292 134.818878,26.2307369 135.15503,26.2274631 L135.15503,26.2274631 Z" id="Path" fill="#407BFF" fill-rule="nonzero"></path>
                                <path d="M118.477119,188.034451 L41.7154986,188.034451 C38.8173449,188.061565 36.0395524,186.875364 34.0526402,184.762178 C32.065728,182.648992 31.0502325,179.800833 31.2512796,176.905204 L31.2512796,176.905204 C31.6990091,170.69987 36.8097355,165.867367 43.0212746,165.775957 L119.782895,165.775957 C122.681048,165.748843 125.458841,166.935045 127.445753,169.04823 C129.432665,171.161416 130.448161,174.009575 130.247114,176.905204 L130.247114,176.905204 C129.799384,183.110538 124.688658,187.943041 118.477119,188.034451 Z" id="Path" fill="#FFFFFF" fill-rule="nonzero"></path>
                                <path d="M116.73008,217.94994 L39.9594549,217.94994 C37.0613293,217.971796 34.2852953,216.782704 32.2992859,214.668767 C30.3132764,212.55483 29.2970929,209.707431 29.4952359,206.811674 L29.4952359,206.811674 C29.9562762,200.617002 35.063319,195.799722 41.265231,195.709483 L118.035856,195.709483 C120.93401,195.682369 123.711803,196.868571 125.698715,198.981756 C127.685627,201.094942 128.701122,203.943102 128.500075,206.83873 L128.500075,206.83873 C128.039335,213.034986 122.933478,217.85506 116.73008,217.94994 Z" id="Path" fill="#FFFFFF" fill-rule="nonzero"></path>
                                <path d="M114.974037,247.85641 L38.2124166,247.85641 C35.3142629,247.883524 32.5364705,246.697322 30.5495583,244.584136 C28.5626461,242.470951 27.5471506,239.622791 27.7481977,236.727162 L27.7481977,236.727162 C28.1956327,230.520247 33.3051689,225.684954 39.5181927,225.588896 L116.279813,225.588896 C119.178792,225.56432 121.956468,226.752578 123.943077,228.867153 C125.929686,230.981728 126.944938,233.830718 126.744032,236.727162 L126.744032,236.727162 C126.296302,242.932496 121.185576,247.764999 114.974037,247.85641 Z" id="Path" fill="#FFFFFF" fill-rule="nonzero"></path>
                                <ellipse id="Oval" fill="#407BFF" fill-rule="nonzero" transform="translate(43.808093, 176.901819) rotate(-44.160000) translate(-43.808093, -176.901819) " cx="43.8080927" cy="176.901819" rx="5.9027945" ry="5.56058664"></ellipse>
                                <path d="M43.1293388,201.391352 L43.8857884,204.250324 C43.9756173,204.573446 44.2713312,204.795563 44.6062165,204.791454 L47.6049987,204.791454 C47.9525797,204.794738 48.2553982,205.029547 48.3456136,205.365735 C48.4358289,205.701923 48.2913389,206.057125 47.9922289,206.234468 L45.461725,208.038236 C45.1669224,208.234726 45.0294101,208.597143 45.1195216,208.94012 L45.8759712,211.799092 C45.9678624,212.13534 45.8400837,212.493255 45.5561497,212.694928 C45.2722158,212.896601 44.8926876,212.899017 44.6062165,212.700976 L42.2828357,210.897208 C42.0126437,210.707174 41.6524926,210.707174 41.3823005,210.897208 L38.8517966,212.700976 C38.5789153,212.918501 38.1929041,212.920982 37.9172574,212.706982 C37.6416107,212.492983 37.547786,212.117979 37.6901062,211.799092 L38.7797538,208.94012 C38.9173863,208.621285 38.8208816,208.249557 38.5456147,208.038236 L36.2222339,206.234468 C35.9601808,206.008925 35.8675386,205.643 35.9906288,205.319657 C36.113719,204.996314 36.4260921,204.785033 36.7715603,204.791454 L39.7703425,204.791454 C40.1184028,204.791648 40.4303029,204.576222 40.5538082,204.250324 L41.6074343,201.391352 C41.7058447,201.052415 42.0159387,200.819299 42.3683866,200.819299 C42.7208345,200.819299 43.0309284,201.052415 43.1293388,201.391352 L43.1293388,201.391352 Z" id="Path" fill="#407BFF" fill-rule="nonzero"></path>
                                <path d="M45.2095751,233.696833 L44.7322915,241.723599 C44.6850797,242.421884 44.1073351,242.965069 43.4085047,242.968199 L36.3933355,242.968199 C36.079964,242.949894 35.7873275,242.80536 35.5820652,242.567511 C35.376803,242.329662 35.2763884,242.018745 35.303688,241.705561 L35.8890358,231.712688 C35.9314737,231.014284 36.5052153,230.467233 37.2038172,230.459069 L42.2468143,230.459069 L45.2095751,233.696833 Z" id="Path" fill="#407BFF" fill-rule="nonzero"></path>
                                <path d="M42.2017876,230.477107 L45.2365912,233.696833 L43.2644191,233.696833 C42.9401879,233.700142 42.6293305,233.56759 42.4069957,233.33122 C42.1846609,233.094849 42.0710845,232.776174 42.0937233,232.452233 L42.2017876,230.477107 M41.4003112,228.267492 L41.2742363,230.422994 L41.1571667,232.39812 C41.1257325,232.979357 41.33036,233.548617 41.7245039,233.976417 C42.1249846,234.399456 42.6823506,234.637752 43.2644191,234.634819 L47.3888703,234.634819 L45.9119926,233.056495 L42.8861943,229.83677 L41.4003112,228.267492 L41.4003112,228.267492 Z" id="Shape" fill="#FFFFFF" fill-rule="nonzero"></path>
                                <path d="M115.901588,175.723736 L58.4564478,175.723736 C57.9865068,175.7272 57.5362723,175.534881 57.2134907,175.192801 C56.8907091,174.850722 56.7244265,174.389666 56.7544363,173.919968 L56.7544363,173.919968 C56.8333195,172.913111 57.6642539,172.131723 58.6725763,172.116201 L116.108711,172.116201 C116.578652,172.112737 117.028887,172.305056 117.351668,172.647136 C117.67445,172.989215 117.840732,173.450271 117.810723,173.919968 L117.810723,173.919968 C117.736279,174.925399 116.908146,175.707827 115.901588,175.723736 Z" id="Path" fill="#407BFF" fill-rule="nonzero" opacity="0.2"></path>
                                <path d="M105.014117,181.712245 L58.1142445,181.712245 C57.6435822,181.715539 57.1925705,181.523491 56.8683942,181.181742 C56.5442179,180.839992 56.3758224,180.379056 56.4032276,179.908478 L56.4032276,179.908478 C56.4821108,178.90162 57.3130452,178.120232 58.3213676,178.10471 L105.221241,178.10471 C105.692739,178.09872 106.14537,178.289936 106.470141,178.632312 C106.794912,178.974688 106.962393,179.4372 106.932257,179.908478 L106.932257,179.908478 C106.849318,180.913379 106.020746,181.692546 105.014117,181.712245 L105.014117,181.712245 Z" id="Path" fill="#407BFF" fill-rule="nonzero" opacity="0.2"></path>
                                <path d="M114.010464,207.993142 L98.1610446,207.993142 C97.151011,208.004417 96.3176639,208.788075 96.2429047,209.79691 L96.2429047,209.79691 C96.2128949,210.266607 96.3791775,210.727663 96.7019591,211.069742 C97.0247407,211.411822 97.4749751,211.604141 97.9449162,211.600677 L113.794336,211.600677 C114.804369,211.589402 115.637716,210.805744 115.712476,209.79691 L115.712476,209.79691 C115.742485,209.327212 115.576203,208.866156 115.253421,208.524077 C114.93064,208.181998 114.480405,207.989678 114.010464,207.993142 L114.010464,207.993142 Z" id="Path" fill="#407BFF" fill-rule="nonzero" opacity="0.2"></path>
                                <path d="M88.8945375,207.993142 L56.5743293,207.993142 C55.5642957,208.004417 54.7309485,208.788075 54.6561893,209.79691 L54.6561893,209.79691 C54.6234174,210.2673 54.7887719,210.729949 55.1121546,211.072666 C55.4355373,211.415382 55.8874124,211.606864 56.3582008,211.600677 L88.6874144,211.600677 C89.6957367,211.585155 90.5266711,210.803767 90.6055543,209.79691 L90.6055543,209.79691 C90.6356904,209.325632 90.4682085,208.86312 90.1434378,208.520744 C89.8186671,208.178368 89.3660363,207.987152 88.8945375,207.993142 Z" id="Path" fill="#407BFF" fill-rule="nonzero" opacity="0.2"></path>
                                <path d="M103.825411,202.022667 L56.9165327,202.022667 C55.9064991,202.033946 55.0731519,202.817604 54.9983927,203.826438 L54.9983927,203.826438 C54.9683829,204.296135 55.1346655,204.757191 55.4574471,205.099271 C55.7802287,205.44135 56.2304632,205.63367 56.7004042,205.630206 L103.600277,205.630206 C104.6086,205.614684 105.439534,204.833295 105.518417,203.826438 L105.518417,203.826438 C105.548315,203.358313 105.383233,202.898701 105.062435,202.556915 C104.741636,202.215129 104.29379,202.021714 103.825411,202.022667 L103.825411,202.022667 Z" id="Path" fill="#407BFF" fill-rule="nonzero" opacity="0.2"></path>
                                <path d="M112.25442,237.899611 L54.8182857,237.899611 C53.811657,237.919311 52.9830855,238.698478 52.9001457,239.703379 L52.9001457,239.703379 C52.8700097,240.174657 53.0374915,240.637169 53.3622623,240.979545 C53.687033,241.321921 54.1396637,241.513136 54.6111626,241.507147 L112.047297,241.507147 C113.053856,241.491237 113.881988,240.70881 113.956432,239.703379 L113.956432,239.703379 C113.986442,239.233682 113.820159,238.772626 113.497378,238.430547 C113.174596,238.088467 112.724362,237.896147 112.25442,237.899611 L112.25442,237.899611 Z" id="Path" fill="#407BFF" fill-rule="nonzero" opacity="0.2"></path>
                                <path d="M102.069367,231.920121 L55.1694944,231.920121 C54.161172,231.935643 53.3302376,232.717032 53.2513544,233.723889 L53.2513544,233.723889 C53.2213446,234.193586 53.3876272,234.654642 53.7104088,234.996722 C54.0331904,235.338801 54.4834249,235.531121 54.9533659,235.527657 L101.862244,235.527657 C102.868803,235.511747 103.696935,234.72932 103.771379,233.723889 L103.771379,233.723889 C103.801389,233.254192 103.635106,232.793136 103.312325,232.451056 C102.989543,232.108977 102.539308,231.916657 102.069367,231.920121 L102.069367,231.920121 Z" id="Path" fill="#407BFF" fill-rule="nonzero" opacity="0.2"></path>
                            </g>
                        </g>
                    </g>
                </g>
            </g>
        </g>
    </g>
</svg>