<?xml version="1.0" encoding="UTF-8"?>
<svg width="368px" height="382px" viewBox="0 0 368 382" version="1.1" xmlns="http://www.w3.org/2000/svg" xmlns:xlink="http://www.w3.org/1999/xlink">
    <title>Group 2</title>
    <defs>
        <path d="M315.204821,63.1018899 C351.978706,97.4699381 374.70078,154.849636 363.638718,205.056872 C352.87563,254.965255 308.029429,298.000028 250.327318,333.563487 C192.625207,368.828093 121.469236,396.920237 85.2933007,371.816619 C49.4163404,347.011854 48.2204417,269.011327 32.3747842,195.792441 C16.5291268,122.573556 -14.2652642,53.8374595 7.55988668,22.7567897 C29.0860629,-8.32387998 103.231781,-1.45027033 165.418512,7.81416007 C227.904218,17.0785905 278.430937,28.7338416 315.204821,63.1018899 Z" id="path-1"></path>
    </defs>
    <g id="Onboarding" stroke="none" stroke-width="1" fill="none" fill-rule="evenodd">
        <g id="OB-1" transform="translate(-23.000000, -128.000000)">
            <g id="Group-2" transform="translate(23.985998, 128.576177)">
                <mask id="mask-2" fill="white">
                    <use xlink:href="#path-1" transform="translate(183.224377, 190.711911) scale(-1, 1) translate(-183.224377, -190.711911) "></use>
                </mask>
                <use id="Mask" fill="#F1C21B" fill-rule="nonzero" transform="translate(183.224377, 190.711911) scale(-1, 1) translate(-183.224377, -190.711911) " xlink:href="#path-1"></use>
                <g id="Profile-Interface-rafiki" mask="url(#mask-2)">
                    <g transform="translate(-16.985998, 77.510590)">
                        <g id="freepik--Character--inject-20" transform="translate(42.279025, 35.189837)">
                            <path d="M67.6109752,5.45091663 C70.1309752,-0.319083371 47.8109752,-5.54908337 41.0609752,12.2309166 C34.9409752,28.3609166 24.7809752,32.4809166 29.5609752,43.6509166 C34.7309752,55.7409166 63.9809752,57.1909166 76.6809752,43.7909166 C86.9809752,32.9209166 75.8009752,28.3409166 77.2409752,18.1209166 C78.6809752,7.90091663 75.6609752,4.57091663 67.6109752,5.45091663 Z" id="Path" fill="#263238" fill-rule="nonzero"></path>
                            <path d="M26.9509752,40.0709166 C25.7909752,33.7709166 28.1309752,31.1709166 31.0909752,27.8809166 C35.0910374,23.8220235 37.8312248,18.6924204 38.9809752,13.1109166 C40.2026422,6.86525358 45.2183742,2.06167948 51.5109752,1.11091663 C58.1109752,-0.109083371 65.1009752,2.05091663 66.9509752,4.79091663 C67.5547313,5.58196199 67.594789,6.66752551 67.0509752,7.50091663 L66.2109752,6.96091663 C66.5433665,6.464229 66.5066529,5.80746376 66.1209752,5.35091663 C64.4809752,2.91091663 57.8209752,0.960916629 51.7009752,2.10091663 C47.3309752,2.91091663 41.7009752,5.51091663 39.9609752,13.3309166 C38.7761059,19.0794435 35.952459,24.3620595 31.8309752,28.5409166 C28.9509752,31.7409166 26.8309752,34.0609166 27.9409752,39.8809166 L26.9509752,40.0709166 Z" id="Path" fill="#263238" fill-rule="nonzero"></path>
                            <path d="M13.2009752,35.2809166 L12.5809752,33.2809166 C12.1529701,31.9218128 11.3773678,30.6980848 10.3309752,29.7309166 L8.33097519,27.9109166 C7.02608332,26.7041042 5.04628688,26.5990195 3.62097519,27.6609166 L1.48097519,29.2609166 C0.690935017,29.8513767 0.170161851,30.7335463 0.0348864794,31.7105351 C-0.100388892,32.6875239 0.16109404,33.6780059 0.760975187,34.4609166 L2.14097519,36.2609166 C2.14097519,36.2609166 5.38097519,41.7409166 10.0709752,43.6409166 L11.1509752,42.7209166 L11.1509752,42.7209166 C13.2631087,40.8755605 14.069857,37.9476547 13.2009752,35.2809166 L13.2009752,35.2809166 Z" id="Path" fill="#FFC3BD" fill-rule="nonzero"></path>
                            <path d="M52.0709752,70.0009166 L51.4309752,70.4909166 L50.9109752,70.8709166 L49.9109752,71.5709166 C49.2409752,72.0109166 48.5609752,72.4209166 47.9109752,72.8209166 C46.5502985,73.6029329 45.1482428,74.3106372 43.7109752,74.9409166 C40.7553505,76.2445454 37.647698,77.1718017 34.4609752,77.7009166 C31.0961468,78.2663872 27.6622413,78.2866462 24.2909752,77.7609166 C22.5657705,77.4896004 20.8711001,77.0508616 19.2309752,76.4509166 C18.8209752,76.3209166 18.4109752,76.1509166 18.0109752,75.9809166 L17.4109752,75.7309166 L17.1109752,75.6009166 L16.7809752,75.4609166 L16.3609752,75.2609166 C15.4881989,74.8137682 14.6834707,74.2447344 13.9709752,73.5709166 C13.4587881,73.0942617 12.9871603,72.5758056 12.5609752,72.0209166 C11.4295785,70.4866979 10.5143528,68.8042977 9.84097519,67.0209166 C9.24097519,65.5409166 8.78097519,64.1209166 8.37097519,62.7309166 C7.62500928,60.0411531 7.02084362,57.3140628 6.56097519,54.5609166 C5.6475146,49.2402701 5.1360682,43.8583832 5.03097519,38.4609166 C4.7741366,36.363725 6.19266659,34.4284558 8.26990524,34.0421159 C10.3471439,33.655776 12.3666197,34.9516198 12.8809752,37.0009166 L12.8809752,37.1109166 C14.6209752,41.9009166 16.2909752,46.8109166 18.0509752,51.4709166 C18.9609752,53.7909166 19.8409752,56.1009166 20.8409752,58.2009166 C21.3209752,59.2509166 21.8409752,60.2509166 22.3309752,61.1209166 C22.6645992,61.7583565 23.0927818,62.3416289 23.6009752,62.8509166 C23.6009752,62.8509166 23.6009752,62.8509166 23.5309752,62.7109166 C23.3006614,62.4718466 23.0298079,62.2754778 22.7309752,62.1309166 L22.5409752,62.0309166 C22.4809752,62.0309166 22.3609752,61.9609166 22.4309752,61.9809166 L22.5909752,61.9809166 L22.9009752,62.0609166 C23.1073589,62.1250423 23.3178378,62.1751563 23.5309752,62.2109166 C24.3751619,62.379336 25.2309889,62.4829713 26.0909752,62.5209166 C27.8913895,62.5760198 29.6909961,62.3876498 31.4409752,61.9609166 C33.3613705,61.4765789 35.2301534,60.8067643 37.0209752,59.9609166 C37.9509752,59.5409166 38.8709752,59.0509166 39.7709752,58.5609166 C40.2209752,58.3109166 40.6609752,58.0409166 41.0809752,57.7809166 L42.0809752,57.1409166 L42.8609752,56.6509166 C46.5126413,54.3294579 51.3462305,55.3100627 53.8045044,58.8710634 C56.2627783,62.432064 55.466187,67.2993644 52.00097,69.8909166 L52.0709752,70.0009166 Z" id="Path" fill="#FFC3BD" fill-rule="nonzero"></path>
                            <path d="M88.8609752,192.420917 C89.5909752,141.180917 84.8609752,113.250917 84.8609752,113.250917 L46.9509752,115.140917 C46.9509752,115.140917 52.5609752,162.020917 62.5209752,196.550917 C65.1809752,215.080917 71.1709752,246.420917 75.3209752,267.470917 C81.4786943,266.943887 87.5667542,265.791277 93.4909752,264.030917 C94.9409752,245.540917 95.2009752,218.810917 88.8609752,192.420917 Z" id="Path" fill="#407BFF" fill-rule="nonzero"></path>
                            <path d="M89.6809752,288.350917 C89.6809752,288.350917 91.1609752,278.670917 92.1609752,264.030917 C87.1302757,265.782702 81.911157,266.937285 76.6109752,267.470917 C78.7709752,280.250917 80.3109752,288.390917 80.3109752,288.390917 C83.3416346,289.48101 86.6597332,289.466845 89.6809752,288.350917 L89.6809752,288.350917 Z" id="Path" fill="#FFC3BD" fill-rule="nonzero"></path>
                            <path d="M73.2509752,261.340917 C73.5809752,263.100917 74.5009752,267.510917 75.4109752,269.060917 C75.5175962,269.242363 75.7022224,269.364216 75.9109752,269.390917 C82.9809752,270.280917 90.0409752,268.860917 92.9109752,267.580917 C93.0731861,267.515639 93.2002918,267.384902 93.2609752,267.220917 C94.0609752,265.100917 94.3509752,260.640917 94.4409752,258.760917 C94.4511078,258.554774 94.3656675,258.355466 94.2093781,258.220667 C94.0530887,258.085867 93.8433946,258.030622 93.6409752,258.070917 C87.0886053,259.2852 80.4705258,260.113295 73.8209752,260.550917 C73.6369216,260.572301 73.470334,260.670068 73.361917,260.82033 C73.2535,260.970593 73.2132403,261.159508 73.2509752,261.340917 L73.2509752,261.340917 Z" id="Path" fill="#263238" fill-rule="nonzero"></path>
                            <path d="M47.4509752,54.8909166 C41.8309752,55.8909166 33.2609752,60.6409166 33.2609752,60.6409166 C33.2609752,60.6409166 28.7509752,71.4409166 34.1509752,79.2209166 C39.4709752,80.4809166 42.1509752,79.4509166 42.1509752,79.4509166 L47.4509752,54.8909166 Z" id="Path" fill="#263238" fill-rule="nonzero"></path>
                            <path d="M34.1509752,79.2209166 C39.4709752,80.4809166 42.1509752,79.4509166 42.1509752,79.4509166 L41.9609752,64.8809166 C38.3509752,69.7409166 35.3409752,74.5609166 34.1509752,79.2209166 Z" id="Path" fill="#000000" fill-rule="nonzero" opacity="0.2"></path>
                            <path d="M88.6609752,162.190917 C84.4209752,151.820917 79.8609752,143.280917 78.1109752,135.480917 C75.1109752,156.690917 77.4709752,176.200917 88.8809752,190.180917 C89.0109752,179.860917 88.9009752,170.520917 88.6609752,162.190917 Z" id="Path" fill="#000000" fill-rule="nonzero" opacity="0.2"></path>
                            <path d="M146.610975,243.510917 L131.480975,254.270917 C119.130975,238.180917 100.610975,213.600917 96.1309752,202.900917 C84.7509752,175.750917 61.8709752,115.900917 61.8709752,115.900917 L91.5709752,109.000917 C91.5709752,109.000917 110.310975,126.400917 122.400975,192.060917 C132.520975,206.440917 141.040975,227.600917 146.610975,243.510917 Z" id="Path" fill="#407BFF" fill-rule="nonzero"></path>
                            <path d="M145.740975,294.510917 C149.510975,287.140917 149.560975,279.020917 145.490975,272.620917 C143.740975,269.880917 152.630975,264.470917 152.630975,264.470917 C155.770975,274.280917 158.330975,274.850917 160.510975,276.370917 C162.690975,277.890917 162.910975,281.160917 161.070975,282.270917 C159.06303,283.451101 157.352512,285.076092 156.070975,287.020917 C153.790975,290.020917 152.510975,294.140917 149.240975,296.710917 C147.150975,298.340917 144.080975,297.740917 145.740975,294.510917 Z" id="Path" fill="#407BFF" fill-rule="nonzero"></path>
                            <path d="M154.280975,268.970917 C154.280975,268.970917 151.670975,259.790917 146.550975,246.040917 C142.684262,249.703349 138.405652,252.904756 133.800975,255.580917 C141.030975,266.340917 146.320975,274.070917 146.320975,274.070917 C149.394791,273.139538 152.150182,271.374149 154.280975,268.970917 L154.280975,268.970917 Z" id="Path" fill="#FFC3BD" fill-rule="nonzero"></path>
                            <path d="M128.210975,251.380917 C129.210975,252.840917 131.890975,256.490917 133.360975,257.520917 C133.535285,257.643946 133.756187,257.680763 133.960975,257.620917 C140.760975,255.520917 146.610975,251.310917 148.750975,248.940917 C148.872461,248.812327 148.93101,248.63668 148.910975,248.460917 C148.770975,246.210917 147.190975,242.020917 146.500975,240.270917 C146.424581,240.082968 146.267137,239.939758 146.072812,239.88146 C145.878487,239.823163 145.668212,239.856057 145.500975,239.970917 C140.04393,243.778229 134.36744,247.260922 128.500975,250.400917 C128.320903,250.480388 128.184885,250.635021 128.129033,250.82376 C128.073182,251.012499 128.103148,251.21625 128.210975,251.380917 L128.210975,251.380917 Z" id="Path" fill="#263238" fill-rule="nonzero"></path>
                            <path d="M38.8709752,69.8109166 C40.2309752,78.6609166 34.9609752,85.5209166 43.0709752,89.6009166 C41.7209752,96.3309166 43.7209752,109.770917 46.9309752,115.100917 C51.4409752,117.550917 73.5009752,113.930917 91.5309752,108.990917 C91.2709752,101.290917 84.9409752,86.1409166 86.7009752,60.9209166 C86.8926094,58.1308479 85.8916222,55.3904585 83.9467774,53.3807855 C82.0019325,51.3711125 79.295826,50.2808385 76.5009752,50.3809166 C74.9409752,50.3809166 73.2809752,50.5309166 71.6009752,50.6809166 C65.6944855,51.0600641 59.8227717,51.8621195 54.0309752,53.0809166 C52.1609752,53.5209166 50.2309752,54.0209166 48.4009752,54.5409166 C41.8169544,56.4847269 37.7243177,63.0423936 38.8709752,69.8109166 Z" id="Path" fill="#263238" fill-rule="nonzero"></path>
                            <path d="M51.6109752,63.0809166 C51.6109752,63.0809166 57.2609752,61.0209166 60.2209752,66.0809166 C65.1509752,63.3109166 72.0809752,51.6009166 71.5909752,50.7109166 C63.3409752,52.9809166 51.6109752,63.0809166 51.6109752,63.0809166 Z" id="Path" fill="#FFFFFF" fill-rule="nonzero"></path>
                            <path d="M51.6109752,63.0809166 C51.6109752,63.0809166 47.3209752,62.5709166 46.1109752,66.3709166 C46.1109752,58.8709166 51.1709752,54.1509166 53.3809752,53.2709166 C52.6109752,55.2309166 51.6109752,63.0809166 51.6109752,63.0809166 Z" id="Path" fill="#FFFFFF" fill-rule="nonzero"></path>
                            <path d="M69.4309752,30.8609166 C68.8009752,36.7109166 68.7009752,46.1109166 71.6009752,50.7209166 C71.6009752,50.7209166 60.6009752,58.2509166 51.6009752,63.0809166 C48.7709752,56.5309166 53.3709752,53.2709166 53.3709752,53.2709166 C57.6609752,51.6309166 57.6209752,46.1409166 57.0409752,41.9409166 L69.4309752,30.8609166 Z" id="Path" fill="#FFC3BD" fill-rule="nonzero"></path>
                            <path d="M57.0609752,41.9409166 L64.0609752,35.6409166 C64.2960455,36.8166813 64.2202137,38.0334374 63.8409752,39.1709166 C62.6285494,42.4484081 60.2983885,45.1928985 57.2609752,46.9209166 C57.3711774,45.2585222 57.3041331,43.5891199 57.0609752,41.9409166 L57.0609752,41.9409166 Z" id="Path" fill="#000000" fill-rule="nonzero" opacity="0.2"></path>
                            <path d="M71.6909752,19.9909166 C70.6909752,29.4909166 70.5409752,33.5209166 65.6409752,38.2209166 C58.2609752,45.2909166 47.0309752,42.0509166 45.1809752,32.4709166 C43.5109752,23.8409166 45.3409752,9.76091663 54.6209752,6.33091663 C63.9009752,2.90091663 72.6109752,10.5009166 71.6909752,19.9909166 Z" id="Path" fill="#FFC3BD" fill-rule="nonzero"></path>
                            <path d="M69.6109752,26.9409166 C66.5606795,24.020836 66.4094943,19.1962511 69.2709752,16.0909166 C71.7709752,13.5609166 75.2709752,18.8009166 75.2709752,18.8009166 L69.6109752,26.9409166 Z" id="Path" fill="#263238" fill-rule="nonzero"></path>
                            <path d="M58.0209752,22.6209166 C58.0209752,23.4009166 57.5509752,24.0109166 57.0209752,23.9909166 C56.4909752,23.9709166 56.1309752,23.3209166 56.1609752,22.5509166 C56.1909752,21.7809166 56.6309752,21.1609166 57.1609752,21.1809166 C57.6909752,21.2009166 58.0509752,21.8109166 58.0209752,22.6209166 Z" id="Path" fill="#263238" fill-rule="nonzero"></path>
                            <path d="M48.4809752,22.3909166 C48.4809752,23.1609166 48.0209752,23.7709166 47.4809752,23.7509166 C46.9409752,23.7309166 46.5909752,23.0909166 46.6209752,22.3109166 C46.6509752,21.5309166 47.0809752,20.9309166 47.6209752,20.9509166 C48.1609752,20.9709166 48.5109752,21.6109166 48.4809752,22.3909166 Z" id="Path" fill="#263238" fill-rule="nonzero"></path>
                            <path d="M47.8409752,21.0009166 L46.0009752,20.3909166 C46.0009752,20.3909166 46.9009752,21.8809166 47.8409752,21.0009166 Z" id="Path" fill="#263238" fill-rule="nonzero"></path>
                            <path d="M50.8309752,22.6909166 C50.0582623,24.4345087 49.0487497,26.0631892 47.8309752,27.5309166 C48.6087635,28.1303119 49.6109084,28.3570746 50.5709752,28.1509166 L50.8309752,22.6909166 Z" id="Path" fill="#ED847E" fill-rule="nonzero"></path>
                            <path d="M54.9609752,31.1909166 C54.5271812,31.2522203 54.0885568,31.2723099 53.6509752,31.2509166 C53.5278711,31.2455593 53.4308587,31.1441372 53.4309751,31.0209166 C53.4335704,30.9598967 53.460329,30.9024145 53.5053508,30.8611445 C53.5503726,30.8198746 53.6099602,30.798206 53.6709752,30.8009166 C55.6235994,30.9174809 57.515826,30.1012263 58.7709752,28.6009166 C58.8035392,28.5511299 58.854878,28.5166535 58.9132847,28.505349 C58.9716914,28.4940445 59.0321864,28.5068756 59.0809752,28.5409166 C59.1314135,28.5753571 59.1660825,28.6284446 59.177338,28.6884736 C59.1885934,28.7485027 59.175511,28.8105435 59.1409752,28.8609166 C58.1041194,30.1521565 56.604514,30.9880609 54.9609752,31.1909166 Z" id="Path" fill="#263238" fill-rule="nonzero"></path>
                            <path d="M73.2709752,27.9509166 C72.5203553,29.5400128 71.1208265,30.7281544 69.4309752,31.2109166 C67.3009752,31.7409166 66.3109752,29.4009166 66.9709752,27.0609166 C67.5609752,24.9509166 69.3909752,22.1409166 71.4909752,22.6509166 C73.5909752,23.1609166 74.3009752,25.9009166 73.2709752,27.9509166 Z" id="Path" fill="#FFC3BD" fill-rule="nonzero"></path>
                            <path d="M66.7709752,6.48091663 C60.0391821,10.6806853 52.4805729,13.3787268 44.6109752,14.3909166 C44.6109752,7.56091663 57.9709752,-0.109083371 66.7709752,6.48091663 Z" id="Path" fill="#263238" fill-rule="nonzero"></path>
                            <path d="M61.6109752,7.31091663 C60.0609752,13.3109166 75.6109752,24.3109166 72.6109752,34.8909166 C77.6909752,26.9809166 74.0309752,9.18091663 74.0309752,9.18091663 C74.0309752,9.18091663 60.9309752,0.890916629 61.6109752,7.31091663 Z" id="Path" fill="#263238" fill-rule="nonzero"></path>
                            <path d="M60.0109752,17.5209166 C59.8882726,17.5037604 59.7789329,17.434512 59.7109752,17.3309166 C59.0848278,16.3531686 58.029805,15.7327855 56.8709752,15.6609166 C56.7508548,15.6663824 56.6337308,15.6224497 56.546837,15.5393338 C56.4599432,15.456218 56.4108509,15.3411612 56.4109752,15.2209166 C56.4055131,15.0981432 56.4505013,14.9784772 56.5354919,14.8897092 C56.6204825,14.8009413 56.7380803,14.7507952 56.8609752,14.7509164 C58.3261613,14.814549 59.6689141,15.5866319 60.4609752,16.8209166 C60.5295411,16.9200812 60.5554484,17.0426118 60.53289,17.1610433 C60.5103316,17.2794748 60.4411944,17.3839016 60.3409752,17.4509166 C60.2446437,17.5171658 60.1259066,17.5423524 60.0109752,17.5209166 L60.0109752,17.5209166 Z" id="Path" fill="#263238" fill-rule="nonzero"></path>
                            <path d="M44.2609752,17.1909166 C44.1442398,17.1827635 44.0342764,17.1331026 43.9509752,17.0509166 C43.865476,16.9663831 43.817361,16.8511499 43.817361,16.7309166 C43.817361,16.6106834 43.865476,16.4954502 43.9509752,16.4109166 C44.9631983,15.3475326 46.4279914,14.8406322 47.8809752,15.0509166 C48.1250822,15.1057801 48.280577,15.3456863 48.2309752,15.5909166 C48.2070242,15.7096249 48.1362388,15.8136695 48.034617,15.8795355 C47.9329953,15.9454015 47.8091154,15.9675288 47.6909752,15.9409166 C46.5396072,15.7940216 45.3874181,16.2065796 44.5909752,17.0509166 C44.5037899,17.1393465 44.3851508,17.1896782 44.2609752,17.1909166 L44.2609752,17.1909166 Z" id="Path" fill="#263238" fill-rule="nonzero"></path>
                            <path d="M57.3809752,21.2309166 L55.5409752,20.6309166 C55.5409752,20.6309166 56.4309752,22.1209166 57.3809752,21.2309166 Z" id="Path" fill="#263238" fill-rule="nonzero"></path>
                            <path d="M86.4609752,65.8109166 C86.2812977,71.1501017 86.4583583,76.4953263 86.9909752,81.8109166 C81.9909752,76.5309166 75.7109752,66.5609166 75.3009752,61.5609166 L86.4609752,65.8109166 Z" id="Path" fill="#000000" fill-rule="nonzero" opacity="0.2"></path>
                            <path d="M119.110975,47.0309166 L120.200975,40.6809166 L130.070975,44.4909166 C130.070975,44.4909166 127.780975,50.4009166 123.570975,53.0109166 L122.400975,52.2709166 C120.541041,51.139079 119.322241,49.1978914 119.110975,47.0309166 L119.110975,47.0309166 Z" id="Path" fill="#FFC3BD" fill-rule="nonzero"></path>
                            <path d="M126.360975,37.1409166 L129.610975,38.9109166 C131.088858,39.7130419 131.642608,41.5573872 130.850975,43.0409166 L130.080975,44.4909166 L120.210975,40.6809166 L122.560975,37.8709166 C123.495573,36.7594769 125.081076,36.4548935 126.360975,37.1409166 L126.360975,37.1409166 Z" id="Path" fill="#FFC3BD" fill-rule="nonzero"></path>
                            <path d="M84.7009752,54.2809166 L85.9609752,55.5809166 L87.3309752,56.9709166 C88.2609752,57.8809166 89.1909752,58.8109166 90.1509752,59.6909166 C92.0509752,61.4809166 94.0109752,63.1409166 95.9809752,64.6909166 C97.8391957,66.1479738 99.8123048,67.4522323 101.880975,68.5909166 C103.462784,69.4804634 105.183763,70.0958232 106.970975,70.4109166 L104.280975,70.9109166 C103.620975,71.2309166 103.660975,71.3709166 103.800975,71.2609166 C104.071027,71.0800443 104.319332,70.8686495 104.540975,70.6309166 C105.272681,69.8695741 105.941533,69.0502298 106.540975,68.1809166 C107.900975,66.2509166 109.280975,64.0609166 110.540975,61.7909166 C111.800975,59.5209166 113.140975,57.1909166 114.430975,54.7909166 L118.280975,47.6709166 L118.280975,47.6109166 C119.213414,45.8584261 121.27863,45.0400849 123.158366,45.6782517 C125.038102,46.3164185 126.178224,48.2229652 125.850975,50.1809166 C125.390975,53.0609166 124.760975,55.7809166 124.060975,58.5509166 C123.360975,61.3209166 122.610975,64.0609166 121.610975,66.8109166 C120.631064,69.6464434 119.468634,72.4155661 118.130975,75.1009166 C117.355082,76.6127039 116.476351,78.0694598 115.500975,79.4609166 C114.885374,80.3192734 114.196097,81.122315 113.440975,81.8609166 C112.322554,82.976009 111.002488,83.8684956 109.550975,84.4909166 C108.838516,84.7944563 108.075137,84.9607033 107.300975,84.9809166 L106.860975,84.9809166 C102.909602,85.0039787 98.9989305,84.1822944 95.3909752,82.5709166 C93.7984333,81.8901035 92.2429361,81.1257068 90.7309752,80.2809166 C89.2843085,79.4275833 87.8876419,78.54425 86.5409752,77.6309166 C83.924092,75.7984454 81.4319299,73.7940256 79.0809752,71.6309166 C77.9309752,70.5709166 76.7909752,69.5009166 75.7009752,68.3709166 C75.1609752,67.8109166 74.6109752,67.2509166 74.0809752,66.6609166 C73.5509752,66.0709166 73.0809752,65.5309166 72.4309752,64.7809166 C70.4945957,62.6373231 69.8489008,59.6235148 70.7371175,56.8747642 C71.6253342,54.1260136 73.9125213,52.0599213 76.7371175,51.4547642 C79.5617137,50.8496071 82.4945957,51.7973231 84.4309752,53.9409166 L84.7009752,54.2809166 Z" id="Path" fill="#FFC3BD" fill-rule="nonzero"></path>
                            <path d="M76.9409752,50.4309166 C84.2709752,50.6509166 91.5609752,59.4309166 91.5609752,59.4309166 C91.5609752,59.4309166 88.7409752,71.0809166 80.7109752,76.1009166 C76.1909752,72.5809166 72.3609752,69.7609166 72.3609752,69.7609166 C65.9709752,60.3909166 68.1009752,54.1709166 76.9409752,50.4309166 Z" id="Path" fill="#263238" fill-rule="nonzero"></path>
                            <path d="M45.4709752,114.450917 C46.0109752,117.580917 46.6609752,120.040917 46.8709752,120.790917 C46.9119194,120.951761 47.0166371,121.088978 47.1609752,121.170917 C48.2309752,121.760917 53.1109752,124.170917 62.0709752,123.640917 C72.0709752,123.100917 86.7409752,117.640917 94.3509752,111.830917 C94.5789375,111.654486 94.6608193,111.347429 94.5509752,111.080917 C93.9631795,109.777809 93.2779011,108.520908 92.5009752,107.320917 C92.3449697,107.08445 92.0520678,106.97868 91.7809752,107.060917 C88.5009752,108.060917 67.8509752,113.970917 46.1009752,113.710917 C45.9141428,113.711541 45.7369117,113.793775 45.6157978,113.936036 C45.4946839,114.078297 45.4417814,114.266378 45.4709752,114.450917 L45.4709752,114.450917 Z" id="Path" fill="#407BFF" fill-rule="nonzero"></path>
                            <path d="M45.4709752,114.450917 C46.0109752,117.580917 46.6609752,120.040917 46.8709752,120.790917 C46.9119194,120.951761 47.0166371,121.088978 47.1609752,121.170917 C48.2309752,121.760917 53.1109752,124.170917 62.0709752,123.640917 C72.0709752,123.100917 86.7409752,117.640917 94.3509752,111.830917 C94.5789375,111.654486 94.6608193,111.347429 94.5509752,111.080917 C93.9631795,109.777809 93.2779011,108.520908 92.5009752,107.320917 C92.3449697,107.08445 92.0520678,106.97868 91.7809752,107.060917 C88.5009752,108.060917 67.8509752,113.970917 46.1009752,113.710917 C45.9141428,113.711541 45.7369117,113.793775 45.6157978,113.936036 C45.4946839,114.078297 45.4417814,114.266378 45.4709752,114.450917 L45.4709752,114.450917 Z" id="Path" fill="#FFFFFF" fill-rule="nonzero" opacity="0.3"></path>
                        </g>
                        <g id="freepik--Device--inject-20" transform="translate(138.686993, 0.000000)">
                            <path d="M149.473007,311.411507 L17.8130074,311.411507 C12.8900125,311.45621 8.17176432,309.443427 4.7975143,305.858405 C1.42326429,302.273383 -0.300292636,297.441974 0.0430074112,292.530754 L16.0430074,18.8807536 C16.7997426,8.3507363 25.4868899,0.150069293 36.0430074,0 L167.733007,0 C172.656002,-0.0447025506 177.374251,1.96808 180.748501,5.55310196 C184.122751,9.13812392 185.846307,13.9695327 185.503007,18.8807536 L169.453007,292.530754 C168.696967,303.053229 160.021401,311.251161 149.473007,311.411507 L149.473007,311.411507 Z" id="Path" fill="#407BFF" fill-rule="nonzero"></path>
                            <path d="M149.473007,311.411507 L17.8130074,311.411507 C12.8900125,311.45621 8.17176432,309.443427 4.7975143,305.858405 C1.42326429,302.273383 -0.300292636,297.441974 0.0430074112,292.530754 L16.0430074,18.8807536 C16.7997426,8.3507363 25.4868899,0.150069293 36.0430074,0 L167.733007,0 C172.656002,-0.0447025506 177.374251,1.96808 180.748501,5.55310196 C184.122751,9.13812392 185.846307,13.9695327 185.503007,18.8807536 L169.453007,292.530754 C168.696967,303.053229 160.021401,311.251161 149.473007,311.411507 L149.473007,311.411507 Z" id="Path" fill="#FFFFFF" fill-rule="nonzero" opacity="0.8"></path>
                            <path d="M148.693007,305.931334 L20.6930074,305.931334 C17.234145,305.9642 13.9185265,304.551378 11.5468267,302.033465 C9.17512693,299.515551 7.96294565,296.121437 8.20300741,292.670754 L24.2030074,20.2107536 C24.7346111,12.8319849 30.8063654,7.07682922 38.2030074,6.94026642 L166.203007,6.94026642 C169.662786,6.91012226 172.978275,8.32522486 175.349638,10.8446789 C177.721,13.3641329 178.932911,16.7591663 178.693007,20.2107536 L162.693007,292.670754 C162.161064,300.047755 156.088003,305.799811 148.693007,305.931334 L148.693007,305.931334 Z" id="Path" fill="#407BFF" fill-rule="nonzero"></path>
                            <path d="M147.313007,304.471241 L19.3130074,304.471241 C15.8532284,304.501385 12.5377398,303.086282 10.1663772,300.566828 C7.79501468,298.047374 6.58310336,294.652341 6.82300741,291.200754 L22.8230074,18.7407536 C23.3546111,11.3619849 29.4263654,5.60682922 36.8230074,5.47026642 L164.823007,5.47026642 C168.282786,5.44012226 171.598275,6.85522486 173.969638,9.37467889 C176.341,11.8941329 177.552911,15.2891663 177.313007,18.7407536 L161.313007,291.200754 C160.781404,298.579522 154.709649,304.334678 147.313007,304.471241 L147.313007,304.471241 Z" id="Path" fill="#FFFFFF" fill-rule="nonzero"></path>
                            <path d="M143.573007,294.341059 L24.2030074,294.341059 C22.0648787,294.359809 20.0158516,293.485479 18.5501587,291.928655 C17.0844657,290.371831 16.3351711,288.27385 16.4830074,286.140754 L23.2030074,172.490754 C23.5295537,167.918865 27.2999501,164.35697 31.8830074,164.290448 L151.203007,164.290448 C153.341136,164.271698 155.390163,165.146028 156.855856,166.702852 C158.321549,168.259676 159.070844,170.357657 158.923007,172.490754 L152.253007,286.140754 C151.926461,290.712642 148.156065,294.274537 143.573007,294.341059 Z" id="Path" fill="#407BFF" fill-rule="nonzero" opacity="0.1"></path>
                            <path d="M117.063007,25.6807536 L82.2730074,25.6807536 C81.5086969,25.6881751 80.7760275,25.3760053 80.2519345,24.8196312 C79.7278414,24.263257 79.4599692,23.5132578 79.5130074,22.7507536 L79.5130074,22.7507536 C79.6272921,21.1110674 80.9794909,19.832783 82.6230074,19.8107536 L117.403007,19.8107536 C118.176083,19.7917398 118.921198,20.1002871 119.454515,20.6602701 C119.987832,21.220253 120.259687,21.9795238 120.203007,22.7507536 L120.203007,22.7507536 C120.08753,24.4001487 118.71644,25.679542 117.063007,25.6807536 L117.063007,25.6807536 Z" id="Path" fill="#407BFF" fill-rule="nonzero" opacity="0.1"></path>
                            <ellipse id="Oval" fill="#407BFF" fill-rule="nonzero" opacity="0.1" transform="translate(95.380623, 98.789118) rotate(-44.160000) translate(-95.380623, -98.789118) " cx="95.3806234" cy="98.7891178" rx="54.07" ry="50.99"></ellipse>
                            <path d="M58.6030074,133.570754 C49.7538688,124.149581 45.2344901,111.464877 46.1330074,98.5707536 L47.1330074,98.5707536 C46.2572436,111.187584 50.6781615,123.598768 59.3330074,132.820754 L58.6030074,133.570754 Z" id="Path" fill="#407BFF" fill-rule="nonzero"></path>
                            <path d="M144.623007,99.0007536 L143.623007,98.9407536 C143.896132,94.5356037 143.55962,90.1138382 142.623007,85.8007536 L143.623007,85.5807536 C144.579375,89.985733 144.915959,94.5026803 144.623007,99.0007536 Z" id="Path" fill="#407BFF" fill-rule="nonzero"></path>
                            <path d="M139.723007,77.1007536 C134.779399,66.1329873 125.649967,57.6013797 114.373007,53.4107536 L114.723007,52.4707536 C126.258453,56.7477367 135.593466,65.4774694 140.633007,76.7007536 L139.723007,77.1007536 Z" id="Path" fill="#407BFF" fill-rule="nonzero"></path>
                            <ellipse id="Oval" fill="#407BFF" fill-rule="nonzero" transform="translate(95.380623, 98.789118) rotate(-44.160000) translate(-95.380623, -98.789118) " cx="95.3806234" cy="98.7891178" rx="47.12" ry="44.43"></ellipse>
                            <path d="M90.2930074,105.000754 L90.2930074,105.000754 C92.4930074,104.510754 93.5230074,102.630754 93.9930074,100.490754 C94.0430074,100.260754 94.0830074,100.040754 94.1230074,99.8207536 L94.1230074,99.6207536 C94.2428436,98.7288343 94.3096277,97.8305878 94.3230074,96.9307536 C89.9138783,96.494335 86.5329204,92.8208769 86.4630074,88.3907536 C86.3526658,84.1471959 87.2939668,79.9422601 89.2030074,76.1507536 C88.7114903,76.2150768 88.2457358,76.4082787 87.8530074,76.7107536 C87.7761351,76.7693246 87.6774513,76.7912543 87.5830074,76.7707536 C87.4962443,76.755781 87.4179763,76.7095317 87.3630074,76.6407536 C87.2525453,76.4847404 87.28328,76.2695969 87.4330074,76.1507536 C88.054778,75.6807744 88.8136034,75.4278326 89.5930074,75.4307536 C89.7430074,75.1907536 89.8830074,74.9407536 90.0330074,74.7107536 C89.3930074,74.7107536 88.7730074,74.7107536 88.1730074,74.7107536 C88.8330074,70.0907536 97.7230074,66.2107536 103.783007,69.7107536 C106.483007,70.2507536 110.943007,74.1107536 110.943007,74.1107536 C111.032442,76.5693767 110.962294,79.0312121 110.733007,81.4807536 L110.733007,81.4807536 C110.333007,85.6607536 109.343007,90.5707536 106.933007,93.3107536 C107.532537,91.9091122 107.75324,90.3745405 107.573007,88.8607536 C106.995263,89.4319555 106.278221,89.8421863 105.493007,90.0507536 C105.207999,90.6635911 104.87356,91.2522028 104.493007,91.8107536 C103.553007,96.1007536 102.883007,101.810754 104.313007,105.100754 C105.603007,105.180754 106.853007,105.300754 108.043007,105.430754 L108.333007,105.480754 C109.118215,105.019498 109.873091,104.508453 110.593007,103.950754 C119.593007,96.9507536 110.043007,88.7307536 112.293007,81.2007536 C114.543007,73.6707536 112.643007,70.8107536 106.493007,70.5707536 C109.043007,66.5007536 92.8430074,60.0007536 85.7230074,72.6307536 C79.2730074,84.0807536 77.1930074,89.8007536 79.5130074,98.7507536 C80.3850219,101.675925 82.3611278,104.146954 85.0230074,105.640754 C85.4762516,105.516763 85.9372802,105.423221 86.4030074,105.360754 C87.6730074,105.240754 88.9930074,105.100754 90.2930074,105.000754 Z" id="Path" fill="#263238" fill-rule="nonzero"></path>
                            <path d="M76.3030074,122.600754 C75.9359879,121.951469 75.6022235,121.28394 75.3030074,120.600754 C74.6230074,122.600754 73.9530074,124.600754 73.3030074,126.600754 C72.6830074,128.400754 72.0930074,130.200754 71.4730074,131.920754 L70.5430074,134.350754 L70.1430074,135.350754 C70.0030074,135.620754 70.1430074,135.460754 70.1430074,135.540754 C69.716673,136.037279 69.2445952,136.492616 68.7330074,136.900754 C68.6230074,137.010754 68.4830074,137.110754 68.3630074,137.210754 C71.1299745,139.077087 74.1071545,140.610989 77.2330074,141.780754 C77.3030074,137.210754 77.8630074,132.460754 78.4630074,131.190754 C74.8630074,128.690754 75.4030074,126.000754 76.3030074,122.600754 Z" id="Path" fill="#FFC3BD" fill-rule="nonzero"></path>
                            <path d="M79.8030074,109.110754 L79.5530074,109.460754 C79.6330074,109.340754 79.7230074,109.230754 79.8130074,109.120754 L79.8030074,109.110754 Z" id="Path" fill="#263238" fill-rule="nonzero"></path>
                            <path d="M77.4930074,115.810754 C77.4783677,113.609462 78.1455783,111.457621 79.4030074,109.650754 C77.4857795,112.666892 75.9094509,115.886627 74.7030074,119.250754 C74.7030074,119.250754 74.8830074,119.780754 75.2630074,120.610754 C75.5622235,121.29394 75.8959879,121.961469 76.2630074,122.610754 C76.9760811,120.409498 77.3897911,118.122321 77.4930074,115.810754 L77.4930074,115.810754 Z" id="Path" fill="#263238" fill-rule="nonzero"></path>
                            <path d="M112.353007,130.320754 C111.167606,128.578815 110.114647,126.750343 109.203007,124.850754 C108.903007,125.010754 108.593007,125.170754 108.273007,125.310754 C105.273007,122.140754 102.713007,119.580754 102.713007,119.580754 C98.9730074,111.780754 101.283007,107.340754 108.373007,105.530754 C109.473225,105.757204 110.523445,106.18068 111.473007,106.780754 C110.538037,106.12326 109.463125,105.691926 108.333007,105.520754 L108.043007,105.470754 C106.853007,105.340754 105.603007,105.220754 104.313007,105.140754 C104.593007,105.870754 98.1730074,115.140754 94.1430074,116.610754 C92.4930074,112.450754 87.8630074,112.170754 87.8630074,112.170754 C87.8630074,112.170754 83.5430074,111.280754 82.2030074,114.000754 C83.0830074,108.380754 88.4930074,105.420754 90.2930074,105.000754 C88.9930074,105.110754 87.6730074,105.250754 86.4030074,105.410754 C85.9372802,105.473221 85.4762516,105.566763 85.0230074,105.690754 C82.9651842,106.255243 81.1404407,107.460064 79.8130074,109.130754 C79.7230074,109.240754 79.6330074,109.350754 79.5530074,109.470754 L79.4030074,109.660754 C78.1455783,111.467621 77.4783677,113.619462 77.4930074,115.820754 C77.4018574,118.127128 77.001619,120.410841 76.3030074,122.610754 C75.4030074,125.970754 74.8630074,128.700754 78.3930074,131.200754 C77.7930074,132.470754 77.2330074,137.200754 77.1630074,141.790754 C82.1326598,143.633202 87.3928413,144.568044 92.6930074,144.550989 C99.4795862,144.540518 106.184564,143.070607 112.353007,140.240754 C112.181194,136.518528 112.211238,132.789727 112.443007,129.070754 L112.443007,129.070754 C112.413007,129.470754 112.373007,129.910754 112.353007,130.320754 Z" id="Path" fill="#263238" fill-rule="nonzero"></path>
                            <path d="M87.8630074,112.170754 C87.8630074,112.170754 92.4930074,112.450754 94.1430074,116.610754 C98.1430074,115.090754 104.593007,105.870754 104.313007,105.140754 C104.313007,105.140754 95.2030074,109.560754 87.8630074,112.170754 Z" id="Path" fill="#FFFFFF" fill-rule="nonzero"></path>
                            <path d="M90.3130074,105.000754 L90.3130074,105.000754 C88.5130074,105.430754 83.1030074,108.390754 82.2230074,114.000754 C83.5630074,111.280754 87.8830074,112.170754 87.8830074,112.170754 C86.4830074,106.910754 90.3130074,105.000754 90.3130074,105.000754 Z" id="Path" fill="#FFFFFF" fill-rule="nonzero"></path>
                            <path d="M94.1430074,99.8107536 L94.1430074,99.6107536 L94.1430074,99.8107536 Z" id="Path" fill="#FFC3BD" fill-rule="nonzero"></path>
                            <path d="M104.493007,91.8507536 C103.623787,93.1116252 102.524579,94.1972629 101.253007,95.0507536 C100.718212,95.4355232 100.149146,95.7702677 99.5530074,96.0507536 C98.2429688,98.1532797 96.2895459,99.7770405 93.9830074,100.680754 L93.9830074,100.510754 C93.5130074,102.650754 92.4830074,104.510754 90.2830074,105.020754 C90.2830074,105.020754 86.4530074,106.940754 87.8330074,112.200754 C95.1830074,109.590754 104.283007,105.200754 104.283007,105.200754 C102.883007,101.860754 103.553007,96.1407536 104.493007,91.8507536 Z" id="Path" fill="#FFC3BD" fill-rule="nonzero"></path>
                            <path d="M94.0130074,100.480754 C94.0630074,100.250754 94.1030074,100.030754 94.1430074,99.8107536 C94.1030074,100.000754 94.0630074,100.250754 94.0130074,100.480754 Z" id="Path" fill="#263238" fill-rule="nonzero"></path>
                            <path d="M94.0130074,100.480754 C94.0630074,100.250754 94.1030074,100.030754 94.1430074,99.8107536 C94.1030074,100.000754 94.0630074,100.250754 94.0130074,100.480754 Z" id="Path" fill="#000000" fill-rule="nonzero" opacity="0.2"></path>
                            <path d="M94.3730074,96.9207536 C94.3596277,97.8205878 94.2928436,98.7188343 94.1730074,99.6107536 C94.2974453,98.7193201 94.3642507,97.8207879 94.3730074,96.9207536 L94.3730074,96.9207536 Z" id="Path" fill="#263238" fill-rule="nonzero"></path>
                            <path d="M94.3730074,96.9207536 C94.3596277,97.8205878 94.2928436,98.7188343 94.1730074,99.6107536 C94.2974453,98.7193201 94.3642507,97.8207879 94.3730074,96.9207536 L94.3730074,96.9207536 Z" id="Path" fill="#000000" fill-rule="nonzero" opacity="0.2"></path>
                            <path d="M99.5530074,96.0007536 C97.9422789,96.7723999 96.1496206,97.0838656 94.3730074,96.9007536 C94.3642507,97.8007879 94.2974453,98.6993201 94.1730074,99.5907536 L94.1730074,99.7907536 C94.1730074,100.010754 94.0930074,100.230754 94.0430074,100.460754 L94.0430074,100.630754 C96.3273708,99.7160787 98.2584745,98.0933908 99.5530074,96.0007536 L99.5530074,96.0007536 Z" id="Path" fill="#FFC3BD" fill-rule="nonzero"></path>
                            <path d="M99.5530074,96.0007536 C97.9422789,96.7723999 96.1496206,97.0838656 94.3730074,96.9007536 C94.3642507,97.8007879 94.2974453,98.6993201 94.1730074,99.5907536 L94.1730074,99.7907536 C94.1730074,100.010754 94.0930074,100.230754 94.0430074,100.460754 L94.0430074,100.630754 C96.3273708,99.7160787 98.2584745,98.0933908 99.5530074,96.0007536 L99.5530074,96.0007536 Z" id="Path" fill="#000000" fill-rule="nonzero" opacity="0.2"></path>
                            <path d="M99.5530074,96.0007536 C100.149146,95.7202677 100.718212,95.3855232 101.253007,95.0007536 C102.524579,94.1472629 103.623787,93.0616252 104.493007,91.8007536 C104.87356,91.2422028 105.207999,90.6535911 105.493007,90.0407536 C105.303007,90.0407536 105.113007,90.1407536 104.933007,90.1607536 C103.263007,90.3107536 102.793007,88.4307536 103.553007,86.7507536 C103.810259,86.1826776 104.146961,85.6540561 104.553007,85.1807536 C104.116577,83.7530613 104.223427,82.2144173 104.853007,80.8607536 C103.333007,77.7407536 101.723007,74.8607536 101.573007,72.7707536 C97.8313035,73.9273569 93.9481814,74.5633275 90.0330074,74.6607536 C89.8830074,74.8907536 89.7430074,75.1407536 89.5930074,75.3807536 C89.9320444,75.3794001 90.2692885,75.4299867 90.5930074,75.5307536 C90.6781766,75.5621888 90.7472368,75.62638 90.784804,75.7090278 C90.8223712,75.7916757 90.825325,75.8859153 90.7930074,75.9707536 C90.7272303,76.148193 90.5323279,76.2412145 90.3530074,76.1807536 C89.9935927,76.0716998 89.6143458,76.0443667 89.2430074,76.1007536 C87.359775,79.8954575 86.4426332,84.0964479 86.5730074,88.3307536 C86.6429204,92.7608769 90.0238783,96.434335 94.4330074,96.8707536 L94.4330074,96.8707536 C96.1870432,97.0520222 97.9572934,96.751218 99.5530074,96.0007536 Z M97.3230074,76.3607536 C98.4286789,76.5781479 99.356307,77.3262351 99.8030074,78.3607536 C99.8835154,78.5350216 99.8131215,78.7418037 99.6430074,78.8307536 C99.5597634,78.8651995 99.4662514,78.8651995 99.3830074,78.8307536 C99.291663,78.8056914 99.2175197,78.7389625 99.1830074,78.6507536 C98.8142109,77.8310542 98.0668342,77.2443635 97.1830074,77.0807536 C96.9959088,77.0500387 96.8647028,76.8794709 96.8830074,76.6907536 C96.8913075,76.5870803 96.9452851,76.4924685 97.0303074,76.4325664 C97.1153296,76.3726644 97.2225886,76.3536777 97.3230074,76.3807536 L97.3230074,76.3607536 Z M96.9730074,81.3007536 L96.9730074,81.3007536 C97.3151516,81.5577574 97.455852,82.0039785 97.3230074,82.4107536 C97.2130074,82.9907536 96.8130074,83.4107536 96.4330074,83.3207536 C96.0530074,83.2307536 95.8330074,82.7207536 95.9430074,82.1407536 C95.9981895,81.8467798 96.1494385,81.5794559 96.3730074,81.3807536 C96.0613143,81.2157689 95.8172003,80.9468897 95.6830074,80.6207536 L96.9730074,81.3007536 Z M88.7730074,80.8807536 C88.826847,80.5914145 88.9744445,80.3278476 89.1930074,80.1307536 C88.8864075,79.9576031 88.6469143,79.6864123 88.5130074,79.3607536 L89.8230074,80.0307536 L89.8230074,80.0307536 C90.1528243,80.2963293 90.2908374,80.7340279 90.1730074,81.1407536 C90.0530074,81.7207536 89.6630074,82.1407536 89.2830074,82.0607536 C88.9030074,81.9807536 88.6630074,81.4807536 88.7730074,80.9007536 L88.7730074,80.8807536 Z M91.0930074,85.7407536 C90.342478,85.7851362 89.6106137,85.4960498 89.0930074,84.9507536 C90.1637229,83.9806445 91.0988062,82.8706535 91.8730074,81.6507536 L91.0930074,85.7407536 Z M93.0230074,88.4207536 C92.93091,88.3962114 92.8739083,88.3041317 92.8930074,88.2107536 C92.9129821,88.1200712 93.002025,88.0621933 93.0930074,88.0807536 C94.556828,88.3960151 96.0832667,87.9949071 97.2030074,87.0007536 C97.2458793,86.9560954 97.3093194,86.9377013 97.3694305,86.9525004 C97.4295416,86.9672994 97.4771913,87.0130431 97.4944305,87.0725004 C97.5116697,87.1319576 97.4958793,87.1960954 97.4530074,87.2407536 C96.5233006,88.0966828 95.2962302,88.5559372 94.0330074,88.5207536 C93.6948828,88.5177707 93.3573854,88.4910383 93.0230074,88.4407536 L93.0230074,88.4207536 Z" id="Shape" fill="#FFC3BD" fill-rule="nonzero"></path>
                            <path d="M106.203007,84.0007536 C105.783007,83.0007536 105.303007,81.9307536 104.813007,80.9307536 C104.183427,82.2844173 104.076577,83.8230613 104.513007,85.2507536 C104.956508,84.6926092 105.539478,84.2614187 106.203007,84.0007536 Z" id="Path" fill="#263238" fill-rule="nonzero"></path>
                            <path d="M96.3530074,81.4107536 C96.1294385,81.6094559 95.9781895,81.8767798 95.9230074,82.1707536 C95.8130074,82.7507536 96.0330074,83.2807536 96.4130074,83.3507536 C96.7930074,83.4207536 97.1930074,83.0207536 97.3030074,82.4407536 C97.435852,82.0339785 97.2951516,81.5877574 96.9530074,81.3307536 C96.7812774,81.4617693 96.5530654,81.4921976 96.3530074,81.4107536 Z" id="Path" fill="#263238" fill-rule="nonzero"></path>
                            <path d="M90.2030074,81.1707536 C90.3208374,80.7640279 90.1828243,80.3263293 89.8530074,80.0607536 C89.6770466,80.1897294 89.4487183,80.2234172 89.2430074,80.1507536 C89.0244445,80.3478476 88.876847,80.6114145 88.8230074,80.9007536 C88.7130074,81.4807536 88.9330074,82.0107536 89.3130074,82.0907536 C89.6930074,82.1707536 90.0330074,81.7507536 90.2030074,81.1707536 Z" id="Path" fill="#263238" fill-rule="nonzero"></path>
                            <path d="M89.8030074,80.0607536 L89.8030074,80.0607536 L88.4930074,79.3907536 C88.6269143,79.7164123 88.8664075,79.9876031 89.1730074,80.1607536 C89.3862429,80.2378529 89.6241274,80.2000935 89.8030074,80.0607536 L89.8030074,80.0607536 Z" id="Path" fill="#263238" fill-rule="nonzero"></path>
                            <path d="M89.1030074,85.0007536 C89.6206137,85.5460498 90.352478,85.8351362 91.1030074,85.7907536 L91.8930074,81.7007536 C91.1157244,82.9212767 90.177252,84.0312979 89.1030074,85.0007536 Z" id="Path" fill="#ED847E" fill-rule="nonzero"></path>
                            <path d="M97.4330074,87.0007536 C97.3632655,86.9334447 97.2527493,86.9334447 97.1830074,87.0007536 C96.067884,87.9886088 94.5504565,88.3892987 93.0930074,88.0807536 C93.002025,88.0621933 92.9129821,88.1200712 92.8930074,88.2107536 C92.8739083,88.3041317 92.93091,88.3962114 93.0230074,88.4207536 C93.3536134,88.4772738 93.687756,88.510688 94.0230074,88.5207536 C95.2862302,88.5559372 96.5133006,88.0966828 97.4430074,87.2407536 C97.5013473,87.1699032 97.497039,87.0665051 97.4330074,87.0007536 L97.4330074,87.0007536 Z" id="Path" fill="#263238" fill-rule="nonzero"></path>
                            <path d="M106.203007,84.0007536 C105.539478,84.2614187 104.956508,84.6926092 104.513007,85.2507536 C104.106961,85.7240561 103.770259,86.2526776 103.513007,86.8207536 C102.753007,88.5007536 103.223007,90.3807536 104.893007,90.2307536 C105.073007,90.2307536 105.263007,90.1507536 105.453007,90.1107536 C106.238221,89.9021863 106.955263,89.4919555 107.533007,88.9207536 C107.323681,87.2262844 106.875919,85.569904 106.203007,84.0007536 Z" id="Path" fill="#FFC3BD" fill-rule="nonzero"></path>
                            <path d="M101.763007,71.3207536 C101.823007,69.8807536 102.643007,69.5307536 103.763007,69.7507536 C97.7030074,66.2107536 88.8130074,70.0907536 88.1530074,74.7507536 C88.7530074,74.7507536 89.3730074,74.7507536 90.0130074,74.7507536 C93.9281814,74.6533275 97.8113035,74.0173569 101.553007,72.8607536 C101.494969,72.3379575 101.567111,71.8089222 101.763007,71.3207536 Z" id="Path" fill="#263238" fill-rule="nonzero"></path>
                            <path d="M101.763007,71.3207536 C101.5736,71.7966436 101.50157,72.3111452 101.553007,72.8207536 C101.703007,74.9407536 103.313007,77.8207536 104.833007,80.9107536 C105.323007,81.9107536 105.833007,82.9107536 106.223007,83.9807536 C106.895919,85.549904 107.343681,87.2062844 107.553007,88.9007536 C107.73324,90.4145405 107.512537,91.9491122 106.913007,93.3507536 C109.323007,90.6107536 110.313007,85.7007536 110.713007,81.5207536 L110.713007,81.5207536 C110.942294,79.0712121 111.012442,76.6093767 110.923007,74.1507536 C110.923007,74.1507536 106.463007,70.2907536 103.763007,69.7507536 C102.643007,69.5307536 101.823007,69.8807536 101.763007,71.3207536 Z" id="Path" fill="#263238" fill-rule="nonzero"></path>
                            <path d="M97.2030074,77.0707536 C98.0868342,77.2343635 98.8342109,77.8210542 99.2030074,78.6407536 C99.2375197,78.7289625 99.311663,78.7956914 99.4030074,78.8207536 C99.4862514,78.8551995 99.5797634,78.8551995 99.6630074,78.8207536 C99.8331215,78.7318037 99.9035154,78.5250216 99.8230074,78.3507536 C99.376307,77.3162351 98.4486789,76.5681479 97.3430074,76.3507536 C97.1527904,76.3270867 96.9789241,76.46083 96.9530074,76.6507536 C96.9139711,76.8345417 97.0228411,77.0174433 97.2030074,77.0707536 Z" id="Path" fill="#263238" fill-rule="nonzero"></path>
                            <path d="M90.2930074,76.2307536 C90.4723279,76.2912145 90.6672303,76.198193 90.7330074,76.0207536 C90.765325,75.9359153 90.7623712,75.8416757 90.724804,75.7590278 C90.6872368,75.67638 90.6181766,75.6121888 90.5330074,75.5807536 C90.2092885,75.4799867 89.8720444,75.4294001 89.5330074,75.4307536 C88.7536034,75.4278326 87.994778,75.6807744 87.3730074,76.1507536 C87.22328,76.2695969 87.1925453,76.4847404 87.3030074,76.6407536 C87.3579763,76.7095317 87.4362443,76.755781 87.5230074,76.7707536 C87.6174513,76.7912543 87.7161351,76.7693246 87.7930074,76.7107536 C88.1857358,76.4082787 88.6514903,76.2150768 89.1430074,76.1507536 C89.5273729,76.088206 89.9210045,76.115589 90.2930074,76.2307536 Z" id="Path" fill="#263238" fill-rule="nonzero"></path>
                            <path d="M96.3530074,81.4107536 C96.5530654,81.4921976 96.7812774,81.4617693 96.9530074,81.3307536 L96.9530074,81.3307536 L95.6430074,80.6607536 C95.7841669,80.9864326 96.0355459,81.2519738 96.3530074,81.4107536 L96.3530074,81.4107536 Z" id="Path" fill="#263238" fill-rule="nonzero"></path>
                            <path d="M112.353007,130.320754 C112.353007,129.910754 112.413007,129.470754 112.433007,129.050754 C111.873007,128.160754 111.303007,127.260754 110.713007,126.370754 L109.563007,124.660754 L109.203007,124.850754 C110.114647,126.750343 111.167606,128.578815 112.353007,130.320754 L112.353007,130.320754 Z" id="Path" fill="#263238" fill-rule="nonzero"></path>
                            <path d="M112.353007,130.320754 C112.353007,129.910754 112.413007,129.470754 112.433007,129.050754 C111.873007,128.160754 111.303007,127.260754 110.713007,126.370754 L109.563007,124.660754 L109.203007,124.850754 C110.114647,126.750343 111.167606,128.578815 112.353007,130.320754 L112.353007,130.320754 Z" id="Path" fill="#000000" fill-rule="nonzero" opacity="0.2"></path>
                            <path d="M115.323007,138.600754 L115.323007,138.760754 C119.311439,136.605561 122.985635,133.913842 126.243007,130.760754 C125.696804,129.147619 125.055685,127.568195 124.323007,126.030754 C123.352764,123.939582 122.274647,121.900172 121.093007,119.920754 C120.093007,118.200754 119.033007,116.560754 117.943007,114.920754 C116.943007,117.010754 114.103007,122.040754 109.593007,124.630754 L110.743007,126.340754 C111.333007,127.230754 111.903007,128.130754 112.463007,129.020754 L112.463007,129.020754 C112.953007,129.800754 113.463007,130.590754 113.873007,131.370754 C114.643007,132.720754 115.363007,134.080754 115.873007,135.370754 L115.773007,136.050754 C115.653007,136.880754 115.503007,137.730754 115.323007,138.600754 Z" id="Path" fill="#FFC3BD" fill-rule="nonzero"></path>
                            <path d="M102.713007,119.580754 C102.713007,119.580754 105.273007,122.140754 108.273007,125.310754 C108.593007,125.170754 108.903007,125.010754 109.203007,124.850754 L109.563007,124.660754 C114.073007,122.070754 116.893007,117.040754 117.913007,114.950754 C118.203007,114.360754 118.353007,114.000754 118.353007,114.000754 C118.353007,114.000754 115.453007,109.200754 111.473007,106.780754 C110.523445,106.18068 109.473225,105.757204 108.373007,105.530754 C101.283007,107.340754 98.9730074,111.780754 102.713007,119.580754 Z" id="Path" fill="#263238" fill-rule="nonzero"></path>
                            <path d="M150.663007,19.2707536 L164.753007,19.2707536 C165.55079,19.25724 166.206129,18.6366207 166.263007,17.8407536 L166.263007,17.8407536 C166.288107,17.4709532 166.157752,17.1074539 165.903366,16.8378804 C165.648979,16.5683068 165.293641,16.4171159 164.923007,16.4207536 L150.823007,16.4207536 C150.028781,16.4338208 149.374796,17.0488263 149.313007,17.8407536 L149.313007,17.8407536 C149.284806,18.2139784 149.415172,18.5818112 149.672112,18.8539769 C149.929051,19.1261426 150.288778,19.277446 150.663007,19.2707536 Z" id="Path" fill="#407BFF" fill-rule="nonzero"></path>
                            <path d="M150.373007,24.1807557 L164.463007,24.1807557 C165.26079,24.16724 165.916129,23.5466207 165.973007,22.7507536 L165.973007,22.7507536 C166.001037,22.379288 165.871993,22.013094 165.617274,21.7412664 C165.362554,21.4694388 165.005509,21.3168967 164.633007,21.3207536 L150.543007,21.3207536 C149.741364,21.3291205 149.080227,21.9511107 149.023007,22.7507536 L149.023007,22.7507536 C149.000942,23.1224439 149.133372,23.4867438 149.388977,23.7574958 C149.644582,24.0282478 150.000663,24.181408 150.373007,24.1807557 Z" id="Path" fill="#407BFF" fill-rule="nonzero"></path>
                            <path d="M36.3830074,24.180757 L50.4730074,24.180757 C51.2727426,24.1676651 51.9311912,23.5482035 51.9930074,22.7507536 L51.9930074,22.7507536 C52.0180974,22.3782989 51.8866841,22.0122606 51.6304241,21.7408148 C51.374164,21.469369 51.0162886,21.3171236 50.6430074,21.3207536 L36.5530074,21.3207536 C35.7532876,21.3295011 35.095232,21.9526929 35.0430074,22.7507536 L35.0430074,22.7507536 C35.0180517,23.1214631 35.1481341,23.485893 35.4021883,23.7570106 C35.6562426,24.0281282 36.0114598,24.1815926 36.3830074,24.180757 L36.3830074,24.180757 Z" id="Path" fill="#407BFF" fill-rule="nonzero"></path>
                            <path d="M150.083007,29.0807536 L164.203007,29.0807536 C165.004651,29.0723867 165.665788,28.4503964 165.723007,27.6507536 L165.723007,27.6507536 C165.745073,27.2790633 165.612643,26.9147633 165.357038,26.6440113 C165.101433,26.3732593 164.745352,26.2200992 164.373007,26.2207515 L150.253007,26.2207515 C149.453272,26.2338421 148.794824,26.8533036 148.733007,27.6507536 L148.733007,27.6507536 C148.707917,28.0232083 148.839331,28.3892466 149.095591,28.6606924 C149.351851,28.9321381 149.709726,29.0843835 150.083007,29.0807536 L150.083007,29.0807536 Z" id="Path" fill="#407BFF" fill-rule="nonzero"></path>
                            <path d="M131.563007,208.490754 L46.3230074,208.490754 C43.1047504,208.520817 40.0201487,207.205569 37.8137805,204.862489 C35.6074123,202.51941 34.4797545,199.361398 34.7030074,196.150754 L34.7030074,196.150754 C35.200189,189.27034 40.875399,183.912109 47.7730074,183.810754 L133.013007,183.810754 C136.231264,183.78069 139.315866,185.095939 141.522234,187.439018 C143.728603,189.782097 144.85626,192.940109 144.633007,196.150754 L144.633007,196.150754 C144.135826,203.031167 138.460616,208.389399 131.563007,208.490754 Z" id="Path" fill="#FFFFFF" fill-rule="nonzero"></path>
                            <path d="M129.623007,241.660754 L44.3730074,241.660754 C41.1547816,241.684988 38.0721325,240.366534 35.8667668,238.022621 C33.6614011,235.678709 32.5329793,232.52154 32.7530074,229.310754 L32.7530074,229.310754 C33.26497,222.442163 38.9360896,217.10081 45.8230074,217.000754 L131.073007,217.000754 C134.291264,216.97069 137.375866,218.285939 139.582234,220.629018 C141.788603,222.972097 142.91626,226.130109 142.693007,229.340754 L142.693007,229.340754 C142.181378,236.2111 136.511575,241.555551 129.623007,241.660754 Z" id="Path" fill="#FFFFFF" fill-rule="nonzero"></path>
                            <path d="M127.673007,274.820754 L42.4330074,274.820754 C39.2147504,274.850817 36.1301487,273.535569 33.9237805,271.192489 C31.7174123,268.84941 30.5897545,265.691398 30.8130074,262.480754 L30.8130074,262.480754 C31.309862,255.598586 36.9837504,250.237261 43.8830074,250.130754 L129.123007,250.130754 C132.342181,250.103503 135.426653,251.421032 137.632685,253.765652 C139.838716,256.110273 140.966104,259.269205 140.743007,262.480754 L140.743007,262.480754 C140.245826,269.361167 134.570616,274.719399 127.673007,274.820754 Z" id="Path" fill="#FFFFFF" fill-rule="nonzero"></path>
                            <ellipse id="Oval" fill="#407BFF" fill-rule="nonzero" transform="translate(48.646730, 196.147000) rotate(-44.160000) translate(-48.646730, -196.147000) " cx="48.6467302" cy="196.147" rx="6.55" ry="6.17"></ellipse>
                            <path d="M47.8930074,223.300754 L48.7330074,226.470754 C48.832758,226.829028 49.1611338,227.07531 49.5330074,227.070754 L52.8630074,227.070754 C53.248979,227.074395 53.585244,227.334749 53.6854237,227.70751 C53.7856034,228.080272 53.6251544,228.474118 53.2930074,228.670754 L50.4830074,230.670754 C50.1556437,230.88862 50.002943,231.290464 50.1030074,231.670754 L50.9430074,234.840754 C51.0450481,235.213582 50.9031561,235.610435 50.5878615,235.834048 C50.2725669,236.057661 49.8511195,236.06034 49.5330074,235.840754 L46.9530074,233.840754 C46.6529724,233.630046 46.2530424,233.630046 45.9530074,233.840754 L43.1430074,235.840754 C42.8399861,236.081943 42.4113397,236.084694 42.1052476,235.847414 C41.7991556,235.610133 41.6949678,235.194332 41.8530074,234.840754 L43.0630074,231.670754 C43.2158415,231.317232 43.1086778,230.905064 42.8030074,230.670754 L40.2230074,228.670754 C39.9320104,228.420674 39.8291358,228.01494 39.9658214,227.65642 C40.102507,227.297901 40.4493819,227.063634 40.8330074,227.070754 L44.1630074,227.070754 C44.5495112,227.070969 44.895861,226.832107 45.0330074,226.470754 L46.2030074,223.300754 C46.3122873,222.924944 46.6566314,222.666467 47.0480074,222.666467 C47.4393835,222.666467 47.7837275,222.924944 47.8930074,223.300754 L47.8930074,223.300754 Z" id="Path" fill="#407BFF" fill-rule="nonzero"></path>
                            <path d="M50.2030074,259.120754 L49.6730074,268.020754 C49.6205811,268.795005 48.9790241,269.397283 48.2030074,269.400754 L40.4130074,269.400754 C40.0650238,269.380457 39.7400653,269.2202 39.5121316,268.956475 C39.284198,268.69275 39.1726926,268.348008 39.2030074,268.000754 L39.8530074,256.920754 C39.9001326,256.14637 40.5372444,255.539805 41.3130074,255.530754 L46.9130074,255.530754 L50.2030074,259.120754 Z" id="Path" fill="#407BFF" fill-rule="nonzero"></path>
                            <path d="M46.8630074,255.550754 L50.2330074,259.120754 L48.0430074,259.120754 C47.6829647,259.124423 47.3377728,258.977451 47.090881,258.715365 C46.8439891,258.45328 46.7178681,258.099936 46.7430074,257.740754 L46.8630074,255.550754 M45.9730074,253.100754 L45.8330074,255.490754 L45.7030074,257.680754 C45.6681012,258.325223 45.89533,258.956414 46.3330074,259.430754 C46.7777215,259.899816 47.396649,260.164036 48.0430074,260.160784 L52.6230074,260.160784 L50.9830074,258.410754 L47.6230074,254.840754 L45.9730074,253.100754 L45.9730074,253.100754 Z" id="Shape" fill="#FFFFFF" fill-rule="nonzero"></path>
                            <path d="M128.703007,194.840754 L64.9130074,194.840754 C64.391161,194.844595 63.8911978,194.631352 63.5327647,194.252058 C63.1743316,193.872764 62.989683,193.361549 63.0230074,192.840754 L63.0230074,192.840754 C63.1106033,191.72436 64.0333151,190.857964 65.1530074,190.840754 L128.933007,190.840754 C129.454854,190.836913 129.954817,191.050155 130.31325,191.429449 C130.671683,191.808744 130.856332,192.319958 130.823007,192.840754 L130.823007,192.840754 C130.740341,193.955566 129.820741,194.823113 128.703007,194.840754 Z" id="Path" fill="#407BFF" fill-rule="nonzero" opacity="0.2"></path>
                            <path d="M116.613007,201.480754 L64.5330074,201.480754 C64.0103601,201.484406 63.5095338,201.271464 63.149552,200.892536 C62.7895702,200.513608 62.6025753,200.002527 62.6330074,199.480754 L62.6330074,199.480754 C62.7206033,198.36436 63.6433151,197.497964 64.7630074,197.480754 L116.843007,197.480754 C117.366584,197.474113 117.869208,197.68613 118.22985,198.065753 C118.590492,198.445376 118.776472,198.958206 118.743007,199.480754 L118.743007,199.480754 C118.650907,200.594979 117.730819,201.458911 116.613007,201.480754 L116.613007,201.480754 Z" id="Path" fill="#407BFF" fill-rule="nonzero" opacity="0.2"></path>
                            <path d="M126.603007,230.620754 L109.003007,230.620754 C107.881415,230.633256 106.956024,231.502168 106.873007,232.620754 L106.873007,232.620754 C106.839683,233.141549 107.024332,233.652764 107.382765,234.032058 C107.741198,234.411352 108.241161,234.624595 108.763007,234.620754 L126.363007,234.620754 C127.4846,234.608251 128.409991,233.73934 128.493007,232.620754 L128.493007,232.620754 C128.526332,232.099958 128.341683,231.588744 127.98325,231.209449 C127.624817,230.830155 127.124854,230.616913 126.603007,230.620754 L126.603007,230.620754 Z" id="Path" fill="#407BFF" fill-rule="nonzero" opacity="0.2"></path>
                            <path d="M98.7130074,230.620754 L62.8230074,230.620754 C61.7014148,230.633256 60.7760238,231.502168 60.6930074,232.620754 L60.6930074,232.620754 C60.6566158,233.142318 60.8402338,233.655299 61.1993344,234.0353 C61.5584349,234.4153 62.0602201,234.627613 62.5830074,234.620754 L98.4830074,234.620754 C99.6026998,234.603543 100.525411,233.737147 100.613007,232.620754 L100.613007,232.620754 C100.646472,232.098206 100.460492,231.585376 100.09985,231.205753 C99.7392078,230.82613 99.2365837,230.614113 98.7130074,230.620754 Z" id="Path" fill="#407BFF" fill-rule="nonzero" opacity="0.2"></path>
                            <path d="M115.293007,224.00075 L63.2030074,224.00075 C62.0814148,224.013256 61.1560238,224.882168 61.0730074,226.00075 L61.0730074,226.00075 C61.039683,226.521549 61.2243316,227.032764 61.5827647,227.412058 C61.9411978,227.791352 62.441161,228.004595 62.9630074,228.00075 L115.043007,228.00075 C116.1627,227.983543 117.085411,227.117147 117.173007,226.00075 L117.173007,226.00075 C117.206207,225.481701 117.022892,224.972088 116.666661,224.593119 C116.310431,224.21415 115.813119,223.999693 115.293007,224.00075 L115.293007,224.00075 Z" id="Path" fill="#407BFF" fill-rule="nonzero" opacity="0.2"></path>
                            <path d="M124.653007,263.780754 L60.8730074,263.780754 C59.7551958,263.802596 58.835108,264.666529 58.7430074,265.780754 L58.7430074,265.780754 C58.7095428,266.303302 58.8955232,266.816131 59.2561651,267.195754 C59.616807,267.575377 60.1194311,267.787394 60.6430074,267.780754 L124.423007,267.780754 C125.540741,267.763113 126.460341,266.895566 126.543007,265.780754 L126.543007,265.780754 C126.576332,265.259958 126.391683,264.748744 126.03325,264.369449 C125.674817,263.990155 125.174854,263.776913 124.653007,263.780754 L124.653007,263.780754 Z" id="Path" fill="#407BFF" fill-rule="nonzero" opacity="0.2"></path>
                            <path d="M113.343007,257.150754 L61.2630074,257.150754 C60.1433151,257.167964 59.2206033,258.03436 59.1330074,259.150754 L59.1330074,259.150754 C59.099683,259.671549 59.2843316,260.182764 59.6427647,260.562058 C60.0011978,260.941352 60.501161,261.154595 61.0230074,261.150754 L113.113007,261.150754 C114.230741,261.133113 115.150341,260.265566 115.233007,259.150754 L115.233007,259.150754 C115.266332,258.629958 115.081683,258.118744 114.72325,257.739449 C114.364817,257.360155 113.864854,257.146913 113.343007,257.150754 L113.343007,257.150754 Z" id="Path" fill="#407BFF" fill-rule="nonzero" opacity="0.2"></path>
                        </g>
                    </g>
                </g>
            </g>
        </g>
    </g>
</svg>