<?xml version="1.0" encoding="UTF-8"?>
<svg width="330px" height="344px" viewBox="0 0 330 344" version="1.1" xmlns="http://www.w3.org/2000/svg" xmlns:xlink="http://www.w3.org/1999/xlink">
    <title>Group 2 Copy</title>
    <defs>
        <path d="M283.853035,56.9105777 C316.969213,87.9065667 337.431241,139.656392 327.469464,184.937489 C317.776924,229.949055 277.391342,268.761424 225.42856,300.835534 C173.465778,332.640114 109.387322,357.975966 76.8096192,335.335418 C44.5011537,312.9644 43.4242049,242.616981 29.1546327,176.582048 C14.8850604,110.547115 -12.8463725,48.5551372 6.80794403,20.523982 C26.1930233,-7.50717323 92.963852,-1.30797544 148.965192,7.04746506 C205.235769,15.4029056 250.736858,25.9145888 283.853035,56.9105777 Z" id="path-1"></path>
    </defs>
    <g id="Onboarding" stroke="none" stroke-width="1" fill="none" fill-rule="evenodd">
        <g id="Documents-1" transform="translate(-42.000000, -214.000000)">
            <g id="Add-files-rafiki" transform="translate(42.000000, 214.000000)">
                <mask id="mask-2" fill="white">
                    <use xlink:href="#path-1" transform="translate(165.000000, 172.000000) scale(-1, 1) translate(-165.000000, -172.000000) "></use>
                </mask>
                <use id="Mask" fill="#F1C21B" fill-rule="nonzero" transform="translate(165.000000, 172.000000) scale(-1, 1) translate(-165.000000, -172.000000) " xlink:href="#path-1"></use>
                <g mask="url(#mask-2)" id="freepik--Folder--inject-3">
                    <g transform="translate(54.000000, 54.000000)">
                        <polygon id="Rectangle" fill="#407BFF" fill-rule="nonzero" transform="translate(1.643124, 121.710381) rotate(-6.670000) translate(-1.643124, -121.710381) " points="1.04872894 112.646707 2.24015941 112.646533 2.23751821 130.773881 1.04608774 130.774055"></polygon>
                        <polygon id="Rectangle" fill="#407BFF" fill-rule="nonzero" transform="translate(4.009192, 141.951426) rotate(-6.670000) translate(-4.009192, -141.951426) " points="3.41414342 137.378743 4.6055739 137.37857 4.60424137 146.524109 3.4128109 146.524283"></polygon>
                        <path d="M82.6566194,75.9253782 L81.2549604,71.9840749 C79.2694537,66.4053284 73.6967059,62.9410036 67.822395,63.6336577 L12.0013255,70.1713093 C5.03790295,70.9890793 0.0545324418,77.3033969 0.869816927,84.2757954 L16.7552856,220.291695 C17.0216609,222.589258 18.189507,224.686488 20.0014639,226.121214 C21.8134207,227.55594 24.1207752,228.210409 26.4150521,227.940396 L226.151459,204.549872 C228.45036,204.288885 230.55082,203.121997 231.988637,201.307091 C233.426454,199.492185 234.083246,197.17869 233.813862,194.87789 L220.030882,77.2937239 C219.475981,72.5140451 215.156467,69.0896694 210.382795,69.6450225 L94.3955135,83.2349171 C89.2605814,83.8300209 84.3943283,80.7999172 82.6566194,75.9253782 Z" id="Path" fill="#407BFF" fill-rule="nonzero"></path>
                        <polygon id="Rectangle" fill="#407BFF" fill-rule="nonzero" transform="translate(65.339966, 66.600380) rotate(-11.270000) translate(-65.339966, -66.600380) " points="33.1752417 22.2267994 97.526178 22.2112035 97.5046908 110.973962 33.1537545 110.989557"></polygon>
                        <polygon id="Rectangle" fill="#FFFFFF" fill-rule="nonzero" opacity="0.7" transform="translate(65.339966, 66.600380) rotate(-11.270000) translate(-65.339966, -66.600380) " points="33.1752417 22.2267994 97.526178 22.2112035 97.5046908 110.973962 33.1537545 110.989557"></polygon>
                        <g id="Group" opacity="0.4" transform="translate(36.769215, 30.822006)" fill="#407BFF" fill-rule="nonzero">
                            <path d="M43.0373639,6.87155977 L4.16468777,14.6372139 C2.280089,15.0034855 0.45201094,13.7832257 0.0648352016,11.9005225 L0.0648352016,11.9005225 C-0.300973903,10.0135406 0.917744801,8.18315083 2.79807025,7.79548549 L41.6941074,0.0649171888 C43.5787062,-0.301354499 45.4067842,0.918905333 45.79396,2.80160854 L45.79396,2.80160854 C46.1371966,4.683911 44.9108901,6.49448023 43.0373639,6.87155977 L43.0373639,6.87155977 Z" id="Path"></path>
                            <path d="M45.8990844,21.291818 L7.02640822,29.0925579 C5.14584631,29.4516698 3.32552092,28.2331133 2.93823615,26.3558666 L2.93823615,26.3558666 C2.57957781,24.4729266 3.79659535,22.6502993 5.67147119,22.2625248 L44.5441474,14.508566 C46.4247093,14.1494541 48.2450347,15.3680106 48.6323194,17.2452573 L48.6323194,17.2452573 C48.9627147,19.1119514 47.7523947,20.9038328 45.8990844,21.291818 L45.8990844,21.291818 Z" id="Path"></path>
                            <path d="M48.7608049,35.6886858 L9.88812867,43.4426446 C8.00756676,43.8017565 6.18724138,42.5832 5.7999566,40.7059532 L5.7999566,40.7059532 C5.44129826,38.8230133 6.6583158,37.000386 8.53319164,36.6126115 L47.4058678,28.8469574 C49.2864297,28.4878455 51.1067551,29.706402 51.4940399,31.5836488 L51.4940399,31.5836488 C51.859849,33.4706307 50.6411303,35.3010204 48.7608049,35.6886858 L48.7608049,35.6886858 Z" id="Path"></path>
                            <path d="M51.6342058,50.1440298 L12.7615296,57.8979886 C10.8769308,58.2642603 9.04885279,57.0440005 8.66167705,55.1612973 L8.66167705,55.1612973 C8.29586794,53.2743154 9.51458665,51.4439256 11.3949121,51.0562603 L50.2675883,43.3023015 C52.152187,42.9360298 53.9802651,44.1562896 54.3674408,46.0389928 L54.3674408,46.0389928 C54.7332499,47.9259747 53.5145312,49.7563645 51.6342058,50.1440298 L51.6342058,50.1440298 Z" id="Path"></path>
                            <path d="M43.8666789,66.5992637 L15.6232501,72.2363801 C13.7426882,72.5954919 11.9223628,71.3769354 11.535078,69.4996887 L11.535078,69.4996887 C11.1692689,67.6127068 12.3879876,65.782317 14.268313,65.3946517 L42.5117418,59.7575353 C44.3923037,59.3984235 46.2126291,60.61698 46.5999139,62.4942267 L46.5999139,62.4942267 C46.965723,64.3812086 45.7470043,66.2115984 43.8666789,66.5992637 L43.8666789,66.5992637 Z" id="Path"></path>
                        </g>
                        <polygon id="Rectangle" fill="#407BFF" fill-rule="nonzero" transform="translate(152.281385, 48.340379) rotate(-7.790000) translate(-152.281385, -48.340379) " points="120.114251 3.96335305 184.463575 3.9524256 184.44852 92.7174059 120.099196 92.7283333"></polygon>
                        <polygon id="Rectangle" fill="#FFFFFF" fill-rule="nonzero" opacity="0.7" transform="translate(152.281385, 48.340379) rotate(-7.790000) translate(-152.281385, -48.340379) " points="120.114251 3.96335305 184.463575 3.9524256 184.44852 92.7174059 120.099196 92.7283333"></polygon>
                        <g id="Group" opacity="0.4" transform="translate(125.248586, 13.442492)" fill="#407BFF" fill-rule="nonzero">
                            <path d="M43.224606,6.94208593 L3.95479306,12.3219065 C2.05159764,12.5718773 0.301768233,11.2422025 0.030147865,9.33961468 L0.030147865,9.33961468 C-0.219507249,7.43401258 1.10848828,5.68197043 3.00867323,5.41000659 L42.2784861,0.0301859884 C44.1816815,-0.219784826 45.931511,1.10989002 46.2031313,3.01247784 L46.2031313,3.01247784 C46.4527864,4.91807994 45.1247909,6.67012209 43.224606,6.94208593 L43.224606,6.94208593 Z" id="Path"></path>
                            <path d="M45.2102895,21.4792968 L5.94047664,26.8591174 C4.03728122,27.1090882 2.28745181,25.7794134 2.01583144,23.8768256 L2.01583144,23.8768256 C1.77310327,21.9754619 3.09932449,20.2309681 4.99435681,19.9589127 L44.2641697,14.5790921 C46.1634191,14.3287165 47.9114743,15.651834 48.1888149,17.5496887 L48.1888149,17.5496887 C48.43847,19.4552908 47.1104745,21.207333 45.2102895,21.4792968 L45.2102895,21.4792968 Z" id="Path"></path>
                            <path d="M18.7422955,39.9227253 L7.92616021,41.4080236 C6.0229648,41.6579944 4.27313539,40.3283195 4.00151502,38.4257317 L4.00151502,38.4257317 C3.75185991,36.5201296 5.07985544,34.7680875 6.98004039,34.4961236 L17.8078561,33.0108253 C19.7068184,32.7677902 21.4491091,34.0956885 21.7208208,35.9931172 L21.7208208,35.9931172 C21.970476,37.8987193 20.6424804,39.6507614 18.7422955,39.9227253 L18.7422955,39.9227253 Z" id="Path"></path>
                            <path d="M39.732139,37.0456908 L28.9043232,38.5309891 C27.0053609,38.7740242 25.2630703,37.4461259 24.9913585,35.5486972 L24.9913585,35.5486972 C24.7417034,33.6430951 26.0696989,31.891053 27.9698839,31.6190891 L38.7860191,30.1454861 C40.6852685,29.8951105 42.4333238,31.218228 42.7106643,33.1160827 L42.7106643,33.1160827 C42.9603194,35.0216848 41.6323239,36.7737269 39.732139,37.0456908 L39.732139,37.0456908 Z" id="Path"></path>
                            <path d="M49.1816567,50.5654138 L9.91184379,55.9452344 C8.00864838,56.1952053 6.25881897,54.8655304 5.9871986,52.9629426 L5.9871986,52.9629426 C5.74447042,51.061579 7.07069165,49.3170851 8.96572397,49.0450298 L48.2355369,43.6535139 C50.1387323,43.4035431 51.8885617,44.7332179 52.1601821,46.6358058 L52.1601821,46.6358058 C52.4098372,48.5414079 51.0818416,50.29345 49.1816567,50.5654138 L49.1816567,50.5654138 Z" id="Path"></path>
                            <path d="M40.4446489,66.5762278 L11.8975274,70.4824453 C10.0025071,70.725899 8.26197939,69.4045465 7.98456267,67.5118487 L7.98456267,67.5118487 C7.73450325,65.6101976 9.05594975,63.8599319 10.9514075,63.5822406 L39.4985291,59.6760231 C41.3935494,59.4325694 43.1340771,60.7539219 43.4114938,62.6466197 L43.4114938,62.6466197 C43.6615532,64.5482708 42.3401067,66.2985365 40.4446489,66.5762278 Z" id="Path"></path>
                        </g>
                        <polygon id="Rectangle" fill="#407BFF" fill-rule="nonzero" transform="translate(89.786499, 59.844233) rotate(-4.980000) translate(-89.786499, -59.844233) " points="57.6171262 15.4646543 121.965568 15.4576173 121.955873 104.223812 57.607431 104.230849"></polygon>
                        <polygon id="Rectangle" fill="#FFFFFF" fill-rule="nonzero" opacity="0.8" transform="translate(89.786499, 59.844233) rotate(-4.980000) translate(-89.786499, -59.844233) " points="57.6171262 15.4646543 121.965568 15.4576173 121.955873 104.223812 57.607431 104.230849"></polygon>
                        <g id="Group" opacity="0.4" transform="translate(64.050509, 25.717593)" fill="#407BFF" fill-rule="nonzero">
                            <path d="M43.2753091,7.01718206 L3.78356685,10.4555891 C1.87152115,10.6112414 0.189899896,9.19856138 0.0107680508,7.28617309 L0.0107680508,7.28617309 C-0.137960486,5.37608463 1.27112405,3.69970465 3.17618129,3.52029867 L42.6679235,0.0117200216 C44.5799692,-0.143932213 46.2615905,1.26874778 46.4407223,3.18113607 L46.4407223,3.18113607 C46.5317322,4.11067523 46.2488299,5.03818366 45.6546803,5.75821128 C45.0605308,6.47823889 44.2041775,6.93135179 43.2753091,7.01718206 L43.2753091,7.01718206 Z" id="Path"></path>
                            <path d="M44.5484827,21.6362598 L5.05674044,25.1448384 C3.14469474,25.3004907 1.46307348,23.8878107 1.28394164,21.9754224 L1.28394164,21.9754224 C1.12848599,20.0609588 2.53938184,18.3772111 4.44935487,18.1978527 L43.9410971,14.6892741 C45.8531428,14.5336218 47.5347641,15.9463018 47.7138959,17.8586901 L47.7138959,17.8586901 C47.8693516,19.7731537 46.4584557,21.4569014 44.5484827,21.6362598 L44.5484827,21.6362598 Z" id="Path"></path>
                            <path d="M45.8216563,36.2553375 L6.32991403,39.7639162 C4.41786833,39.9195684 2.73624707,38.5068884 2.55711523,36.5945001 L2.55711523,36.5945001 C2.40165957,34.6800365 3.81255542,32.9962888 5.72252846,32.8169304 L45.2142707,29.3083518 C47.1263164,29.1526995 48.8079377,30.5653795 48.9870695,32.4777678 L48.9870695,32.4777678 C49.1425252,34.3922314 47.7316293,36.0759791 45.8216563,36.2553375 Z" id="Path"></path>
                            <path d="M47.1181908,50.8744152 L7.6264486,54.3829939 C5.7144029,54.5386461 4.03278165,53.1259661 3.8536498,51.2135778 L3.8536498,51.2135778 C3.69819415,49.2991143 5.10909,47.6153665 7.01906304,47.4360081 L46.5108053,43.9976011 C48.422851,43.8419488 50.1044722,45.2546288 50.2836041,47.1670171 L50.2836041,47.1670171 C50.3991715,49.0551545 48.9989739,50.6950952 47.1181908,50.8744152 L47.1181908,50.8744152 Z" id="Path"></path>
                            <path d="M37.5752292,66.4408092 L8.87626121,68.9435953 C6.95113817,69.1196479 5.24727773,67.7014575 5.06842093,65.7741792 L5.06842093,65.7741792 C4.91296528,63.8597157 6.32386113,62.1759679 8.23383417,61.9966096 L36.9328021,59.4938234 C38.8448478,59.3381712 40.5264691,60.7508512 40.7056009,62.6632395 L40.7056009,62.6632395 C40.8619322,64.5653225 39.4711348,66.2436643 37.5752292,66.4408092 L37.5752292,66.4408092 Z" id="Path"></path>
                        </g>
                        <polygon id="Rectangle" fill="#407BFF" fill-rule="nonzero" transform="translate(166.101815, 54.418457) rotate(-2.760000) translate(-166.101815, -54.418457) " points="133.930503 10.037024 198.27852 10.0331103 198.273128 98.7998903 133.925111 98.8038039"></polygon>
                        <polygon id="Rectangle" fill="#FFFFFF" fill-rule="nonzero" opacity="0.8" transform="translate(166.101815, 54.418457) rotate(-2.760000) translate(-166.101815, -54.418457) " points="133.930503 10.037024 198.27852 10.0331103 198.273128 98.7998903 133.925111 98.8038039"></polygon>
                        <g id="Group" opacity="0.4" transform="translate(141.453132, 21.024731)" fill="#407BFF" fill-rule="nonzero">
                            <path d="M43.2325818,6.96176717 L3.64739567,8.87979017 C1.73325118,8.959508 0.109989165,7.48526421 0.00308227652,5.57003097 L0.00308227652,5.57003097 C-0.0765348814,3.65346596 1.39584701,2.02815125 3.30866141,1.92110917 L42.9055281,0.0030861742 C44.8196726,-0.0766316634 46.4429346,1.39761213 46.5498415,3.31284537 L46.5498415,3.31284537 C46.6292911,5.23372621 45.1500355,6.86087889 43.2325818,6.96176717 L43.2325818,6.96176717 Z" id="Path"></path>
                            <path d="M43.9450918,21.6276259 L4.34822517,23.5339537 C2.43408068,23.6136715 0.810818663,22.1394277 0.703911775,20.2241945 L0.703911775,20.2241945 C0.624462172,18.3033136 2.10371774,16.676161 4.0211714,16.5752727 L43.6063576,14.6572497 C45.5248124,14.5776996 47.1499101,16.0588258 47.250671,17.9787041 L47.250671,17.9787041 C47.3302881,19.8952691 45.8579062,21.5205839 43.9450918,21.6276259 Z" id="Path"></path>
                            <path d="M15.9703143,37.7203067 L5.06073516,38.2465935 C3.14659067,38.3263113 1.52332865,36.8520675 1.41642177,34.9368343 L1.41642177,34.9368343 C1.33680461,33.0202693 2.8091865,31.3949546 4.7220009,31.2879125 L15.6315801,30.7499304 C17.550035,30.6703804 19.1751326,32.1515065 19.2758935,34.0713849 L19.2758935,34.0713849 C19.3555106,35.9879499 17.8831287,37.6132646 15.9703143,37.7203067 L15.9703143,37.7203067 Z" id="Path"></path>
                            <path d="M37.1236847,36.6443426 L26.2141055,37.1706294 C24.299961,37.2503472 22.676699,35.7761034 22.5697921,33.8608702 L22.5697921,33.8608702 C22.490175,31.9443052 23.9625569,30.3189905 25.8753713,30.2119484 L36.7849505,29.6856616 C38.6990949,29.6059437 40.322357,31.0801875 40.4292638,32.9954208 L40.4292638,32.9954208 C40.508881,34.9119858 39.0364991,36.5373005 37.1236847,36.6443426 L37.1236847,36.6443426 Z" id="Path"></path>
                            <path d="M45.3584313,50.9476482 L5.76156466,52.8539759 C3.84742017,52.9336938 2.22415815,51.45945 2.11725126,49.5442167 L2.11725126,49.5442167 C2.03780166,47.6233359 3.51705723,45.9961832 5.43451089,45.895295 L45.0196971,43.977272 C46.9381519,43.8977219 48.5632496,45.378848 48.6640105,47.2987264 L48.6640105,47.2987264 C48.7436276,49.2152914 47.2712457,50.8406061 45.3584313,50.9476482 L45.3584313,50.9476482 Z" id="Path"></path>
                            <path d="M35.2431256,66.1280985 L6.47407465,67.5198347 C4.55993016,67.5995526 2.93666814,66.1253088 2.82976125,64.2100755 L2.82976125,64.2100755 C2.7501441,62.2935105 4.22252599,60.6681958 6.13534039,60.5611537 L34.9043913,59.1694175 C36.8185358,59.0896997 38.4417978,60.5639435 38.5487047,62.4791767 L38.5487047,62.4791767 C38.6283218,64.3957417 37.15594,66.0210564 35.2431256,66.1280985 L35.2431256,66.1280985 Z" id="Path"></path>
                        </g>
                        <path d="M100.48105,78.4398596 L99.4531664,74.5921184 C97.9626623,69.0797865 92.5840702,65.5599214 86.9433598,66.4054348 L31.1222903,72.9430864 C24.1156759,73.8029598 18.8409739,79.7457561 18.8110521,86.8136673 L21.9764653,219.964227 C22.0146865,222.183058 23.0091327,224.276991 24.7038693,225.707122 C26.3986059,227.137253 28.6281136,227.763906 30.8185975,227.425804 L230.555005,204.03528 C235.353019,203.452535 238.970493,199.389629 239,194.550422 L236.266765,79.4456522 C236.225183,77.2258054 235.228082,75.1321112 233.531594,73.7023912 C231.835107,72.2726711 229.604568,71.6462624 227.412952,71.9840749 L111.437351,85.5622743 C106.509352,86.3156158 101.799145,83.2536292 100.48105,78.4398596 Z" id="Path" fill="#407BFF" fill-rule="nonzero"></path>
                        <path d="M100.48105,78.4398596 L99.4531664,74.5921184 C97.9626623,69.0797865 92.5840702,65.5599214 86.9433598,66.4054348 L31.1222903,72.9430864 C24.1156759,73.8029598 18.8409739,79.7457561 18.8110521,86.8136673 L21.9764653,219.964227 C22.0146865,222.183058 23.0091327,224.276991 24.7038693,225.707122 C26.3986059,227.137253 28.6281136,227.763906 30.8185975,227.425804 L230.555005,204.03528 C235.353019,203.452535 238.970493,199.389629 239,194.550422 L236.266765,79.4456522 C236.225183,77.2258054 235.228082,75.1321112 233.531594,73.7023912 C231.835107,72.2726711 229.604568,71.6462624 227.412952,71.9840749 L111.437351,85.5622743 C106.509352,86.3156158 101.799145,83.2536292 100.48105,78.4398596 Z" id="Path" fill="#000000" fill-rule="nonzero" opacity="0.3"></path>
                    </g>
                </g>
            </g>
        </g>
    </g>
</svg>